<svg width="1120" height="391" viewBox="0 0 1120 391" fill="none" xmlns="http://www.w3.org/2000/svg">
<path opacity="0.2" d="M18.144 57.528C14.624 57.528 11.616 56.776 9.12 55.272C6.656 53.736 4.784 51.592 3.504 48.84C2.224 46.088 1.584 42.856 1.584 39.144C1.584 35.56 2.336 32.392 3.84 29.64C5.344 26.888 7.408 24.76 10.032 23.256C12.656 21.72 15.6 20.952 18.864 20.952C21.328 20.952 24.288 21.336 27.744 22.104L29.328 22.392L28.848 31.032H25.632L24.432 24.936C23.984 24.552 23.2 24.232 22.08 23.976C20.992 23.688 19.648 23.544 18.048 23.544C16 23.544 14.176 24.136 12.576 25.32C10.976 26.472 9.712 28.184 8.784 30.456C7.888 32.728 7.44 35.448 7.44 38.616C7.44 41.624 7.84 44.36 8.64 46.824C9.44 49.288 10.656 51.256 12.288 52.728C13.92 54.168 15.936 54.888 18.336 54.888C20.032 54.888 21.328 54.744 22.224 54.456C23.152 54.168 23.936 53.752 24.576 53.208L26.592 48.504L29.616 48.888L28.464 55.704C27.792 55.736 26.8 55.96 25.488 56.376C24.336 56.728 23.216 57 22.128 57.192C21.072 57.416 19.744 57.528 18.144 57.528ZM33.5194 43.608C33.5194 40.728 34.1114 38.232 35.2954 36.12C36.4794 34.008 38.0314 32.408 39.9514 31.32C41.9034 30.2 43.9834 29.64 46.1914 29.64C50.2234 29.64 53.2474 30.92 55.2634 33.48C57.3114 36.04 58.3354 39.4 58.3354 43.56C58.3354 46.472 57.7434 48.984 56.5594 51.096C55.3754 53.208 53.8074 54.808 51.8554 55.896C49.9354 56.984 47.8714 57.528 45.6634 57.528C41.6314 57.528 38.5914 56.248 36.5434 53.688C34.5274 51.128 33.5194 47.768 33.5194 43.608ZM45.9514 54.792C48.1594 54.792 49.8554 53.88 51.0394 52.056C52.2234 50.232 52.8154 47.528 52.8154 43.944C52.8154 40.392 52.2714 37.576 51.1834 35.496C50.0954 33.416 48.3514 32.376 45.9514 32.376C43.7434 32.376 42.0314 33.288 40.8154 35.112C39.6314 36.936 39.0394 39.64 39.0394 43.224C39.0394 46.776 39.5994 49.592 40.7194 51.672C41.8394 53.752 43.5834 54.792 45.9514 54.792ZM66.2265 21.192L62.3385 20.664V18.6L70.0665 17.688H70.1625L71.2185 18.408V54.264L75.2985 54.648V57H62.3385V54.648L66.2265 54.216V21.192ZM78.7069 43.608C78.7069 40.728 79.2989 38.232 80.4829 36.12C81.6669 34.008 83.2189 32.408 85.1389 31.32C87.0909 30.2 89.1709 29.64 91.3789 29.64C95.4109 29.64 98.4349 30.92 100.451 33.48C102.499 36.04 103.523 39.4 103.523 43.56C103.523 46.472 102.931 48.984 101.747 51.096C100.563 53.208 98.9949 54.808 97.0429 55.896C95.1229 56.984 93.0589 57.528 90.8509 57.528C86.8189 57.528 83.7789 56.248 81.7309 53.688C79.7149 51.128 78.7069 47.768 78.7069 43.608ZM91.1389 54.792C93.3469 54.792 95.0429 53.88 96.2269 52.056C97.4109 50.232 98.0029 47.528 98.0029 43.944C98.0029 40.392 97.4589 37.576 96.3709 35.496C95.2829 33.416 93.5389 32.376 91.1389 32.376C88.9309 32.376 87.2189 33.288 86.0029 35.112C84.8189 36.936 84.2269 39.64 84.2269 43.224C84.2269 46.776 84.7869 49.592 85.9069 51.672C87.0269 53.752 88.7709 54.792 91.1389 54.792ZM108.006 54.648L111.606 54.36V34.056L108.15 33.192V30.6L114.774 29.736H114.87L115.926 30.6V31.464L115.782 35.208H115.926C116.246 34.664 116.822 33.96 117.654 33.096C118.486 32.232 119.558 31.448 120.87 30.744C122.182 30.008 123.606 29.64 125.142 29.64C125.782 29.64 126.31 29.72 126.726 29.88V35.256C126.502 35.096 126.134 34.952 125.622 34.824C125.142 34.664 124.598 34.584 123.99 34.584C121.334 34.584 118.87 35.4 116.598 37.032V54.312L122.694 54.696V57H108.006V54.648ZM134.358 53.16C134.678 53.64 135.35 54.072 136.374 54.456C137.43 54.84 138.534 55.032 139.686 55.032C141.51 55.032 142.854 54.68 143.718 53.976C144.582 53.272 145.014 52.296 145.014 51.048C145.014 50.184 144.742 49.432 144.198 48.792C143.654 48.152 142.886 47.592 141.894 47.112C140.934 46.6 139.542 45.992 137.718 45.288C135.254 44.36 133.446 43.256 132.294 41.976C131.174 40.664 130.614 38.952 130.614 36.84C130.614 35.432 131.03 34.2 131.862 33.144C132.726 32.088 133.894 31.272 135.366 30.696C136.87 30.088 138.534 29.784 140.358 29.784C141.83 29.784 143.11 29.896 144.198 30.12C145.318 30.344 146.214 30.568 146.886 30.792C147.558 31.016 148.006 31.16 148.23 31.224V37.176H145.302L144.342 33.624C144.15 33.24 143.638 32.92 142.806 32.664C141.974 32.376 141.046 32.232 140.022 32.232C138.582 32.232 137.414 32.552 136.518 33.192C135.654 33.832 135.222 34.696 135.222 35.784C135.222 36.744 135.446 37.544 135.894 38.184C136.374 38.792 136.966 39.288 137.67 39.672C138.374 40.056 139.334 40.504 140.55 41.016L141.51 41.4C143.302 42.104 144.758 42.776 145.878 43.416C146.998 44.056 147.926 44.904 148.662 45.96C149.43 46.984 149.814 48.248 149.814 49.752C149.814 52.12 148.886 54.008 147.03 55.416C145.206 56.824 142.694 57.528 139.494 57.528C137.926 57.528 136.278 57.32 134.55 56.904C132.854 56.456 131.462 56.008 130.374 55.56V49.416H133.494L134.358 53.16Z" fill="#222222"/>
<rect y="96" width="1120" height="206" fill="#1E92DF"/>
<path d="M1033.98 278L1035.88 265.508H1037.27L1035.36 278H1033.98ZM1028.86 274.148V272.834H1038.08V274.148H1028.86ZM1030.12 278L1032.03 265.508H1033.42L1031.51 278H1030.12ZM1029.42 270.422V269.108H1038.64V270.422H1029.42ZM1042.63 278V265.508H1044.3V278H1042.63ZM1040.07 267.02V265.508H1044.12V267.02H1040.07ZM1047.23 278V265.508H1048.92V278H1047.23ZM1048.38 278V276.452H1055.55V278H1048.38ZM1048.38 272.348V270.872H1054.95V272.348H1048.38ZM1048.38 267.056V265.508H1055.46V267.056H1048.38ZM1059.02 278L1062.78 272.87L1063.39 272.546C1063.25 272.786 1063.07 272.996 1062.87 273.176C1062.67 273.356 1062.41 273.494 1062.11 273.59C1061.83 273.686 1061.47 273.734 1061.05 273.734C1060.33 273.734 1059.67 273.56 1059.05 273.212C1058.45 272.864 1057.97 272.384 1057.61 271.772C1057.25 271.148 1057.07 270.446 1057.07 269.666C1057.07 268.862 1057.27 268.136 1057.67 267.488C1058.06 266.828 1058.59 266.306 1059.25 265.922C1059.91 265.526 1060.64 265.328 1061.45 265.328C1062.26 265.328 1063 265.52 1063.66 265.904C1064.32 266.288 1064.84 266.804 1065.23 267.452C1065.61 268.088 1065.8 268.808 1065.8 269.612C1065.8 270.716 1065.42 271.814 1064.65 272.906L1060.98 278H1059.02ZM1061.45 272.402C1061.95 272.402 1062.4 272.282 1062.8 272.042C1063.21 271.79 1063.52 271.46 1063.75 271.052C1063.99 270.632 1064.11 270.17 1064.11 269.666C1064.11 269.138 1063.99 268.67 1063.75 268.262C1063.52 267.842 1063.21 267.512 1062.8 267.272C1062.4 267.032 1061.95 266.912 1061.45 266.912C1060.94 266.912 1060.49 267.032 1060.08 267.272C1059.68 267.512 1059.37 267.842 1059.13 268.262C1058.89 268.67 1058.77 269.138 1058.77 269.666C1058.77 270.182 1058.89 270.644 1059.13 271.052C1059.37 271.46 1059.69 271.79 1060.1 272.042C1060.51 272.282 1060.96 272.402 1061.45 272.402ZM1066.95 276.974L1071.56 272.114C1072.03 271.634 1072.39 271.22 1072.66 270.872C1072.92 270.512 1073.11 270.182 1073.21 269.882C1073.33 269.582 1073.39 269.27 1073.39 268.946C1073.39 268.31 1073.19 267.812 1072.78 267.452C1072.37 267.092 1071.85 266.912 1071.2 266.912C1070.56 266.912 1070 267.068 1069.52 267.38C1069.04 267.68 1068.62 268.148 1068.25 268.784L1067.06 267.794C1067.55 266.978 1068.14 266.366 1068.84 265.958C1069.54 265.538 1070.34 265.328 1071.25 265.328C1072.02 265.328 1072.69 265.478 1073.25 265.778C1073.83 266.078 1074.27 266.498 1074.58 267.038C1074.89 267.578 1075.05 268.208 1075.05 268.928C1075.05 269.444 1074.98 269.906 1074.85 270.314C1074.73 270.722 1074.51 271.142 1074.19 271.574C1073.87 271.994 1073.44 272.498 1072.87 273.086L1069.15 276.92L1066.95 276.974ZM1066.95 278V276.974L1068.39 276.488H1075.34V278H1066.95ZM1078.69 278V276.452H1082.16C1083.08 276.452 1083.89 276.254 1084.59 275.858C1085.29 275.45 1085.83 274.892 1086.21 274.184C1086.61 273.476 1086.8 272.66 1086.8 271.736C1086.8 270.824 1086.61 270.014 1086.21 269.306C1085.81 268.598 1085.27 268.046 1084.57 267.65C1083.88 267.254 1083.07 267.056 1082.16 267.056H1078.7V265.508H1082.2C1083.11 265.508 1083.95 265.664 1084.72 265.976C1085.5 266.288 1086.17 266.726 1086.73 267.29C1087.31 267.854 1087.75 268.514 1088.06 269.27C1088.39 270.026 1088.55 270.854 1088.55 271.754C1088.55 272.642 1088.39 273.47 1088.06 274.238C1087.75 274.994 1087.31 275.654 1086.75 276.218C1086.19 276.782 1085.51 277.22 1084.73 277.532C1083.97 277.844 1083.13 278 1082.23 278H1078.69ZM1077.57 278V265.508H1079.26V278H1077.57ZM1090.89 278V265.508H1092.59V278H1090.89ZM1092.05 272.51V270.962H1098.56V272.51H1092.05ZM1092.05 267.056V265.508H1098.87V267.056H1092.05Z" fill="white"/>
<rect y="96" width="1006" height="206" fill="#F7A444"/>
<path d="M915.976 278L917.884 265.508H919.27L917.362 278H915.976ZM910.864 274.148V272.834H920.08V274.148H910.864ZM912.124 278L914.032 265.508H915.418L913.51 278H912.124ZM911.422 270.422V269.108H920.638V270.422H911.422ZM922.99 278V265.508H924.682V278H922.99ZM924.142 272.51V270.962H930.658V272.51H924.142ZM924.142 267.056V265.508H930.964V267.056H924.142ZM934.229 278L938.909 266.498L940.583 266.552L936.011 278H934.229ZM932.267 267.02V265.508H940.583V266.552L939.845 267.02H932.267ZM941.724 278L946.836 265.508H948.06L953.154 278H951.318L947.124 267.434H947.754L943.524 278H941.724ZM944.154 275.174V273.698H950.724V275.174H944.154ZM954.293 273.698L958.847 265.508H960.755L956.111 273.698H954.293ZM954.293 274.742V273.698L955.013 273.23H963.869V274.742H954.293ZM960.395 278V269.738H962.069V278H960.395ZM964.699 273.698L969.253 265.508H971.161L966.517 273.698H964.699ZM964.699 274.742V273.698L965.419 273.23H974.275V274.742H964.699ZM970.801 278V269.738H972.475V278H970.801ZM975.106 273.698L979.66 265.508H981.568L976.924 273.698H975.106ZM975.106 274.742V273.698L975.826 273.23H984.682V274.742H975.106ZM981.208 278V269.738H982.882V278H981.208Z" fill="white"/>
<rect y="96" width="892" height="206" fill="#F04042"/>
<path d="M800.976 278L802.884 265.508H804.27L802.362 278H800.976ZM795.864 274.148V272.834H805.08V274.148H795.864ZM797.124 278L799.032 265.508H800.418L798.51 278H797.124ZM796.422 270.422V269.108H805.638V270.422H796.422ZM807.99 278V265.508H809.682V278H807.99ZM809.142 272.51V270.962H815.658V272.51H809.142ZM809.142 267.056V265.508H815.964V267.056H809.142ZM822.649 278.18C821.713 278.18 820.855 277.916 820.075 277.388C819.307 276.86 818.695 276.116 818.239 275.156C817.783 274.184 817.555 273.044 817.555 271.736C817.555 270.428 817.777 269.294 818.221 268.334C818.677 267.374 819.289 266.636 820.057 266.12C820.825 265.592 821.671 265.328 822.595 265.328C823.543 265.328 824.401 265.592 825.169 266.12C825.937 266.636 826.543 267.374 826.987 268.334C827.443 269.294 827.671 270.434 827.671 271.754C827.671 273.062 827.443 274.202 826.987 275.174C826.543 276.134 825.937 276.878 825.169 277.406C824.413 277.922 823.573 278.18 822.649 278.18ZM822.613 276.578C823.273 276.578 823.849 276.398 824.341 276.038C824.845 275.666 825.241 275.12 825.529 274.4C825.817 273.68 825.961 272.792 825.961 271.736C825.961 270.68 825.817 269.798 825.529 269.09C825.241 268.37 824.845 267.83 824.341 267.47C823.837 267.098 823.255 266.912 822.595 266.912C821.947 266.912 821.371 267.098 820.867 267.47C820.363 267.83 819.967 268.37 819.679 269.09C819.403 269.798 819.265 270.68 819.265 271.736C819.265 272.792 819.403 273.68 819.679 274.4C819.967 275.12 820.363 275.666 820.867 276.038C821.371 276.398 821.953 276.578 822.613 276.578ZM829.115 273.698L833.669 265.508H835.577L830.933 273.698H829.115ZM829.115 274.742V273.698L829.835 273.23H838.691V274.742H829.115ZM835.217 278V269.738H836.891V278H835.217ZM845.219 278.18C844.283 278.18 843.425 277.916 842.645 277.388C841.877 276.86 841.265 276.116 840.809 275.156C840.353 274.184 840.125 273.044 840.125 271.736C840.125 270.428 840.347 269.294 840.791 268.334C841.247 267.374 841.859 266.636 842.627 266.12C843.395 265.592 844.241 265.328 845.165 265.328C846.113 265.328 846.971 265.592 847.739 266.12C848.507 266.636 849.113 267.374 849.557 268.334C850.013 269.294 850.241 270.434 850.241 271.754C850.241 273.062 850.013 274.202 849.557 275.174C849.113 276.134 848.507 276.878 847.739 277.406C846.983 277.922 846.143 278.18 845.219 278.18ZM845.183 276.578C845.843 276.578 846.419 276.398 846.911 276.038C847.415 275.666 847.811 275.12 848.099 274.4C848.387 273.68 848.531 272.792 848.531 271.736C848.531 270.68 848.387 269.798 848.099 269.09C847.811 268.37 847.415 267.83 846.911 267.47C846.407 267.098 845.825 266.912 845.165 266.912C844.517 266.912 843.941 267.098 843.437 267.47C842.933 267.83 842.537 268.37 842.249 269.09C841.973 269.798 841.835 270.68 841.835 271.736C841.835 272.792 841.973 273.68 842.249 274.4C842.537 275.12 842.933 275.666 843.437 276.038C843.941 276.398 844.523 276.578 845.183 276.578ZM851.686 273.698L856.24 265.508H858.148L853.504 273.698H851.686ZM851.686 274.742V273.698L852.406 273.23H861.262V274.742H851.686ZM857.788 278V269.738H859.462V278H857.788ZM862.215 276.974L866.823 272.114C867.291 271.634 867.657 271.22 867.921 270.872C868.185 270.512 868.371 270.182 868.479 269.882C868.599 269.582 868.659 269.27 868.659 268.946C868.659 268.31 868.455 267.812 868.047 267.452C867.639 267.092 867.111 266.912 866.463 266.912C865.827 266.912 865.269 267.068 864.789 267.38C864.309 267.68 863.883 268.148 863.511 268.784L862.323 267.794C862.815 266.978 863.409 266.366 864.105 265.958C864.801 265.538 865.605 265.328 866.517 265.328C867.285 265.328 867.951 265.478 868.515 265.778C869.091 266.078 869.535 266.498 869.847 267.038C870.159 267.578 870.315 268.208 870.315 268.928C870.315 269.444 870.249 269.906 870.117 270.314C869.997 270.722 869.775 271.142 869.451 271.574C869.139 271.994 868.701 272.498 868.137 273.086L864.411 276.92L862.215 276.974ZM862.215 278V276.974L863.655 276.488H870.603V278H862.215Z" fill="white"/>
<rect y="96" width="778" height="206" fill="#6EE8F5"/>
<path d="M690.976 278L692.884 265.508H694.27L692.362 278H690.976ZM685.864 274.148V272.834H695.08V274.148H685.864ZM687.124 278L689.032 265.508H690.418L688.51 278H687.124ZM686.422 270.422V269.108H695.638V270.422H686.422ZM701.59 278.18C700.762 278.18 700.018 277.988 699.358 277.604C698.71 277.22 698.194 276.704 697.81 276.056C697.426 275.408 697.234 274.688 697.234 273.896C697.234 272.792 697.618 271.694 698.386 270.602L702.058 265.508H704.02L700.258 270.638L699.646 270.962C699.79 270.71 699.964 270.5 700.168 270.332C700.372 270.152 700.624 270.014 700.924 269.918C701.224 269.822 701.578 269.774 701.986 269.774C702.718 269.774 703.378 269.948 703.966 270.296C704.566 270.644 705.046 271.124 705.406 271.736C705.778 272.336 705.964 273.038 705.964 273.842C705.964 274.634 705.766 275.36 705.37 276.02C704.986 276.68 704.458 277.208 703.786 277.604C703.126 277.988 702.394 278.18 701.59 278.18ZM701.59 276.596C702.094 276.596 702.544 276.476 702.94 276.236C703.348 275.984 703.666 275.654 703.894 275.246C704.134 274.826 704.254 274.358 704.254 273.842C704.254 273.326 704.134 272.864 703.894 272.456C703.666 272.036 703.348 271.706 702.94 271.466C702.544 271.226 702.094 271.106 701.59 271.106C701.086 271.106 700.63 271.226 700.222 271.466C699.826 271.706 699.508 272.036 699.268 272.456C699.04 272.864 698.926 273.326 698.926 273.842C698.926 274.358 699.04 274.826 699.268 275.246C699.508 275.666 699.826 275.996 700.222 276.236C700.63 276.476 701.086 276.596 701.59 276.596ZM708.15 278V265.508H709.842V278H708.15ZM709.302 278V276.452H716.466V278H709.302ZM709.302 272.348V270.872H715.872V272.348H709.302ZM709.302 267.056V265.508H716.376V267.056H709.302ZM718.767 278V265.508H720.459V278H718.767ZM719.919 278V276.452H727.083V278H719.919ZM719.919 272.348V270.872H726.489V272.348H719.919ZM719.919 267.056V265.508H726.993V267.056H719.919ZM732.858 278.18C732.03 278.18 731.298 278.024 730.662 277.712C730.038 277.4 729.552 276.968 729.204 276.416C728.856 275.864 728.682 275.24 728.682 274.544C728.682 273.98 728.79 273.464 729.006 272.996C729.222 272.528 729.54 272.132 729.96 271.808C730.38 271.472 730.872 271.232 731.436 271.088L731.49 271.574C731.01 271.442 730.602 271.232 730.266 270.944C729.93 270.644 729.672 270.296 729.492 269.9C729.324 269.492 729.24 269.06 729.24 268.604C729.24 267.956 729.396 267.386 729.708 266.894C730.02 266.402 730.446 266.018 730.986 265.742C731.538 265.454 732.162 265.31 732.858 265.31C733.566 265.31 734.19 265.454 734.73 265.742C735.27 266.018 735.696 266.402 736.008 266.894C736.32 267.386 736.476 267.956 736.476 268.604C736.476 269.06 736.386 269.492 736.206 269.9C736.038 270.296 735.786 270.644 735.45 270.944C735.126 271.232 734.724 271.442 734.244 271.574L734.28 271.088C734.856 271.232 735.348 271.472 735.756 271.808C736.176 272.132 736.494 272.528 736.71 272.996C736.938 273.464 737.052 273.98 737.052 274.544C737.052 275.24 736.878 275.864 736.53 276.416C736.182 276.968 735.69 277.4 735.054 277.712C734.43 278.024 733.698 278.18 732.858 278.18ZM732.858 276.65C733.362 276.65 733.8 276.554 734.172 276.362C734.556 276.158 734.856 275.882 735.072 275.534C735.3 275.186 735.414 274.784 735.414 274.328C735.414 273.884 735.3 273.488 735.072 273.14C734.856 272.792 734.556 272.522 734.172 272.33C733.8 272.126 733.362 272.024 732.858 272.024C732.366 272.024 731.928 272.126 731.544 272.33C731.16 272.522 730.854 272.792 730.626 273.14C730.41 273.488 730.302 273.884 730.302 274.328C730.302 274.784 730.41 275.186 730.626 275.534C730.854 275.882 731.16 276.158 731.544 276.362C731.928 276.554 732.366 276.65 732.858 276.65ZM732.858 270.71C733.458 270.71 733.95 270.524 734.334 270.152C734.718 269.78 734.91 269.3 734.91 268.712C734.91 268.136 734.718 267.668 734.334 267.308C733.95 266.936 733.458 266.75 732.858 266.75C732.27 266.75 731.784 266.936 731.4 267.308C731.016 267.668 730.824 268.136 730.824 268.712C730.824 269.3 731.016 269.78 731.4 270.152C731.784 270.524 732.27 270.71 732.858 270.71ZM739.281 278V265.508H740.973V278H739.281ZM740.433 272.51V270.962H746.949V272.51H740.433ZM740.433 267.056V265.508H747.255V267.056H740.433ZM752.464 278.18C751.612 278.18 750.85 278.03 750.178 277.73C749.518 277.418 748.96 276.968 748.504 276.38L749.656 275.228C749.932 275.648 750.31 275.984 750.79 276.236C751.282 276.476 751.828 276.596 752.428 276.596C752.992 276.596 753.484 276.488 753.904 276.272C754.336 276.056 754.672 275.756 754.912 275.372C755.164 274.976 755.29 274.508 755.29 273.968C755.29 273.416 755.17 272.948 754.93 272.564C754.69 272.18 754.366 271.892 753.958 271.7C753.562 271.496 753.124 271.394 752.644 271.394C752.152 271.394 751.702 271.454 751.294 271.574C750.898 271.694 750.52 271.898 750.16 272.186L750.178 271.106C750.382 270.854 750.616 270.65 750.88 270.494C751.144 270.338 751.444 270.218 751.78 270.134C752.116 270.05 752.506 270.008 752.95 270.008C753.814 270.008 754.546 270.188 755.146 270.548C755.746 270.908 756.202 271.394 756.514 272.006C756.838 272.618 757 273.302 757 274.058C757 274.85 756.802 275.558 756.406 276.182C756.022 276.806 755.488 277.298 754.804 277.658C754.12 278.006 753.34 278.18 752.464 278.18ZM750.16 272.186L749.242 271.268L749.8 265.508H751.348L750.718 271.43L750.16 272.186ZM750.142 267.02L749.8 265.508H756.37V267.02H750.142Z" fill="black"/>
<rect y="96" width="665" height="206" fill="#222222"/>
<path d="M580.976 278L582.884 265.508H584.27L582.362 278H580.976ZM575.864 274.148V272.834H585.08V274.148H575.864ZM577.124 278L579.032 265.508H580.418L578.51 278H577.124ZM576.422 270.422V269.108H585.638V270.422H576.422ZM587.108 276.974L591.716 272.114C592.184 271.634 592.55 271.22 592.814 270.872C593.078 270.512 593.264 270.182 593.372 269.882C593.492 269.582 593.552 269.27 593.552 268.946C593.552 268.31 593.348 267.812 592.94 267.452C592.532 267.092 592.004 266.912 591.356 266.912C590.72 266.912 590.162 267.068 589.682 267.38C589.202 267.68 588.776 268.148 588.404 268.784L587.216 267.794C587.708 266.978 588.302 266.366 588.998 265.958C589.694 265.538 590.498 265.328 591.41 265.328C592.178 265.328 592.844 265.478 593.408 265.778C593.984 266.078 594.428 266.498 594.74 267.038C595.052 267.578 595.208 268.208 595.208 268.928C595.208 269.444 595.142 269.906 595.01 270.314C594.89 270.722 594.668 271.142 594.344 271.574C594.032 271.994 593.594 272.498 593.03 273.086L589.304 276.92L587.108 276.974ZM587.108 278V276.974L588.548 276.488H595.496V278H587.108ZM596.846 276.974L601.454 272.114C601.922 271.634 602.288 271.22 602.552 270.872C602.816 270.512 603.002 270.182 603.11 269.882C603.23 269.582 603.29 269.27 603.29 268.946C603.29 268.31 603.086 267.812 602.678 267.452C602.27 267.092 601.742 266.912 601.094 266.912C600.458 266.912 599.9 267.068 599.42 267.38C598.94 267.68 598.514 268.148 598.142 268.784L596.954 267.794C597.446 266.978 598.04 266.366 598.736 265.958C599.432 265.538 600.236 265.328 601.148 265.328C601.916 265.328 602.582 265.478 603.146 265.778C603.722 266.078 604.166 266.498 604.478 267.038C604.79 267.578 604.946 268.208 604.946 268.928C604.946 269.444 604.88 269.906 604.748 270.314C604.628 270.722 604.406 271.142 604.082 271.574C603.77 271.994 603.332 272.498 602.768 273.086L599.042 276.92L596.846 276.974ZM596.846 278V276.974L598.286 276.488H605.234V278H596.846ZM606.584 276.974L611.192 272.114C611.66 271.634 612.026 271.22 612.29 270.872C612.554 270.512 612.74 270.182 612.848 269.882C612.968 269.582 613.028 269.27 613.028 268.946C613.028 268.31 612.824 267.812 612.416 267.452C612.008 267.092 611.48 266.912 610.832 266.912C610.196 266.912 609.638 267.068 609.158 267.38C608.678 267.68 608.252 268.148 607.88 268.784L606.692 267.794C607.184 266.978 607.778 266.366 608.474 265.958C609.17 265.538 609.974 265.328 610.886 265.328C611.654 265.328 612.32 265.478 612.884 265.778C613.46 266.078 613.904 266.498 614.216 267.038C614.528 267.578 614.684 268.208 614.684 268.928C614.684 269.444 614.618 269.906 614.486 270.314C614.366 270.722 614.144 271.142 613.82 271.574C613.508 271.994 613.07 272.498 612.506 273.086L608.78 276.92L606.584 276.974ZM606.584 278V276.974L608.024 276.488H614.972V278H606.584ZM616.323 276.974L620.931 272.114C621.399 271.634 621.765 271.22 622.029 270.872C622.293 270.512 622.479 270.182 622.587 269.882C622.707 269.582 622.767 269.27 622.767 268.946C622.767 268.31 622.563 267.812 622.155 267.452C621.747 267.092 621.219 266.912 620.571 266.912C619.935 266.912 619.377 267.068 618.897 267.38C618.417 267.68 617.991 268.148 617.619 268.784L616.431 267.794C616.923 266.978 617.517 266.366 618.213 265.958C618.909 265.538 619.713 265.328 620.625 265.328C621.393 265.328 622.059 265.478 622.623 265.778C623.199 266.078 623.643 266.498 623.955 267.038C624.267 267.578 624.423 268.208 624.423 268.928C624.423 269.444 624.357 269.906 624.225 270.314C624.105 270.722 623.883 271.142 623.559 271.574C623.247 271.994 622.809 272.498 622.245 273.086L618.519 276.92L616.323 276.974ZM616.323 278V276.974L617.763 276.488H624.711V278H616.323ZM626.061 276.974L630.669 272.114C631.137 271.634 631.503 271.22 631.767 270.872C632.031 270.512 632.217 270.182 632.325 269.882C632.445 269.582 632.505 269.27 632.505 268.946C632.505 268.31 632.301 267.812 631.893 267.452C631.485 267.092 630.957 266.912 630.309 266.912C629.673 266.912 629.115 267.068 628.635 267.38C628.155 267.68 627.729 268.148 627.357 268.784L626.169 267.794C626.661 266.978 627.255 266.366 627.951 265.958C628.647 265.538 629.451 265.328 630.363 265.328C631.131 265.328 631.797 265.478 632.361 265.778C632.937 266.078 633.381 266.498 633.693 267.038C634.005 267.578 634.161 268.208 634.161 268.928C634.161 269.444 634.095 269.906 633.963 270.314C633.843 270.722 633.621 271.142 633.297 271.574C632.985 271.994 632.547 272.498 631.983 273.086L628.257 276.92L626.061 276.974ZM626.061 278V276.974L627.501 276.488H634.449V278H626.061ZM635.799 276.974L640.407 272.114C640.875 271.634 641.241 271.22 641.505 270.872C641.769 270.512 641.955 270.182 642.063 269.882C642.183 269.582 642.243 269.27 642.243 268.946C642.243 268.31 642.039 267.812 641.631 267.452C641.223 267.092 640.695 266.912 640.047 266.912C639.411 266.912 638.853 267.068 638.373 267.38C637.893 267.68 637.467 268.148 637.095 268.784L635.907 267.794C636.399 266.978 636.993 266.366 637.689 265.958C638.385 265.538 639.189 265.328 640.101 265.328C640.869 265.328 641.535 265.478 642.099 265.778C642.675 266.078 643.119 266.498 643.431 267.038C643.743 267.578 643.899 268.208 643.899 268.928C643.899 269.444 643.833 269.906 643.701 270.314C643.581 270.722 643.359 271.142 643.035 271.574C642.723 271.994 642.285 272.498 641.721 273.086L637.995 276.92L635.799 276.974ZM635.799 278V276.974L637.239 276.488H644.187V278H635.799Z" fill="white"/>
<rect y="96" width="550" height="206" fill="white"/>
<path d="M462.976 278L464.884 265.508H466.27L464.362 278H462.976ZM457.864 274.148V272.834H467.08V274.148H457.864ZM459.124 278L461.032 265.508H462.418L460.51 278H459.124ZM458.422 270.422V269.108H467.638V270.422H458.422ZM469.99 278V265.508H471.682V278H469.99ZM471.142 272.51V270.962H477.658V272.51H471.142ZM471.142 267.056V265.508H477.964V267.056H471.142ZM480.185 278V265.508H481.877V278H480.185ZM481.337 272.51V270.962H487.853V272.51H481.337ZM481.337 267.056V265.508H488.159V267.056H481.337ZM490.38 278V265.508H492.072V278H490.38ZM491.532 272.51V270.962H498.048V272.51H491.532ZM491.532 267.056V265.508H498.354V267.056H491.532ZM500.576 278V265.508H502.268V278H500.576ZM501.728 272.51V270.962H508.244V272.51H501.728ZM501.728 267.056V265.508H508.55V267.056H501.728ZM510.771 278V265.508H512.463V278H510.771ZM511.923 272.51V270.962H518.439V272.51H511.923ZM511.923 267.056V265.508H518.745V267.056H511.923ZM520.966 278V265.508H522.658V278H520.966ZM522.118 272.51V270.962H528.634V272.51H522.118ZM522.118 267.056V265.508H528.94V267.056H522.118Z" fill="black"/>
<rect y="96" width="437" height="206" fill="#0ACF83"/>
<path d="M21.976 278L23.884 265.508H25.27L23.362 278H21.976ZM16.864 274.148V272.834H26.08V274.148H16.864ZM18.124 278L20.032 265.508H21.418L19.51 278H18.124ZM17.422 270.422V269.108H26.638V270.422H17.422ZM33.4537 278.18C32.5177 278.18 31.6597 277.916 30.8797 277.388C30.1117 276.86 29.4997 276.116 29.0437 275.156C28.5877 274.184 28.3597 273.044 28.3597 271.736C28.3597 270.428 28.5817 269.294 29.0257 268.334C29.4817 267.374 30.0937 266.636 30.8617 266.12C31.6297 265.592 32.4757 265.328 33.3997 265.328C34.3477 265.328 35.2057 265.592 35.9737 266.12C36.7417 266.636 37.3477 267.374 37.7917 268.334C38.2477 269.294 38.4757 270.434 38.4757 271.754C38.4757 273.062 38.2477 274.202 37.7917 275.174C37.3477 276.134 36.7417 276.878 35.9737 277.406C35.2177 277.922 34.3777 278.18 33.4537 278.18ZM33.4177 276.578C34.0777 276.578 34.6537 276.398 35.1457 276.038C35.6497 275.666 36.0457 275.12 36.3337 274.4C36.6217 273.68 36.7657 272.792 36.7657 271.736C36.7657 270.68 36.6217 269.798 36.3337 269.09C36.0457 268.37 35.6497 267.83 35.1457 267.47C34.6417 267.098 34.0597 266.912 33.3997 266.912C32.7517 266.912 32.1757 267.098 31.6717 267.47C31.1677 267.83 30.7717 268.37 30.4837 269.09C30.2077 269.798 30.0697 270.68 30.0697 271.736C30.0697 272.792 30.2077 273.68 30.4837 274.4C30.7717 275.12 31.1677 275.666 31.6717 276.038C32.1757 276.398 32.7577 276.578 33.4177 276.578ZM39.8842 278L44.9962 265.508H46.2202L51.3142 278H49.4782L45.2842 267.434H45.9142L41.6842 278H39.8842ZM42.3142 275.174V273.698H48.8842V275.174H42.3142ZM58.0737 278.18C57.1737 278.18 56.3397 278.018 55.5717 277.694C54.8037 277.358 54.1317 276.896 53.5557 276.308C52.9917 275.72 52.5537 275.036 52.2417 274.256C51.9297 273.476 51.7737 272.642 51.7737 271.754C51.7737 270.854 51.9297 270.014 52.2417 269.234C52.5537 268.454 52.9917 267.776 53.5557 267.2C54.1317 266.612 54.7977 266.156 55.5537 265.832C56.3217 265.496 57.1557 265.328 58.0557 265.328C59.0397 265.328 59.9037 265.496 60.6477 265.832C61.3917 266.168 62.0517 266.624 62.6277 267.2L61.4577 268.37C61.0617 267.926 60.5757 267.578 59.9997 267.326C59.4357 267.074 58.7877 266.948 58.0557 266.948C57.3957 266.948 56.7897 267.068 56.2377 267.308C55.6857 267.536 55.2057 267.866 54.7977 268.298C54.3897 268.73 54.0717 269.24 53.8437 269.828C53.6277 270.416 53.5197 271.058 53.5197 271.754C53.5197 272.45 53.6277 273.092 53.8437 273.68C54.0717 274.268 54.3897 274.778 54.7977 275.21C55.2057 275.642 55.6857 275.978 56.2377 276.218C56.7897 276.446 57.3957 276.56 58.0557 276.56C58.8357 276.56 59.5137 276.434 60.0897 276.182C60.6657 275.918 61.1517 275.564 61.5477 275.12L62.7177 276.272C62.1417 276.872 61.4637 277.34 60.6837 277.676C59.9157 278.012 59.0457 278.18 58.0737 278.18ZM64.7963 278V265.508H66.4883V278H64.7963ZM65.9483 272.51V270.962H72.4643V272.51H65.9483ZM65.9483 267.056V265.508H72.7703V267.056H65.9483ZM78.4656 278.18C77.6376 278.18 76.9056 278.024 76.2696 277.712C75.6456 277.4 75.1596 276.968 74.8116 276.416C74.4636 275.864 74.2896 275.24 74.2896 274.544C74.2896 273.98 74.3976 273.464 74.6136 272.996C74.8296 272.528 75.1476 272.132 75.5676 271.808C75.9876 271.472 76.4796 271.232 77.0436 271.088L77.0976 271.574C76.6176 271.442 76.2096 271.232 75.8736 270.944C75.5376 270.644 75.2796 270.296 75.0996 269.9C74.9316 269.492 74.8476 269.06 74.8476 268.604C74.8476 267.956 75.0036 267.386 75.3156 266.894C75.6276 266.402 76.0536 266.018 76.5936 265.742C77.1456 265.454 77.7696 265.31 78.4656 265.31C79.1736 265.31 79.7976 265.454 80.3376 265.742C80.8776 266.018 81.3036 266.402 81.6156 266.894C81.9276 267.386 82.0836 267.956 82.0836 268.604C82.0836 269.06 81.9936 269.492 81.8136 269.9C81.6456 270.296 81.3936 270.644 81.0576 270.944C80.7336 271.232 80.3316 271.442 79.8516 271.574L79.8876 271.088C80.4636 271.232 80.9556 271.472 81.3636 271.808C81.7836 272.132 82.1016 272.528 82.3176 272.996C82.5456 273.464 82.6596 273.98 82.6596 274.544C82.6596 275.24 82.4856 275.864 82.1376 276.416C81.7896 276.968 81.2976 277.4 80.6616 277.712C80.0376 278.024 79.3056 278.18 78.4656 278.18ZM78.4656 276.65C78.9696 276.65 79.4076 276.554 79.7796 276.362C80.1636 276.158 80.4636 275.882 80.6796 275.534C80.9076 275.186 81.0216 274.784 81.0216 274.328C81.0216 273.884 80.9076 273.488 80.6796 273.14C80.4636 272.792 80.1636 272.522 79.7796 272.33C79.4076 272.126 78.9696 272.024 78.4656 272.024C77.9736 272.024 77.5356 272.126 77.1516 272.33C76.7676 272.522 76.4616 272.792 76.2336 273.14C76.0176 273.488 75.9096 273.884 75.9096 274.328C75.9096 274.784 76.0176 275.186 76.2336 275.534C76.4616 275.882 76.7676 276.158 77.1516 276.362C77.5356 276.554 77.9736 276.65 78.4656 276.65ZM78.4656 270.71C79.0656 270.71 79.5576 270.524 79.9416 270.152C80.3256 269.78 80.5176 269.3 80.5176 268.712C80.5176 268.136 80.3256 267.668 79.9416 267.308C79.5576 266.936 79.0656 266.75 78.4656 266.75C77.8776 266.75 77.3916 266.936 77.0076 267.308C76.6236 267.668 76.4316 268.136 76.4316 268.712C76.4316 269.3 76.6236 269.78 77.0076 270.152C77.3916 270.524 77.8776 270.71 78.4656 270.71ZM87.5241 278.18C86.7081 278.18 85.9641 278.03 85.2921 277.73C84.6321 277.418 84.0741 276.968 83.6181 276.38L84.7701 275.228C85.0461 275.648 85.4241 275.984 85.9041 276.236C86.3841 276.476 86.9181 276.596 87.5061 276.596C88.0581 276.596 88.5321 276.494 88.9281 276.29C89.3361 276.074 89.6541 275.774 89.8821 275.39C90.1221 275.006 90.2421 274.562 90.2421 274.058C90.2421 273.542 90.1221 273.098 89.8821 272.726C89.6541 272.342 89.3301 272.048 88.9101 271.844C88.4901 271.64 87.9921 271.538 87.4161 271.538C87.2001 271.538 86.9841 271.556 86.7681 271.592C86.5521 271.616 86.3421 271.658 86.1381 271.718L86.8581 270.746C87.0861 270.638 87.3321 270.554 87.5961 270.494C87.8601 270.434 88.1241 270.404 88.3881 270.404C89.0601 270.404 89.6601 270.56 90.1881 270.872C90.7281 271.184 91.1541 271.622 91.4661 272.186C91.7901 272.75 91.9521 273.404 91.9521 274.148C91.9521 274.94 91.7601 275.642 91.3761 276.254C91.0041 276.854 90.4881 277.328 89.8281 277.676C89.1681 278.012 88.4001 278.18 87.5241 278.18ZM86.1381 271.718V270.692L89.7921 266.534L91.8081 266.516L88.0461 270.782L86.1381 271.718ZM84.2121 267.02V265.508H91.8081V266.516L90.3321 267.02H84.2121Z" fill="white"/>
<path d="M47.1194 329.662C43.6586 329.587 40.3232 329.391 37.1349 329.139C30.802 328.613 25.0959 327.822 20.4362 326.877C15.8091 325.922 12.114 324.854 9.31821 323.812C6.52237 322.765 4.74564 321.737 3.43219 320.869C2.29858 320.001 1.41025 319.286 1.12686 318.772C0.718109 318.269 0.500092 318 0.500092 318C0.500092 318 0.391113 318.273 0.189484 318.784C-0.0448914 319.287 -0.110321 320.056 0.276611 321.044C0.783478 322.012 1.54105 323.226 3.78644 324.517C5.92831 325.811 9.12201 327.233 13.9453 328.543C18.6976 329.859 24.9706 331.094 32.6387 331.938C36.4646 332.361 40.5739 332.721 44.9175 332.941C47.0921 333.058 49.3048 333.167 51.5774 333.188L54.9946 333.253L58.0629 333.278C66.2706 333.331 74.7509 333.445 83.3673 333.453C91.9892 333.476 100.747 333.5 109.5 333.523C118.253 333.503 127.011 333.484 135.627 333.464C144.25 333.445 152.729 333.339 160.937 333.283C169.003 333.21 175.358 333.336 181.855 333.866C188.186 334.39 193.881 335.184 198.552 336.126C203.174 337.08 206.863 338.148 209.665 339.19C212.467 340.236 214.244 341.263 215.562 342.13C216.701 343.008 217.589 343.727 217.874 344.228C218.283 344.731 218.5 345 218.5 345C218.5 345 218.717 344.731 219.126 344.228C219.409 343.727 220.299 343.008 221.438 342.13C222.756 341.263 224.533 340.236 227.335 339.19C230.137 338.148 233.819 337.08 238.448 336.126C243.116 335.184 248.807 334.39 255.145 333.866C261.642 333.336 267.997 333.21 276.063 333.283C284.264 333.339 292.75 333.445 301.368 333.464C309.99 333.484 318.748 333.503 327.5 333.523C336.252 333.5 345.01 333.476 353.628 333.453C362.25 333.445 370.729 333.331 378.936 333.278L382 333.253L385.423 333.188C387.694 333.167 389.907 333.058 392.082 332.941C396.425 332.721 400.536 332.361 404.362 331.938C412.03 331.094 418.302 329.859 423.049 328.543C427.878 327.233 431.071 325.811 433.213 324.517C435.459 323.226 436.216 322.012 436.723 321.044C437.111 320.056 437.045 319.287 436.81 318.784C436.608 318.273 436.5 318 436.5 318C436.5 318 436.283 318.269 435.874 318.772C435.588 319.286 434.701 320.001 433.568 320.869C432.255 321.737 430.477 322.765 427.682 323.812C424.88 324.854 421.191 325.922 416.565 326.876C411.898 327.822 406.197 328.613 399.859 329.139C396.677 329.391 393.341 329.587 389.881 329.662C388.152 329.705 386.419 329.745 384.648 329.735L382 329.746L378.936 329.721C370.729 329.668 362.25 329.555 353.628 329.547C345.01 329.523 336.252 329.5 327.5 329.476C318.748 329.496 309.99 329.516 301.368 329.536C292.75 329.555 284.264 329.661 276.063 329.717L272.64 329.744L269.611 329.807C268.57 329.834 267.686 329.835 266.526 329.882L263.037 330.048C258.438 330.277 254.508 330.631 250.634 331.056C242.959 331.9 236.677 333.133 231.933 334.453C227.105 335.764 223.905 337.185 221.77 338.48C219.824 339.602 219.013 340.655 218.5 341.55C217.983 340.655 217.176 339.602 215.223 338.48C213.092 337.185 209.895 335.764 205.067 334.453C200.323 333.133 194.041 331.901 186.366 331.056C182.492 330.631 178.562 330.277 173.957 330.048L170.474 329.882C169.314 329.835 168.43 329.834 167.389 329.807L164.36 329.744L160.937 329.717C152.729 329.661 144.25 329.555 135.627 329.536C127.011 329.516 118.253 329.496 109.5 329.476C100.747 329.5 91.9892 329.523 83.3673 329.547C74.7509 329.555 66.2706 329.668 58.0629 329.721L55 329.746L52.3513 329.735C50.5746 329.745 48.847 329.705 47.1194 329.662Z" fill="#EEEEEE"/>
<path d="M461.584 329.662C459.778 329.587 458.038 329.391 456.375 329.139C453.071 328.613 450.094 327.822 447.662 326.877C445.248 325.922 443.32 324.854 441.862 323.812C440.403 322.765 439.476 321.737 438.791 320.869C438.199 320.001 437.736 319.286 437.588 318.772C437.375 318.269 437.261 318 437.261 318C437.261 318 437.204 318.273 437.099 318.784C436.977 319.287 436.942 320.056 437.144 321.044C437.409 322.012 437.804 323.226 438.976 324.517C440.093 325.811 441.759 327.233 444.276 328.543C446.755 329.859 450.028 331.094 454.029 331.938C456.025 332.361 458.169 332.721 460.435 332.941C461.57 333.058 462.724 333.167 463.91 333.188L465.693 333.253L467.294 333.278C471.576 333.331 476 333.445 480.496 333.453C484.994 333.476 489.564 333.5 494.13 333.523C498.697 333.503 503.267 333.484 507.762 333.464C512.261 333.445 516.685 333.339 520.967 333.283C525.176 333.21 528.491 333.336 531.881 333.866C535.184 334.39 538.155 335.184 540.592 336.126C543.004 337.08 544.929 338.148 546.39 339.19C547.852 340.236 548.779 341.263 549.467 342.13C550.061 343.008 550.525 343.727 550.674 344.228C550.887 344.731 551 345 551 345C551 345 551.113 344.731 551.326 344.228C551.474 343.727 551.939 343.008 552.533 342.13C553.22 341.263 554.148 340.236 555.61 339.19C557.071 338.148 558.993 337.08 561.408 336.126C563.843 335.184 566.812 334.39 570.119 333.866C573.509 333.336 576.824 333.21 581.033 333.283C585.312 333.339 589.739 333.445 594.235 333.464C598.734 333.484 603.303 333.503 607.869 333.523C612.436 333.5 617.005 333.476 621.501 333.453C626 333.445 630.424 333.331 634.706 333.278L636.304 333.253L638.09 333.188C639.275 333.167 640.43 333.058 641.565 332.941C643.831 332.721 645.975 332.361 647.971 331.938C651.972 331.094 655.244 329.859 657.721 328.543C660.241 327.233 661.907 325.811 663.024 324.517C664.196 323.226 664.591 322.012 664.856 321.044C665.058 320.056 665.023 319.287 664.901 318.784C664.796 318.273 664.739 318 664.739 318C664.739 318 664.626 318.269 664.413 318.772C664.264 319.286 663.8 320.001 663.209 320.869C662.524 321.737 661.597 322.765 660.138 323.812C658.677 324.854 656.752 325.922 654.338 326.876C651.903 327.822 648.929 328.613 645.622 329.139C643.962 329.391 642.221 329.587 640.416 329.662C639.514 329.705 638.61 329.745 637.686 329.735L636.304 329.746L634.706 329.721C630.424 329.668 626 329.555 621.501 329.547C617.005 329.523 612.436 329.5 607.869 329.476C603.303 329.496 598.734 329.516 594.235 329.536C589.739 329.555 585.312 329.661 581.033 329.717L579.247 329.744L577.666 329.807C577.123 329.834 576.662 329.835 576.057 329.882L574.237 330.048C571.837 330.277 569.787 330.631 567.765 331.056C563.761 331.9 560.484 333.133 558.009 334.453C555.49 335.764 553.82 337.185 552.706 338.48C551.691 339.602 551.268 340.655 551 341.55C550.73 340.655 550.309 339.602 549.29 338.48C548.179 337.185 546.51 335.764 543.991 334.453C541.516 333.133 538.239 331.901 534.235 331.056C532.213 330.631 530.163 330.277 527.76 330.048L525.943 329.882C525.338 329.835 524.877 329.834 524.334 329.807L522.753 329.744L520.967 329.717C516.685 329.661 512.261 329.555 507.762 329.536C503.267 329.516 498.697 329.496 494.13 329.476C489.564 329.5 484.994 329.523 480.496 329.547C476 329.555 471.576 329.668 467.294 329.721L465.696 329.746L464.314 329.735C463.387 329.745 462.485 329.705 461.584 329.662Z" fill="#EEEEEE"/>
<path d="M714.06 329.662C710.457 329.587 706.984 329.391 703.665 329.139C697.071 328.613 691.13 327.822 686.278 326.877C681.46 325.922 677.613 324.854 674.702 323.812C671.791 322.765 669.941 321.737 668.574 320.869C667.393 320.001 666.468 319.286 666.173 318.772C665.748 318.269 665.521 318 665.521 318C665.521 318 665.407 318.273 665.197 318.784C664.953 319.287 664.885 320.056 665.288 321.044C665.816 322.012 666.605 323.226 668.942 324.517C671.172 325.811 674.498 327.233 679.52 328.543C684.468 329.859 690.999 331.094 698.983 331.938C702.967 332.361 707.245 332.721 711.768 332.941C714.032 333.058 716.336 333.167 718.702 333.188L722.26 333.253L725.455 333.278C734 333.331 742.83 333.445 751.801 333.453C760.778 333.476 769.897 333.5 779.01 333.523C788.124 333.503 797.242 333.484 806.214 333.464C815.192 333.445 824.02 333.339 832.565 333.283C840.964 333.21 847.581 333.336 854.346 333.866C860.938 334.39 866.867 335.184 871.73 336.126C876.543 337.08 880.384 338.148 883.301 339.19C886.218 340.236 888.069 341.263 889.441 342.13C890.627 343.008 891.551 343.727 891.848 344.228C892.274 344.731 892.5 345 892.5 345C892.5 345 892.726 344.731 893.151 344.228C893.446 343.727 894.373 343.008 895.559 342.13C896.931 341.263 898.782 340.236 901.699 339.19C904.616 338.148 908.45 337.08 913.27 336.126C918.13 335.184 924.055 334.39 930.654 333.866C937.419 333.336 944.036 333.21 952.434 333.283C960.973 333.339 969.808 333.445 978.781 333.464C987.758 333.484 996.877 333.503 1005.99 333.523C1015.1 333.5 1024.22 333.476 1033.19 333.453C1042.17 333.445 1051 333.331 1059.54 333.278L1062.73 333.253L1066.3 333.188C1068.66 333.167 1070.97 333.058 1073.23 332.941C1077.75 332.721 1082.03 332.361 1086.02 331.938C1094 331.094 1100.53 329.859 1105.47 328.543C1110.5 327.233 1113.83 325.811 1116.06 324.517C1118.4 323.226 1119.18 322.012 1119.71 321.044C1120.12 320.056 1120.05 319.287 1119.8 318.784C1119.59 318.273 1119.48 318 1119.48 318C1119.48 318 1119.25 318.269 1118.83 318.772C1118.53 319.286 1117.61 320.001 1116.43 320.869C1115.06 321.737 1113.21 322.765 1110.3 323.812C1107.38 324.854 1103.54 325.922 1098.72 326.876C1093.86 327.822 1087.93 328.613 1081.33 329.139C1078.02 329.391 1074.54 329.587 1070.94 329.662C1069.14 329.705 1067.34 329.745 1065.49 329.735L1062.73 329.746L1059.54 329.721C1051 329.668 1042.17 329.555 1033.19 329.547C1024.22 329.523 1015.1 329.5 1005.99 329.476C996.877 329.496 987.758 329.516 978.781 329.536C969.808 329.555 960.973 329.661 952.434 329.717L948.87 329.744L945.716 329.807C944.632 329.834 943.712 329.835 942.504 329.882L938.871 330.048C934.083 330.277 929.991 330.631 925.957 331.056C917.966 331.9 911.425 333.133 906.486 334.453C901.459 335.764 898.128 337.185 895.905 338.48C893.879 339.602 893.034 340.655 892.5 341.55C891.961 340.655 891.121 339.602 889.088 338.48C886.87 337.185 883.54 335.764 878.513 334.453C873.574 333.133 867.033 331.901 859.043 331.056C855.009 330.631 850.917 330.277 846.122 330.048L842.496 329.882C841.288 329.835 840.368 329.834 839.284 329.807L836.13 329.744L832.565 329.717C824.02 329.661 815.192 329.555 806.214 329.536C797.242 329.516 788.124 329.496 779.01 329.476C769.897 329.5 760.778 329.523 751.801 329.547C742.83 329.555 734 329.668 725.455 329.721L722.266 329.746L719.508 329.735C717.658 329.745 715.859 329.705 714.06 329.662Z" fill="#EEEEEE"/>
<path d="M729.95 383.18C728.966 383.18 728.126 383 727.43 382.64C726.734 382.28 726.116 381.758 725.576 381.074L726.728 379.922C727.124 380.474 727.58 380.894 728.096 381.182C728.612 381.458 729.248 381.596 730.004 381.596C730.748 381.596 731.342 381.434 731.786 381.11C732.242 380.786 732.47 380.342 732.47 379.778C732.47 379.31 732.362 378.932 732.146 378.644C731.93 378.356 731.636 378.122 731.264 377.942C730.904 377.75 730.508 377.582 730.076 377.438C729.644 377.282 729.212 377.12 728.78 376.952C728.348 376.772 727.952 376.556 727.592 376.304C727.232 376.04 726.938 375.698 726.71 375.278C726.494 374.858 726.386 374.33 726.386 373.694C726.386 372.986 726.554 372.386 726.89 371.894C727.238 371.39 727.706 371.006 728.294 370.742C728.894 370.466 729.566 370.328 730.31 370.328C731.126 370.328 731.858 370.49 732.506 370.814C733.154 371.126 733.682 371.54 734.09 372.056L732.938 373.208C732.566 372.776 732.164 372.452 731.732 372.236C731.312 372.02 730.826 371.912 730.274 371.912C729.602 371.912 729.068 372.062 728.672 372.362C728.276 372.65 728.078 373.058 728.078 373.586C728.078 374.006 728.186 374.348 728.402 374.612C728.63 374.864 728.924 375.08 729.284 375.26C729.644 375.44 730.04 375.608 730.472 375.764C730.916 375.908 731.354 376.07 731.786 376.25C732.218 376.43 732.614 376.658 732.974 376.934C733.334 377.21 733.622 377.57 733.838 378.014C734.066 378.446 734.18 378.992 734.18 379.652C734.18 380.756 733.796 381.62 733.028 382.244C732.272 382.868 731.246 383.18 729.95 383.18ZM740.009 383.18C739.157 383.18 738.389 382.988 737.705 382.604C737.021 382.208 736.481 381.674 736.085 381.002C735.689 380.33 735.491 379.568 735.491 378.716C735.491 377.876 735.683 377.12 736.067 376.448C736.463 375.776 736.991 375.248 737.651 374.864C738.323 374.468 739.073 374.27 739.901 374.27C740.693 374.27 741.389 374.45 741.989 374.81C742.601 375.17 743.075 375.668 743.411 376.304C743.759 376.94 743.933 377.66 743.933 378.464C743.933 378.584 743.927 378.716 743.915 378.86C743.903 378.992 743.879 379.148 743.843 379.328H736.625V377.978H742.979L742.385 378.5C742.385 377.924 742.283 377.438 742.079 377.042C741.875 376.634 741.587 376.322 741.215 376.106C740.843 375.878 740.393 375.764 739.865 375.764C739.313 375.764 738.827 375.884 738.407 376.124C737.987 376.364 737.663 376.7 737.435 377.132C737.207 377.564 737.093 378.074 737.093 378.662C737.093 379.262 737.213 379.79 737.453 380.246C737.693 380.69 738.035 381.038 738.479 381.29C738.923 381.53 739.433 381.65 740.009 381.65C740.489 381.65 740.927 381.566 741.323 381.398C741.731 381.23 742.079 380.978 742.367 380.642L743.411 381.704C743.003 382.184 742.499 382.55 741.899 382.802C741.311 383.054 740.681 383.18 740.009 383.18ZM749.606 383.18C748.766 383.18 748.004 382.982 747.32 382.586C746.648 382.19 746.114 381.656 745.718 380.984C745.334 380.3 745.142 379.544 745.142 378.716C745.142 377.876 745.334 377.12 745.718 376.448C746.114 375.776 746.648 375.248 747.32 374.864C748.004 374.468 748.766 374.27 749.606 374.27C750.266 374.27 750.878 374.396 751.442 374.648C752.006 374.888 752.492 375.242 752.9 375.71L751.82 376.79C751.556 376.478 751.232 376.244 750.848 376.088C750.476 375.92 750.062 375.836 749.606 375.836C749.066 375.836 748.586 375.962 748.166 376.214C747.746 376.454 747.416 376.79 747.176 377.222C746.936 377.654 746.816 378.152 746.816 378.716C746.816 379.28 746.936 379.778 747.176 380.21C747.416 380.642 747.746 380.984 748.166 381.236C748.586 381.488 749.066 381.614 749.606 381.614C750.062 381.614 750.476 381.536 750.848 381.38C751.232 381.212 751.562 380.972 751.838 380.66L752.9 381.74C752.504 382.196 752.018 382.55 751.442 382.802C750.878 383.054 750.266 383.18 749.606 383.18ZM758.254 383.18C757.414 383.18 756.658 382.982 755.986 382.586C755.314 382.19 754.78 381.656 754.384 380.984C753.988 380.3 753.79 379.538 753.79 378.698C753.79 377.87 753.988 377.126 754.384 376.466C754.78 375.794 755.314 375.26 755.986 374.864C756.658 374.468 757.414 374.27 758.254 374.27C759.082 374.27 759.832 374.468 760.504 374.864C761.188 375.248 761.728 375.776 762.124 376.448C762.52 377.12 762.718 377.87 762.718 378.698C762.718 379.538 762.52 380.3 762.124 380.984C761.728 381.656 761.188 382.19 760.504 382.586C759.832 382.982 759.082 383.18 758.254 383.18ZM758.254 381.614C758.794 381.614 759.274 381.488 759.694 381.236C760.114 380.984 760.444 380.642 760.684 380.21C760.924 379.766 761.044 379.262 761.044 378.698C761.044 378.146 760.918 377.654 760.666 377.222C760.426 376.79 760.096 376.454 759.676 376.214C759.268 375.962 758.794 375.836 758.254 375.836C757.714 375.836 757.234 375.962 756.814 376.214C756.394 376.454 756.064 376.79 755.824 377.222C755.584 377.654 755.464 378.146 755.464 378.698C755.464 379.262 755.584 379.766 755.824 380.21C756.064 380.642 756.394 380.984 756.814 381.236C757.234 381.488 757.714 381.614 758.254 381.614ZM770.591 383V378.014C770.591 377.366 770.387 376.832 769.979 376.412C769.571 375.992 769.043 375.782 768.395 375.782C767.963 375.782 767.579 375.878 767.243 376.07C766.907 376.262 766.643 376.526 766.451 376.862C766.259 377.198 766.163 377.582 766.163 378.014L765.497 377.636C765.497 376.988 765.641 376.412 765.929 375.908C766.217 375.404 766.619 375.008 767.135 374.72C767.651 374.42 768.233 374.27 768.881 374.27C769.529 374.27 770.099 374.432 770.591 374.756C771.095 375.08 771.491 375.506 771.779 376.034C772.067 376.55 772.211 377.102 772.211 377.69V383H770.591ZM764.543 383V374.45H766.163V383H764.543ZM778.023 383.18C777.231 383.18 776.523 382.988 775.899 382.604C775.275 382.208 774.777 381.674 774.405 381.002C774.045 380.33 773.865 379.574 773.865 378.734C773.865 377.894 774.045 377.138 774.405 376.466C774.777 375.794 775.275 375.26 775.899 374.864C776.523 374.468 777.231 374.27 778.023 374.27C778.659 374.27 779.235 374.408 779.751 374.684C780.267 374.948 780.681 375.32 780.993 375.8C781.317 376.268 781.497 376.814 781.533 377.438V380.012C781.497 380.624 781.323 381.17 781.011 381.65C780.699 382.13 780.285 382.508 779.769 382.784C779.253 383.048 778.671 383.18 778.023 383.18ZM778.293 381.65C778.833 381.65 779.301 381.524 779.697 381.272C780.105 381.02 780.423 380.678 780.651 380.246C780.879 379.802 780.993 379.298 780.993 378.734C780.993 378.146 780.873 377.636 780.633 377.204C780.405 376.772 780.087 376.43 779.679 376.178C779.283 375.926 778.815 375.8 778.275 375.8C777.735 375.8 777.261 375.926 776.853 376.178C776.445 376.43 776.121 376.778 775.881 377.222C775.653 377.654 775.539 378.152 775.539 378.716C775.539 379.292 775.653 379.802 775.881 380.246C776.121 380.678 776.445 381.02 776.853 381.272C777.273 381.524 777.753 381.65 778.293 381.65ZM782.523 383H780.885V380.696L781.191 378.608L780.885 376.538V370.148H782.523V383ZM788.517 383.18C787.737 383.18 787.029 382.988 786.393 382.604C785.757 382.208 785.253 381.674 784.881 381.002C784.521 380.33 784.341 379.574 784.341 378.734C784.341 377.894 784.521 377.138 784.881 376.466C785.253 375.794 785.751 375.26 786.375 374.864C787.011 374.468 787.725 374.27 788.517 374.27C789.165 374.27 789.741 374.408 790.245 374.684C790.761 374.948 791.175 375.32 791.487 375.8C791.799 376.268 791.973 376.814 792.009 377.438V380.012C791.973 380.624 791.799 381.17 791.487 381.65C791.187 382.13 790.779 382.508 790.263 382.784C789.759 383.048 789.177 383.18 788.517 383.18ZM788.787 381.65C789.591 381.65 790.239 381.38 790.731 380.84C791.223 380.288 791.469 379.586 791.469 378.734C791.469 378.146 791.355 377.636 791.127 377.204C790.911 376.76 790.599 376.418 790.191 376.178C789.783 375.926 789.309 375.8 788.769 375.8C788.229 375.8 787.749 375.926 787.329 376.178C786.921 376.43 786.597 376.778 786.357 377.222C786.129 377.654 786.015 378.152 786.015 378.716C786.015 379.292 786.129 379.802 786.357 380.246C786.597 380.678 786.927 381.02 787.347 381.272C787.767 381.524 788.247 381.65 788.787 381.65ZM791.361 383V380.696L791.667 378.608L791.361 376.538V374.45H792.999V383H791.361ZM795.358 383V374.45H796.978V383H795.358ZM796.978 378.122L796.366 377.852C796.366 376.76 796.618 375.89 797.122 375.242C797.626 374.594 798.352 374.27 799.3 374.27C799.732 374.27 800.122 374.348 800.47 374.504C800.818 374.648 801.142 374.894 801.442 375.242L800.38 376.34C800.2 376.148 800.002 376.01 799.786 375.926C799.57 375.842 799.318 375.8 799.03 375.8C798.43 375.8 797.938 375.992 797.554 376.376C797.17 376.76 796.978 377.342 796.978 378.122ZM805.232 383.072L801.524 374.45H803.324L806.078 381.2H805.502L808.4 374.45H810.2L806.204 383.072H805.232ZM802.784 386.582L805.304 381.416L806.204 383.072L804.584 386.582H802.784Z" fill="#333333"/>
<path d="M474.788 383V370.868H476.48V383H474.788ZM470.54 372.056V370.508H480.71V372.056H470.54ZM484.043 383.18C483.191 383.18 482.423 382.988 481.739 382.604C481.055 382.208 480.515 381.674 480.119 381.002C479.723 380.33 479.525 379.568 479.525 378.716C479.525 377.876 479.717 377.12 480.101 376.448C480.497 375.776 481.025 375.248 481.685 374.864C482.357 374.468 483.107 374.27 483.935 374.27C484.727 374.27 485.423 374.45 486.023 374.81C486.635 375.17 487.109 375.668 487.445 376.304C487.793 376.94 487.967 377.66 487.967 378.464C487.967 378.584 487.961 378.716 487.949 378.86C487.937 378.992 487.913 379.148 487.877 379.328H480.659V377.978H487.013L486.419 378.5C486.419 377.924 486.317 377.438 486.113 377.042C485.909 376.634 485.621 376.322 485.249 376.106C484.877 375.878 484.427 375.764 483.899 375.764C483.347 375.764 482.861 375.884 482.441 376.124C482.021 376.364 481.697 376.7 481.469 377.132C481.241 377.564 481.127 378.074 481.127 378.662C481.127 379.262 481.247 379.79 481.487 380.246C481.727 380.69 482.069 381.038 482.513 381.29C482.957 381.53 483.467 381.65 484.043 381.65C484.523 381.65 484.961 381.566 485.357 381.398C485.765 381.23 486.113 380.978 486.401 380.642L487.445 381.704C487.037 382.184 486.533 382.55 485.933 382.802C485.345 383.054 484.715 383.18 484.043 383.18ZM495.085 383L492.421 379.256L492.115 378.968L488.749 374.45H490.711L493.141 377.78L493.447 378.032L497.047 383H495.085ZM488.587 383L492.115 378.248L493.033 379.436L490.495 383H488.587ZM493.573 378.95L492.637 377.798L494.995 374.45H496.885L493.573 378.95ZM499.502 383V370.868H501.122V383H499.502ZM497.396 375.926V374.45H503.228V375.926H497.396Z" fill="#333333"/>
<path d="M169.61 378.14V376.664H173.012C173.48 376.664 173.894 376.568 174.254 376.376C174.626 376.184 174.914 375.914 175.118 375.566C175.334 375.218 175.442 374.804 175.442 374.324C175.442 373.844 175.334 373.43 175.118 373.082C174.914 372.734 174.626 372.464 174.254 372.272C173.894 372.08 173.48 371.984 173.012 371.984H169.61V370.508H173.12C173.888 370.508 174.572 370.664 175.172 370.976C175.784 371.288 176.264 371.732 176.612 372.308C176.972 372.872 177.152 373.544 177.152 374.324C177.152 375.092 176.972 375.764 176.612 376.34C176.264 376.904 175.784 377.348 175.172 377.672C174.572 377.984 173.888 378.14 173.12 378.14H169.61ZM168.476 383V370.508H170.168V383H168.476ZM179.104 383V374.45H180.724V383H179.104ZM180.724 378.122L180.112 377.852C180.112 376.76 180.364 375.89 180.868 375.242C181.372 374.594 182.098 374.27 183.046 374.27C183.478 374.27 183.868 374.348 184.216 374.504C184.564 374.648 184.888 374.894 185.188 375.242L184.126 376.34C183.946 376.148 183.748 376.01 183.532 375.926C183.316 375.842 183.064 375.8 182.776 375.8C182.176 375.8 181.684 375.992 181.3 376.376C180.916 376.76 180.724 377.342 180.724 378.122ZM186.347 383V374.45H187.967V383H186.347ZM187.157 372.74C186.857 372.74 186.611 372.644 186.419 372.452C186.227 372.248 186.131 371.996 186.131 371.696C186.131 371.408 186.227 371.168 186.419 370.976C186.611 370.772 186.857 370.67 187.157 370.67C187.457 370.67 187.703 370.772 187.895 370.976C188.087 371.168 188.183 371.408 188.183 371.696C188.183 371.996 188.087 372.248 187.895 372.452C187.703 372.644 187.457 372.74 187.157 372.74ZM190.354 383V374.45H191.974V383H190.354ZM196.132 383V377.834C196.132 377.198 195.934 376.7 195.538 376.34C195.154 375.968 194.668 375.782 194.08 375.782C193.684 375.782 193.33 375.866 193.018 376.034C192.706 376.202 192.454 376.436 192.262 376.736C192.07 377.036 191.974 377.396 191.974 377.816L191.308 377.492C191.308 376.844 191.446 376.28 191.722 375.8C192.01 375.32 192.4 374.948 192.892 374.684C193.384 374.408 193.936 374.27 194.548 374.27C195.148 374.27 195.688 374.402 196.168 374.666C196.66 374.93 197.044 375.302 197.32 375.782C197.608 376.262 197.752 376.832 197.752 377.492V383H196.132ZM201.91 383V377.834C201.91 377.198 201.712 376.7 201.316 376.34C200.932 375.968 200.452 375.782 199.876 375.782C199.48 375.782 199.12 375.866 198.796 376.034C198.484 376.202 198.232 376.436 198.04 376.736C197.848 377.036 197.752 377.396 197.752 377.816L196.834 377.492C196.87 376.832 197.044 376.268 197.356 375.8C197.68 375.32 198.094 374.948 198.598 374.684C199.102 374.408 199.654 374.27 200.254 374.27C200.878 374.27 201.436 374.402 201.928 374.666C202.42 374.93 202.81 375.302 203.098 375.782C203.398 376.262 203.548 376.838 203.548 377.51V383H201.91ZM209.388 383.18C208.608 383.18 207.9 382.988 207.264 382.604C206.628 382.208 206.124 381.674 205.752 381.002C205.392 380.33 205.212 379.574 205.212 378.734C205.212 377.894 205.392 377.138 205.752 376.466C206.124 375.794 206.622 375.26 207.246 374.864C207.882 374.468 208.596 374.27 209.388 374.27C210.036 374.27 210.612 374.408 211.116 374.684C211.632 374.948 212.046 375.32 212.358 375.8C212.67 376.268 212.844 376.814 212.88 377.438V380.012C212.844 380.624 212.67 381.17 212.358 381.65C212.058 382.13 211.65 382.508 211.134 382.784C210.63 383.048 210.048 383.18 209.388 383.18ZM209.658 381.65C210.462 381.65 211.11 381.38 211.602 380.84C212.094 380.288 212.34 379.586 212.34 378.734C212.34 378.146 212.226 377.636 211.998 377.204C211.782 376.76 211.47 376.418 211.062 376.178C210.654 375.926 210.18 375.8 209.64 375.8C209.1 375.8 208.62 375.926 208.2 376.178C207.792 376.43 207.468 376.778 207.228 377.222C207 377.654 206.886 378.152 206.886 378.716C206.886 379.292 207 379.802 207.228 380.246C207.468 380.678 207.798 381.02 208.218 381.272C208.638 381.524 209.118 381.65 209.658 381.65ZM212.232 383V380.696L212.538 378.608L212.232 376.538V374.45H213.87V383H212.232ZM216.229 383V374.45H217.849V383H216.229ZM217.849 378.122L217.237 377.852C217.237 376.76 217.489 375.89 217.993 375.242C218.497 374.594 219.223 374.27 220.171 374.27C220.603 374.27 220.993 374.348 221.341 374.504C221.689 374.648 222.013 374.894 222.313 375.242L221.251 376.34C221.071 376.148 220.873 376.01 220.657 375.926C220.441 375.842 220.189 375.8 219.901 375.8C219.301 375.8 218.809 375.992 218.425 376.376C218.041 376.76 217.849 377.342 217.849 378.122ZM226.103 383.072L222.395 374.45H224.195L226.949 381.2H226.373L229.271 374.45H231.071L227.075 383.072H226.103ZM223.655 386.582L226.175 381.416L227.075 383.072L225.455 386.582H223.655Z" fill="#333333"/>
</svg>
