<svg width="40" height="40" viewBox="0 0 40 40" fill="none" xmlns="http://www.w3.org/2000/svg">
<g clip-path="url(#clip0_545_254)">
<circle cx="20" cy="20" r="20" fill="#DB8652"/>
<path d="M20.002 12.9151C16.0947 12.9151 12.9189 16.0905 12.9189 19.9982C12.9189 23.9059 16.0944 27.0813 20.002 27.0813C23.9097 27.0813 27.0851 23.9059 27.0851 19.9982C27.0851 16.0905 23.9097 12.9151 20.002 12.9151ZM20.002 25.774V14.2224C23.1843 14.2224 25.7779 16.816 25.7779 19.9983C25.7779 23.1805 23.1843 25.7741 20.002 25.7741V25.774Z" fill="#333333"/>
<path d="M20.0018 7.14285C19.6409 7.14285 19.3481 7.43558 19.3481 7.79646V11.0877C19.3481 11.4486 19.6409 11.7413 20.0018 11.7413C20.3626 11.7413 20.6554 11.4486 20.6554 11.0877V7.79646C20.6554 7.43559 20.3626 7.14285 20.0018 7.14285Z" fill="#333333"/>
<path d="M13.239 14.1574C13.3648 14.2832 13.535 14.348 13.7019 14.348C13.8686 14.348 14.0355 14.2834 14.1649 14.1574C14.4201 13.9022 14.4201 13.4869 14.1649 13.235L11.8335 10.9071C11.5783 10.6519 11.1663 10.6519 10.9111 10.9071C10.6559 11.1624 10.6559 11.5776 10.9111 11.8295L13.239 14.1574Z" fill="#333333"/>
<path d="M11.7415 19.9982C11.7415 19.6373 11.4488 19.3446 11.0879 19.3446H7.79668C7.43581 19.3446 7.14307 19.6373 7.14307 19.9982C7.14307 20.3591 7.4358 20.6518 7.79668 20.6518H11.0879C11.4521 20.6518 11.7415 20.3591 11.7415 19.9982Z" fill="#333333"/>
<path d="M13.239 25.839L10.9111 28.1668C10.6559 28.4221 10.6559 28.834 10.9111 29.0892C11.037 29.215 11.2072 29.2798 11.3741 29.2798C11.5408 29.2798 11.7077 29.2153 11.8371 29.0892L14.1652 26.7611C14.4204 26.5059 14.4204 26.0939 14.1652 25.8387C13.9062 25.5835 13.4945 25.5835 13.239 25.839L13.239 25.839Z" fill="#333333"/>
<path d="M20.0018 28.2585C19.6409 28.2585 19.3481 28.5513 19.3481 28.9122V32.2034C19.3481 32.5643 19.6409 32.857 20.0018 32.857C20.3626 32.857 20.6554 32.5643 20.6554 32.2034V28.9122C20.6554 28.548 20.3626 28.2585 20.0018 28.2585Z" fill="#333333"/>
<path d="M26.7647 25.839C26.5094 25.5837 26.0975 25.5837 25.8423 25.839C25.5871 26.0942 25.5871 26.5061 25.8423 26.7613L28.1702 29.0892C28.296 29.215 28.4662 29.2798 28.6331 29.2798C28.7998 29.2798 28.9667 29.2153 29.0961 29.0892C29.3513 28.834 29.3513 28.422 29.0961 28.1668L26.7647 25.839Z" fill="#333333"/>
<path d="M32.2037 19.3448H28.9124C28.5515 19.3448 28.2588 19.6376 28.2588 19.9984C28.2588 20.3593 28.5515 20.652 28.9124 20.652H32.2037C32.5645 20.652 32.8573 20.3593 32.8573 19.9984C32.857 19.6376 32.5643 19.3448 32.2037 19.3448Z" fill="#333333"/>
<path d="M26.3051 14.3482C26.4718 14.3482 26.6387 14.2837 26.7681 14.1576L29.0962 11.8295C29.3514 11.5743 29.3514 11.1623 29.0962 10.9071C28.841 10.6519 28.429 10.6519 28.1738 10.9071L25.8457 13.2352C25.5905 13.4904 25.5905 13.9024 25.8457 14.1576C25.9682 14.287 26.1384 14.3482 26.3051 14.3482H26.3051Z" fill="#333333"/>
</g>
<defs>
<clipPath id="clip0_545_254">
<rect width="40" height="40" fill="white"/>
</clipPath>
</defs>
</svg>
