<svg width="500" height="172" viewBox="0 0 500 172" fill="none" xmlns="http://www.w3.org/2000/svg">
<g clip-path="url(#clip0_739_1742)">
<path d="M500 171.884C500 185.139 489.255 195.884 476 195.884H24C10.7452 195.884 0 185.139 0 171.884V3.3428C0 -9.91202 10.7452 -20.6572 24 -20.6572H476C489.255 -20.6572 500 -9.91202 500 3.34282V171.884Z" fill="#FFF7F1"/>
<path d="M428.183 16.0389C427.927 18.9503 427.676 21.8616 427.424 24.773C427.3 26.2215 431.378 28.2119 431.694 26.4357C432.052 24.3944 432.412 22.3532 432.773 20.3121C432.938 19.377 432.42 18.4553 431.535 18.1107C430.221 17.5989 428.806 18.579 428.823 19.9894C428.847 21.952 428.871 23.9145 428.895 25.8772C428.911 27.1053 432.742 29.2597 433.093 27.8434C433.8 25.0046 434.507 22.1657 435.213 19.3266C435.431 18.4512 434.999 17.544 434.182 17.1613C432.905 16.563 431.44 17.5264 431.405 18.9362C431.33 22.0017 430.986 25.0444 430.374 28.0645C430.099 29.4268 434.249 31.3113 434.573 30.0312C435.64 25.8124 436.707 21.5936 437.777 17.3751C438.001 16.4901 437.566 15.5704 436.739 15.1831C435.461 14.5846 433.991 15.5362 433.951 16.9465C433.793 22.4736 432.953 27.9469 432.086 33.4089C431.866 34.7748 435.976 36.6581 436.284 35.3752C437.654 29.6304 439.027 23.8855 440.401 18.141C440.593 17.3388 440.194 16.5123 439.448 16.1624C438.195 15.5758 436.741 16.6251 436.715 18.0075C436.671 20.3141 436.301 22.6058 435.964 24.9071C435.468 28.263 434.977 31.619 434.485 34.9753C434.289 36.3001 438.299 38.2692 438.683 36.942C440.536 30.5155 442.014 23.9919 443.102 17.3919C443.253 16.4753 442.736 15.5811 441.87 15.244C440.549 14.7296 439.126 15.7299 439.093 17.1471C438.952 23.1658 437.933 29.1122 436.88 35.0393C436.628 36.464 440.786 38.4754 441.15 36.702C442.353 30.7897 443.555 24.8774 444.758 18.9651C444.94 18.0712 444.451 17.1762 443.601 16.8448C442.311 16.3416 440.934 17.366 440.964 18.751C441.052 22.7794 440.638 26.786 439.692 30.7096C439.449 31.7185 439.887 32.7786 440.796 33.2783C442.09 33.9895 443.707 33.2694 444.043 31.8313C445.013 27.6837 445.981 23.536 446.951 19.3882C447.143 18.5698 446.735 17.7292 445.974 17.3728C444.712 16.7818 443.276 17.809 443.331 19.2015C443.429 21.7153 443.294 24.2213 442.927 26.7176C442.773 27.7637 443.335 28.7954 444.321 29.1793C445.634 29.6909 447.082 28.8486 447.286 27.4542C447.645 24.9894 448.004 22.5245 448.363 20.0597C448.501 19.1146 447.968 18.1993 447.078 17.8523C445.748 17.3335 444.31 18.3009 444.318 19.729C444.335 22.7571 444.452 25.7821 444.673 28.8047C444.769 30.1738 448.519 32.3253 448.939 30.4669C449.495 28.0038 450.051 25.5408 450.608 23.0777C450.793 22.2567 450.35 21.4233 449.566 21.1176C448.312 20.6288 447.014 21.7209 447.279 23.04C447.372 23.5035 447.466 23.9669 447.56 24.4303C447.796 25.5925 450.786 27.8692 451.758 26.397C452.382 25.4548 452.594 24.5105 452.41 23.3838C452.242 22.3545 451.146 21.6397 450.243 21.2951C449.839 21.1404 447.975 20.7003 448.139 21.7211C448.188 22.0179 448.209 22.2846 448.198 22.5359C448.16 23.4372 448.362 24.4701 449.178 24.8528C450.275 25.3667 451.489 24.4143 451.249 23.2269C451.143 22.7011 451.037 22.1752 450.93 21.6494C450.682 20.416 447.108 18.0164 446.664 19.9868C446.119 22.4018 445.573 24.8171 445.028 27.2323C444.824 28.1363 445.31 29.0533 446.173 29.3899C447.456 29.8899 448.826 28.8812 448.756 27.5059C448.603 24.4885 448.551 21.4683 448.599 18.4449C448.623 17.0105 444.593 14.9879 444.333 16.7822C443.761 20.6935 443.189 24.6051 442.622 28.5167C442.41 29.9555 446.548 31.9504 446.888 30.179C447.688 26.0382 447.839 21.8693 447.348 17.6806C447.22 16.5825 443.501 14.199 443.149 15.7139C441.846 21.2842 440.546 26.8541 439.243 32.4243C438.867 34.0335 442.989 36.0581 443.373 34.6947C444.965 29.0563 445.56 23.2626 445.073 17.4181C444.961 16.0638 441.186 13.8849 440.806 15.7554C439.623 21.5714 438.437 27.3874 437.253 33.2034C437.038 34.2642 437.617 35.3262 438.626 35.719C439.932 36.2277 441.38 35.4154 441.618 34.0336C442.655 28.0093 443.531 21.9574 443.353 15.8214C443.313 14.4201 439.367 12.3342 439.087 14.1592C438.1 20.4985 436.752 26.7617 435.042 32.9393C434.766 33.9384 435.244 34.9951 436.183 35.4348C437.462 36.0342 438.958 35.2297 439.163 33.8318C439.519 31.411 439.876 28.9903 440.231 26.5694C440.722 23.2042 441.286 19.8603 440.798 16.4593C440.646 15.4014 436.972 12.9447 436.6 14.493C435.253 20.1254 433.91 25.7582 432.563 31.391C432.325 32.389 432.82 33.4171 433.75 33.8523C435.053 34.4625 436.579 33.6542 436.797 32.232C437.645 26.7038 438.351 21.1568 438.231 15.5464C438.207 14.3307 434.393 12.1518 434.033 13.5797C432.987 17.7171 431.937 21.8544 430.89 25.9915C430.63 27.0184 431.136 28.0852 432.095 28.5346C433.391 29.1419 434.916 28.3746 435.125 26.9582C435.587 23.8346 435.764 20.6873 435.656 17.5159C435.616 16.3135 431.814 14.1116 431.458 15.5496C430.753 18.3806 430.049 21.2116 429.346 24.0428C429.126 24.9322 429.565 25.8533 430.395 26.2419C431.677 26.8422 433.145 25.8957 433.128 24.4804C433.104 22.5547 433.081 20.629 433.057 18.7034C433.037 17.2928 429.111 15.2218 428.787 17.0407C428.436 19.0456 428.082 21.0503 427.727 23.0551C427.551 24.0537 428.104 25.038 429.049 25.4059C430.371 25.9204 431.816 25.0212 431.939 23.6083C432.109 21.6394 432.279 19.6705 432.45 17.7015C432.578 16.2064 428.331 14.3098 428.183 16.0389Z" fill="#F66640" fill-opacity="0.2"/>
<path d="M445.648 26.8593C444.113 28.3323 442.577 29.805 441.042 31.2776C439.735 32.5295 443.609 34.9762 444.733 34.0029C445.049 33.7288 445.366 33.4547 445.682 33.1806C446.693 32.3062 446.577 30.7057 445.451 29.9865C445.223 29.8408 444.995 29.6952 444.767 29.5496C444.228 29.2058 443.514 29.3837 443.062 29.8351C442.408 30.4879 442.34 31.6677 443.118 32.1651C443.288 32.2737 443.458 32.3823 443.629 32.4909C444.447 33.0137 445.539 32.6354 445.861 31.7192C446.695 29.3466 447.538 26.9759 448.339 24.5931C449.083 22.388 449.703 20.0134 448.291 17.9287C446.045 14.6155 441.33 13.4053 437.19 13.0433C436.087 12.9468 435.534 14.2596 436.323 15.0367C436.762 15.4683 437.445 15.4995 437.982 15.1986C438.832 14.7216 439.835 14.3976 440.758 14.6307C441.986 14.9404 442.485 16.3518 442.649 17.499C442.869 19.0626 447.136 20.6762 446.92 19.1524C446.076 13.2105 438.375 9.26583 433.393 13.0639C431.934 14.1777 435.496 15.9399 436.312 15.9419C438.123 15.9463 439.906 16.1041 441.674 16.5262C443.693 17.0094 445.172 17.4258 444.852 19.8922C444.609 21.7755 443.757 23.6282 443.133 25.4109C442.457 27.3554 441.778 29.3004 441.102 31.2449C440.534 32.873 443.825 34.2948 445.012 33.7428C446.24 33.171 447.176 32.3293 447.927 31.2006C448.767 29.9378 444.996 27.8576 444.017 28.7028C443.716 28.9634 443.415 29.2241 443.113 29.4847C442.051 30.4042 442.114 32.0706 443.244 32.9049C444.104 33.5391 445.296 33.4626 446.066 32.7235C447.157 31.6773 448.249 30.6313 449.343 29.5851C450.65 28.3307 446.72 25.8345 445.648 26.8593Z" fill="#F66640" fill-opacity="0.2"/>
<path d="M58.7288 144.978C85.1005 146.76 111.45 140.037 137.752 143.247C138.892 143.386 139.799 142.281 139.417 141.198C139.164 140.484 138.428 140.063 137.684 140.205C111.41 145.218 84.5563 146.793 57.8839 144.814C54.8055 144.586 56.3589 148.241 58.6256 148.437C70.6964 149.48 82.3221 146.042 94.0974 143.996C100.108 142.951 106.095 142.428 112.188 142.893C117.615 143.307 123.065 144.043 128.484 143.459C129.766 143.32 130.451 141.937 129.873 140.784C129.479 139.996 128.604 139.573 127.74 139.745C115.957 142.092 103.985 143.415 91.9738 143.635C80.5848 143.844 68.498 142.157 57.7575 146.925C56.8335 147.335 56.7931 148.284 57.2869 149.066C57.8899 150.024 58.9739 150.444 60.0586 150.445C86.5545 150.458 112.854 143.544 139.359 146.122C140.541 146.237 141.46 145.089 141.064 143.969C140.817 143.269 140.12 142.831 139.382 142.909C120.134 144.966 100.811 146.239 81.4616 146.725C80.1345 146.758 79.2893 148.161 79.884 149.348C80.2108 150 80.8977 150.391 81.6257 150.343C101.659 149.016 121.74 149.479 141.795 149.974C144.878 150.05 143.333 146.504 141.053 146.351C113.415 144.509 85.8579 154.797 58.3606 150.017C57.1948 149.814 56.2149 150.937 56.6089 152.053C56.8352 152.694 57.4599 153.106 58.138 153.062C85.2039 151.314 112.316 150.349 139.437 150.168C140.715 150.159 141.542 148.813 140.97 147.67C140.627 146.987 139.877 146.612 139.124 146.743C127.808 148.712 116.373 149.861 104.896 150.184C103.609 150.22 102.785 151.579 103.362 152.73C103.705 153.414 104.451 153.794 105.207 153.676C118 151.684 130.959 151.1 143.878 151.99C146.95 152.202 145.418 148.526 143.137 148.368C129.435 147.424 115.675 148.033 102.117 150.245C101.06 150.418 100.568 151.277 101.018 152.273C101.513 153.372 102.819 153.897 103.938 153.879C116.778 153.667 129.572 152.422 142.213 150.152C143.264 149.963 143.768 149.132 143.313 148.124C142.813 147.016 141.515 146.513 140.392 146.519C111.963 146.652 83.5412 147.648 55.171 149.502C54.1906 149.567 53.7176 150.408 53.9887 151.296C54.3153 152.367 55.4529 152.921 56.4521 153.131C84.1456 158.949 111.721 148.651 139.496 149.848C140.653 149.898 141.565 148.853 141.333 147.719C141.169 146.919 140.474 146.337 139.658 146.317C119.308 145.818 98.9268 145.371 78.6032 146.791C77.5144 146.867 77.0842 147.889 77.5036 148.819C77.9974 149.914 79.3061 150.448 80.4237 150.425C101.151 149.987 121.851 148.646 142.463 146.407C145.253 146.104 142.841 142.98 141.182 142.779C114.389 139.539 87.8631 146.326 61.1182 146.787C59.8803 146.809 59.1362 148.187 59.8135 149.223C60.2314 149.863 61.0504 150.101 61.7614 149.821C72.0624 145.769 83.7062 147.495 94.516 147.253C106.785 146.98 119.005 145.565 131.025 143.081C133.858 142.496 131.265 139.053 129.204 139.448C123.053 140.627 116.91 139.649 110.738 139.218C104.758 138.8 98.8471 139.252 92.9427 140.248C82.1095 142.075 71.3021 145.367 60.2428 144.959C59.0641 144.916 58.1212 145.974 58.3579 147.13C58.5162 147.903 59.1688 148.477 59.9561 148.532C86.985 150.421 114.196 148.783 140.799 143.589C143.56 143.05 141.211 140.209 139.518 139.961C112.35 135.974 85.2026 143.195 57.9871 141.355C54.9155 141.148 56.4465 144.823 58.7288 144.978Z" fill="#F66640" fill-opacity="0.2"/>
<path d="M204.945 148.357C231.951 147.299 258.957 146.242 285.962 145.184C287.269 145.133 288.083 143.744 287.49 142.578C287.15 141.912 286.432 141.526 285.688 141.61C258.417 144.686 231.031 146.656 203.602 147.516C201.066 147.596 202.963 150.573 204.33 150.984C210.686 152.892 217.284 151.728 223.751 151.151C230.548 150.544 237.361 150.104 244.18 149.83C257.276 149.304 270.387 149.407 283.474 150.115C284.683 150.18 285.572 148.992 285.161 147.852C284.907 147.148 284.219 146.696 283.472 146.742C257.543 148.328 231.614 149.915 205.685 151.501C204.376 151.581 203.578 152.976 204.173 154.145C204.519 154.824 205.252 155.216 206.009 155.127C231.918 152.081 258.019 149.102 284.123 150.839C285.304 150.917 286.185 149.76 285.784 148.647C285.526 147.932 284.807 147.491 284.053 147.582C260.402 150.462 236.679 152.709 212.91 154.321C211.628 154.408 210.851 155.776 211.434 156.921C211.793 157.625 212.571 158.01 213.349 157.872C238.303 153.427 263.667 151.344 289.009 151.758C292.078 151.808 290.527 148.208 288.248 148.171C262.089 147.743 235.953 149.827 210.202 154.502C207.284 155.033 210.085 158.236 212.038 158.108C237.145 156.455 262.203 154.095 287.179 151.03C289.904 150.695 287.593 147.568 285.88 147.434C258.146 145.26 230.435 148.432 202.913 151.67C201.847 151.796 201.39 152.709 201.829 153.67C202.31 154.72 203.648 155.342 204.749 155.275C232.022 153.607 259.295 151.938 286.568 150.27C289.27 150.104 287.004 146.778 285.27 146.673C271.71 145.858 258.112 145.669 244.535 146.143C237.715 146.381 230.901 146.785 224.1 147.357C218.605 147.818 212.57 149.121 207.014 148.186C205.962 148.009 204.978 148.925 205.197 149.968C205.337 150.635 205.935 151.106 206.616 151.083C234.065 150.191 261.471 148.186 288.761 145.074C289.829 144.952 290.283 144.033 289.845 143.075C289.356 142.007 288.032 141.426 286.925 141.47C258.986 142.564 231.048 143.658 203.109 144.752C202.019 144.795 201.611 145.847 202.025 146.752C202.514 147.82 203.838 148.4 204.945 148.357Z" fill="#F66640" fill-opacity="0.2"/>
<path d="M360.952 146.493C385.446 146.246 409.942 146.345 434.433 146.789C435.404 146.807 435.828 145.923 435.56 145.102C435.252 144.171 434.037 143.34 433.085 143.289C408.599 141.988 384.099 143.139 359.636 144.34C358.68 144.387 358.224 145.158 358.511 146.027C358.842 147.028 360.014 147.686 360.986 147.839C373.017 149.75 385.159 148.025 397.249 148.006C408.68 147.989 420.088 149.238 431.267 151.609C432.365 151.842 433.343 150.857 433.085 149.764C432.93 149.104 432.354 148.627 431.676 148.599C407.699 147.585 383.712 148.363 359.742 149.248C358.425 149.296 357.614 150.709 358.236 151.871C358.563 152.482 359.213 152.848 359.905 152.811C384.383 151.514 408.893 150.847 433.403 150.812C433.889 150.811 434.199 150.292 433.97 149.864C433.749 149.451 433.527 149.038 433.306 148.624C433.138 148.31 433.397 147.488 433.221 147.178C433.206 147.151 433.181 147.1 433.173 147.07C433.085 146.736 432.989 146.403 432.889 146.071C432.733 145.59 432.549 145.09 432.301 144.649C431.65 143.498 430.538 142.653 429.331 142.169C426.572 141.062 423.149 141.434 420.23 141.312C413.457 141.028 406.688 140.744 399.914 140.46C393.142 140.176 386.371 139.892 379.598 139.608C373.144 139.337 366.557 138.727 360.173 140.02C359.16 140.225 358.654 140.925 359.136 141.932C359.648 143.004 360.952 143.527 362.056 143.538C384.512 143.767 406.859 138.781 429.307 140.651C430.452 140.746 431.32 139.615 430.906 138.543C430.647 137.869 429.953 137.467 429.238 137.567C424.691 138.203 420.122 138.531 415.528 138.553C414.449 138.558 414.077 139.596 414.493 140.465C415.004 141.538 416.308 142.056 417.411 142.071C422.09 142.132 426.767 142.193 431.445 142.254C432.703 142.27 433.455 140.862 432.742 139.825C432.352 139.259 431.637 139.016 430.984 139.228C428.648 139.986 426.312 140.743 423.977 141.5C421.622 142.264 424.732 144.7 425.8 144.904C428.073 145.338 430.347 145.772 432.621 146.206C433.702 146.413 434.54 145.273 434.02 144.302C433.717 143.735 433.046 143.473 432.438 143.684C431.179 144.121 429.922 144.557 428.663 144.994C427.004 145.57 428.363 147.538 429.343 148.009C430.368 148.503 431.393 148.996 432.419 149.49C433.078 149.807 433.787 149.156 433.528 148.472C433.349 147.999 432.786 147.803 432.352 148.063C431.973 148.29 431.592 148.518 431.214 148.745C429.447 149.808 432.565 151.766 433.421 151.941C434.153 152.09 434.884 152.239 435.62 152.388C436.576 152.583 437.543 151.987 437.363 150.945C437.167 149.795 435.8 149.11 434.8 148.907C434.004 148.744 433.415 149.637 433.877 150.306C433.986 150.463 434.095 150.621 434.204 150.779C434.544 151.271 435.208 151.414 435.72 151.106C436.072 150.895 436.424 150.684 436.776 150.472C438.007 149.733 436.396 147.995 435.712 147.665C434.679 147.168 433.648 146.671 432.616 146.174C431.884 145.822 431.07 146.468 431.249 147.26C431.377 147.825 431.969 148.154 432.516 147.963C433.783 147.523 435.051 147.083 436.32 146.643C438.651 145.834 435.588 143.448 434.497 143.24C432.229 142.806 429.961 142.373 427.692 141.94C426.603 141.732 425.761 142.879 426.284 143.856C426.585 144.417 427.245 144.683 427.851 144.486C430.205 143.723 432.559 142.96 434.912 142.197C435.868 141.887 435.78 140.847 435.324 140.159C434.712 139.235 433.629 138.789 432.557 138.775C427.861 138.713 423.167 138.652 418.472 138.591C417.149 138.574 416.293 139.982 416.918 141.148C417.221 141.716 417.814 142.07 418.457 142.061C423.111 141.992 427.74 141.607 432.345 140.906C435.06 140.493 432.621 137.58 430.994 137.406C408.248 134.98 385.666 139.853 362.943 140.023C361.697 140.032 360.892 141.363 361.48 142.462C361.822 143.101 362.541 143.436 363.256 143.318C369.161 142.339 375.206 142.871 381.156 143.121C387.927 143.405 394.699 143.689 401.471 143.972C408.119 144.251 414.768 144.53 421.418 144.809C423.017 144.876 424.616 144.94 426.22 145.01C426.62 145.028 428.211 144.885 428.527 145.193C428.739 145.4 428.791 146.242 428.879 146.519C429.67 149.018 431.71 151.081 434.477 150.81C435.532 150.708 435.96 149.833 435.516 148.898C435.008 147.836 433.697 147.292 432.593 147.293C407.347 147.31 382.101 147.997 356.888 149.353C355.822 149.411 355.419 150.362 355.852 151.266C356.345 152.299 357.681 152.912 358.772 152.872C383.712 151.946 408.691 151.015 433.641 152.13C434.584 152.172 435.584 151.834 435.384 150.687C435.184 149.519 433.825 148.875 432.821 148.648C420.998 145.966 408.919 144.574 396.798 144.492C385.472 144.415 374.076 146.026 362.793 144.718C361.625 144.582 360.699 145.733 361.122 146.829C361.359 147.443 361.962 147.836 362.619 147.804C385.487 146.682 408.404 145.591 431.291 146.642C432.518 146.698 433.404 145.479 432.961 144.334C432.712 143.691 432.099 143.263 431.41 143.251C407.3 142.824 383.183 142.732 359.069 142.975C357.99 142.986 357.614 144.014 358.031 144.888C358.536 145.942 359.852 146.504 360.952 146.493Z" fill="#F66640" fill-opacity="0.2"/>
<path d="M213.794 74.4347C214.679 77.9042 215.932 80.9424 218.38 83.6199C222.981 88.651 229.738 91.5676 236.046 93.7058C243.852 96.351 252.454 97.9637 260.592 95.8996C267.214 94.2204 273.537 90.1393 276.832 83.9758C280.699 76.7413 279.733 67.3882 277.723 59.7321C275.65 51.8331 270.779 45.7079 263.99 41.3432C257.513 37.1791 249.652 33.7133 241.838 33.8151C235.021 33.9045 228.306 36.5397 223.224 41.123C219.051 44.8872 216.489 49.4484 215.181 54.8496C213.664 61.1128 212.262 68.051 213.794 74.4347C214.12 75.793 218.377 77.4476 217.89 75.4177C216.665 70.3173 217.714 64.5521 218.769 59.5138C219.532 55.8639 220.389 52.4613 222.382 49.2668C225.638 44.0509 230.832 40.0422 236.635 38.1073C243.246 35.9038 249.823 36.8175 256.122 39.5896C262.621 42.4498 268.66 46.6876 271.718 53.3375C274.732 59.8899 275.968 68.3643 274.776 75.501C273.652 82.2354 269.259 87.5834 263.335 90.7235C256.766 94.2059 249.175 94.4608 242.024 92.9133C237.705 91.9791 233.435 90.5327 229.431 88.6514C226.847 87.4373 224.29 85.9824 222.226 83.9774C219.771 81.5928 218.718 78.6633 217.89 75.4177C217.544 74.063 213.28 72.4201 213.794 74.4347Z" fill="#F66640"/>
<path d="M248.412 81.1656C253.693 81.7346 259.013 78.4471 260.072 73.025C260.361 71.5423 256.127 69.8048 255.942 70.7547C255.06 75.2752 250.787 78.9315 246.107 78.4274C245.153 78.3251 245.029 78.8494 245.492 79.5605C246.028 80.3816 247.463 81.0633 248.412 81.1656Z" fill="#F66640"/>
<path d="M232.668 57.312C232.668 58.123 232.668 58.9339 232.668 59.7453C232.668 60.0433 233.242 60.5076 233.411 60.6461C233.867 61.0194 234.428 61.3561 234.968 61.5848C235.331 61.739 236.834 62.3986 236.834 61.5977C236.834 60.7863 236.834 59.9749 236.834 59.1639C236.834 58.8659 236.26 58.402 236.09 58.2631C235.635 57.8902 235.073 57.5536 234.534 57.324C234.17 57.1702 232.668 56.511 232.668 57.312Z" fill="#F66640"/>
<path d="M255.225 56.4204C255.225 56.9278 255.225 57.4347 255.225 57.9413C255.225 58.2671 255.748 58.7245 255.942 58.8908C256.386 59.2722 256.954 59.6168 257.493 59.8375C257.892 60.0006 259.413 60.6131 259.413 59.7509C259.413 59.244 259.413 58.7366 259.413 58.2296C259.413 57.9047 258.889 57.4468 258.695 57.2805C258.251 56.8996 257.683 56.5549 257.143 56.3338C256.745 56.1707 255.225 55.5582 255.225 56.4204Z" fill="#F66640"/>
<path d="M243.135 96.6204C242.859 104.136 242.373 111.64 241.678 119.128C241.549 120.514 245.773 122.432 245.921 120.836C246.617 113.347 247.102 105.843 247.378 98.3278C247.43 96.9083 243.192 95.0676 243.135 96.6204Z" fill="#F66640"/>
<path d="M76.3466 53.0601C80.0611 43.5392 89.6777 36.7141 99.9024 36.6726C105.902 36.6485 111.813 39.1757 116.912 42.1753C122.092 45.2212 126.199 49.3937 128.445 55.0566C130.708 60.7654 131.643 67.7209 130.964 73.8236C130.322 79.5847 127.528 84.4515 122.931 87.9238C112.853 95.5353 99.0335 93.484 88.1847 88.7151C84.2523 86.9864 80.4054 84.5353 78.7117 80.3949C77.7085 77.9434 77.6861 75.2285 76.8112 72.7363C76.0915 70.6855 71.7949 70.4547 72.7629 73.2123C72.9888 73.8566 73.2359 75.4931 73.4266 76.5086C73.7153 78.0457 74.1079 79.5642 74.7181 81.0074C76.4846 85.1836 80.0887 88.2206 83.9604 90.3584C90.1139 93.7566 97.4638 95.8965 104.441 96.5392C111.048 97.1476 117.797 96.1474 123.6 92.7926C128.742 89.8201 132.787 85.2911 134.511 79.5179C136.497 72.866 135.628 64.9819 133.772 58.3852C131.891 51.6995 128.164 46.0732 122.597 41.9369C117.185 37.9165 110.693 34.8215 104.083 33.5104C91.1251 30.9397 77.0823 38.3188 72.2167 50.7898C71.3938 52.9003 75.5482 55.1062 76.3466 53.0601Z" fill="#F66640"/>
<path d="M88.7246 56.8814C88.7246 57.692 88.7246 58.5034 88.7246 59.3148C88.7246 59.6667 89.1988 60.1181 89.4155 60.3122C89.8494 60.7016 90.4231 61.0543 90.9629 61.2674C91.3991 61.4393 92.9361 61.9982 92.9361 61.0805C92.9361 60.2695 92.9361 59.4585 92.9361 58.6471C92.9361 58.2952 92.4615 57.8438 92.2452 57.6497C91.8114 57.2603 91.2376 56.9075 90.6978 56.6945C90.2616 56.5226 88.7246 55.9637 88.7246 56.8814Z" fill="#F66640"/>
<path d="M111.265 56.0189C111.265 56.5258 111.265 57.0332 111.265 57.5398C111.265 57.9501 111.631 58.389 111.894 58.6508C112.304 59.0583 112.89 59.4296 113.431 59.6249C113.961 59.8161 115.531 60.2281 115.531 59.2053C115.531 58.6979 115.531 58.1913 115.531 57.6844C115.531 57.274 115.165 56.8351 114.901 56.5734C114.491 56.1658 113.905 55.7946 113.364 55.5993C112.834 55.4076 111.265 54.9957 111.265 56.0189Z" fill="#F66640"/>
<path d="M99.1361 96.2891C98.8602 103.805 98.3744 111.309 97.6791 118.797C97.4852 120.887 101.858 122.574 102.077 120.22C102.772 112.732 103.258 105.228 103.534 97.7117C103.611 95.6166 99.2213 93.9604 99.1361 96.2891Z" fill="#F66640"/>
<path d="M97.2678 100.73C91.9195 101.747 86.2406 101.591 81.163 99.4606C76.3573 97.4443 72.616 93.5158 70.4893 88.7597C66.3661 79.5387 70.0938 68.0116 79.4453 63.8161C80.4705 63.3562 76.9651 60.6325 75.6924 61.2035C70.5017 63.5326 66.666 68.2709 65.2086 73.784C63.7368 79.3507 64.8491 85.223 67.8004 90.1091C74.4501 101.118 88.159 105.82 100.398 103.494C102.075 103.175 98.4801 100.499 97.2678 100.73Z" fill="#F66640"/>
<path d="M103.157 103.667C111.192 106.123 115.852 113.673 120.029 120.464C120.622 121.429 121.775 122.208 122.948 122.069C123.921 121.955 124.593 121.038 124.016 120.101C118.947 111.861 113.213 103.343 103.515 100.379C100.546 99.4714 100.713 102.92 103.157 103.667Z" fill="#F66640"/>
<path d="M69.528 38.659C68.7283 36.2264 67.4844 34.0632 65.8798 32.0828C65.2613 31.3197 63.8074 30.6154 62.8266 30.95C61.7619 31.3132 62.1689 32.3091 62.6979 32.9618C63.8826 34.424 64.7339 36.0963 65.3204 37.8822C65.6667 38.934 66.8818 39.6729 67.9174 39.8561C68.6943 39.9934 69.8766 39.7192 69.528 38.659Z" fill="#F66640"/>
<path d="M62.183 46.0864C59.5344 45.2887 56.8759 44.7797 54.1178 44.5768C53.1018 44.5023 52.8123 45.3777 53.2625 46.1541C53.8275 47.1286 55.1154 47.6811 56.1826 47.7596C58.189 47.9074 60.1862 48.2597 62.115 48.8408C62.8143 49.0514 64.1746 49.3333 64.3009 48.2617C64.4145 47.2925 62.9287 46.3111 62.183 46.0864Z" fill="#F66640"/>
<path d="M61.1197 56.2591C58.6031 56.6883 56.1761 57.3394 53.8086 58.3079C51.4912 59.2554 54.8994 62.3254 56.6467 61.6107C58.7055 60.7687 60.8278 60.1195 63.0202 59.7455C65.821 59.2675 63.0397 55.9317 61.1197 56.2591Z" fill="#F66640"/>
<path d="M96.5619 78.9836C97.3964 76.201 99.4052 73.8003 102.215 72.8962C105.059 71.9814 107.689 73.0388 108.866 75.8181C109.283 76.8022 110.496 77.515 111.498 77.7264C112.146 77.8633 113.403 77.7928 112.974 76.7785C111.205 72.5995 106.668 69.678 102.175 69.556C97.7251 69.4352 93.7111 72.4493 92.4324 76.7133C91.9474 78.3312 96.1597 80.3245 96.5619 78.9836Z" fill="#F66640"/>
<path d="M360.647 73.8122C361.508 77.1911 362.686 80.2003 365.051 82.8282C369.546 87.8223 376.158 90.7494 382.332 92.9698C390.095 95.7611 398.605 97.4874 406.8 95.7527C413.494 94.3348 420.003 90.3165 423.466 84.2489C427.532 77.1166 426.664 67.6154 424.653 59.9612C422.606 52.1649 417.896 46.1517 411.238 41.7693C404.821 37.5484 397.042 34.0306 389.279 33.7971C382.532 33.5941 375.869 36.1262 370.705 40.4469C366.317 44.1178 363.512 48.8066 362.155 54.3152C360.641 60.4569 359.14 67.5365 360.647 73.8122C360.86 74.7017 362.182 75.3493 362.934 75.6742C363.178 75.7793 365.014 76.4502 364.821 75.6468C363.571 70.4418 364.518 64.768 365.594 59.6149C366.337 56.0613 367.127 52.6667 368.999 49.5217C372.148 44.2297 377.171 40.1981 382.901 38.0659C389.444 35.6313 396.188 36.1403 402.572 38.8435C409.155 41.6304 415.209 45.7889 418.42 52.4138C420.051 55.777 420.951 59.4752 421.49 63.1629C422.062 67.0532 422.37 71.1042 421.734 75.0058C420.643 81.6782 416.496 87.0991 410.663 90.3455C404.228 93.9281 396.781 94.4641 389.642 93.124C385.2 92.2896 380.833 90.8464 376.709 88.9957C374.071 87.8114 371.448 86.3904 369.337 84.3753C366.796 81.95 365.67 78.9762 364.821 75.6468C364.593 74.7541 363.294 74.1138 362.533 73.7848C362.296 73.6826 360.442 73.0117 360.647 73.8122Z" fill="#F66640"/>
<path d="M379.513 57.2012C379.513 58.0122 379.513 58.8232 379.513 59.6346C379.513 61.1286 383.771 62.9193 383.771 61.3154C383.771 60.5044 383.771 59.693 383.771 58.8816C383.771 57.3881 379.513 55.5974 379.513 57.2012Z" fill="#F66640"/>
<path d="M402.141 56.1789C402.141 56.6863 402.141 57.1933 402.141 57.7002C402.141 57.9676 402.77 58.4384 402.912 58.5491C403.379 58.9131 403.934 59.2409 404.474 59.4793C404.892 59.6633 405.381 59.9045 405.844 59.9057C406.101 59.9065 406.282 59.8997 406.282 59.5989C406.282 59.0919 406.282 58.5845 406.282 58.0776C406.282 57.8102 405.651 57.3394 405.51 57.2291C405.043 56.8655 404.488 56.5369 403.948 56.2989C403.53 56.1145 403.041 55.8733 402.577 55.8721C402.321 55.8713 402.141 55.8781 402.141 56.1789Z" fill="#F66640"/>
<path d="M390.033 96.4107C389.757 103.926 389.272 111.43 388.576 118.918C388.454 120.242 392.664 122.161 392.805 120.654C393.5 113.165 393.986 105.661 394.262 98.1455C394.311 96.786 390.087 94.9482 390.033 96.4107Z" fill="#F66640"/>
<path d="M377.083 74.626C379.816 80.9686 386.816 83.0762 393.084 83.7515C396.216 84.089 399.619 84.5396 402.664 83.4725C405.697 82.409 407.519 79.7191 409.122 77.0843C410.29 75.1688 406.18 72.8667 404.995 74.8136C403.834 76.7199 402.586 78.8561 400.465 79.798C398.182 80.8112 395.442 80.3461 393.045 80.1073C388.534 79.6583 383.162 78.8191 381.142 74.1311C380.28 72.1306 375.926 71.9409 377.083 74.626Z" fill="#F66640"/>
<path d="M394.916 108.337C405.461 109.019 416.556 107.639 425.58 101.716C429.534 99.1213 433.029 95.7509 435.488 91.6761C438.311 87.0002 439.69 81.643 441.042 76.3944C441.374 75.0998 437.123 73.3083 436.912 74.1237C435.616 79.1653 434.297 84.297 431.69 88.8433C429.283 93.0392 425.812 96.5256 421.794 99.1624C412.905 104.996 402.116 106.357 391.725 105.685C390.66 105.616 391.678 106.783 391.958 107.03C392.744 107.722 393.864 108.269 394.916 108.337Z" fill="#F66640"/>
<path d="M438.155 71.6158C438.762 71.638 438.682 72.2553 438.59 71.5663C438.538 71.1781 438.187 70.6897 438.035 70.3236C437.615 69.3024 437.259 68.2643 437.239 67.1505C437.227 66.2094 438.003 63.4632 439.462 63.9122C440.354 64.1848 440.786 66.0713 440.862 66.8449C440.986 68.0791 440.754 69.5887 439.506 70.1211C437.039 71.1761 440.234 74.4805 442.237 73.6252C448.71 70.8576 444.3 60.0863 438.187 60.0963C434.624 60.1024 432.561 63.5389 432.821 66.8288C433.077 70.0526 434.992 75.2645 438.81 75.4026C441.881 75.5138 440.57 71.7032 438.155 71.6158Z" fill="#F66640"/>
<path d="M386.336 105.146C368.707 107.123 358.038 90.6383 352.687 76.1019C352.262 74.9478 348.06 73.2888 348.676 74.9627C351.962 83.8894 356.575 92.5764 363.811 98.896C370.789 104.991 380.113 108.976 389.457 107.928C390.497 107.811 389.724 106.791 389.32 106.408C388.623 105.746 387.342 105.034 386.336 105.146Z" fill="#F66640"/>
<path d="M348.907 77.3851C352.289 77.3521 355.061 74.5543 353.838 71.057C352.612 67.5549 348.226 65.734 344.807 66.6984C341.615 67.598 339.076 70.8005 340.263 74.1931C341.575 77.9416 346.017 79.0683 349.528 78.9636C350.504 78.9351 350.847 78.2783 350.355 77.4395C349.841 76.5633 348.45 75.8042 347.435 75.834C345.859 75.8807 344.336 76.1131 344.243 74.127C344.168 72.5155 345.257 71.0904 346.572 70.2967C348.043 69.4084 349.955 69.0106 349.854 71.3224C349.783 72.9295 348.396 74.2394 346.814 74.2551C345.83 74.2648 345.503 74.9534 345.987 75.7792C346.51 76.6704 347.885 77.3948 348.907 77.3851Z" fill="#F66640"/>
<path d="M62.6514 141.328C63.2602 146.74 63.3572 152.17 62.9403 157.596C62.8919 158.226 63.3868 158.768 64.0185 158.768C64.2508 158.768 64.4831 158.768 64.7154 158.768C64.9729 158.768 65.1749 158.547 65.1517 158.29C65.0138 156.784 62.6594 156.77 62.7986 158.29C62.813 158.449 62.8278 158.609 62.8422 158.768C62.9814 160.289 65.0569 160.293 65.1949 158.768C65.7208 152.953 65.6572 147.13 65.0042 141.328C64.8358 139.83 62.4807 139.813 62.6514 141.328Z" fill="#F66640"/>
<path d="M62.2053 143.418C64.2441 141.931 67.9714 142.016 68.8702 144.844C69.2349 145.991 68.9534 147.351 68.2189 148.291C67.0758 149.752 65.2561 149.509 63.6211 149.232C62.1405 148.98 61.504 151.262 62.9962 151.516C65.3385 151.915 67.8055 152.101 69.6167 150.274C71.0586 148.82 71.6727 146.58 71.2317 144.58C70.2361 140.074 64.4228 138.888 61.0182 141.373C59.8039 142.259 60.9766 144.315 62.2053 143.418Z" fill="#F66640"/>
<path d="M71.7672 142.977C73.759 145.118 74.9607 147.714 75.2809 150.582C75.3425 151.133 75.8728 151.526 76.4081 151.38C76.972 151.226 77.2188 150.555 77.0838 149.986C76.8131 148.845 77.1295 147.625 77.5357 146.486C77.7956 145.759 78.109 144.973 78.6632 144.413C79.2358 143.833 80.6656 143.345 81.0055 144.501C81.4345 145.96 83.7056 145.339 83.2742 143.872C82.3941 140.878 78.6716 140.87 76.8276 142.94C74.7864 145.231 73.7612 149.588 75.5201 152.264C76.131 153.194 77.754 152.904 77.712 151.666C77.5789 147.741 76.0963 144.166 73.4309 141.301C72.3933 140.187 70.7328 141.865 71.7672 142.977Z" fill="#F66640"/>
<path d="M89.7546 142.932C88.8621 140.085 85.4451 141.04 84.3987 143.208C83.3447 145.393 82.6442 149.126 84.9665 150.759C87.3403 152.428 90.4987 150.798 91.5622 148.376C92.5678 146.087 92.0612 143.222 90.1212 141.599C88.9645 140.632 87.2915 142.299 88.4579 143.274C90.0932 144.642 90.2803 147.798 88.116 148.827C86.4327 149.626 85.6438 148.217 85.8317 146.706C85.9085 146.093 86.0684 145.469 86.266 144.883C86.2908 144.81 87.2832 142.914 87.4859 143.561C87.9401 145.01 90.2116 144.391 89.7546 142.932Z" fill="#F66640"/>
<path d="M92.7075 134.228C93.1469 139.334 93.8774 144.403 94.9046 149.423C95.1689 150.715 97.326 150.446 97.2149 149.108C97.0865 147.561 96.7874 145.344 98.0225 144.142C98.9622 143.227 100.658 143.258 101.608 144.15C102.679 145.155 102.572 147.049 101.619 148.097C100.335 149.509 98.276 149.146 96.9162 148.111C95.7083 147.192 94.5347 149.248 95.7291 150.157C97.8666 151.783 101.108 151.88 103.108 149.937C104.925 148.174 105.278 145.107 103.758 143.042C102.409 141.21 99.7306 140.607 97.6907 141.55C95.1747 142.713 94.7214 145.433 94.7952 147.953C94.8136 148.582 95.3861 149.037 96.0096 148.952C96.6391 148.866 97.0641 148.266 96.9425 147.642C96.0773 143.205 95.4476 138.735 95.0593 134.228C94.9298 132.72 92.5759 132.706 92.7075 134.228Z" fill="#F66640"/>
<path d="M106.245 135.183C106.437 140.211 106.629 145.24 106.821 150.269C106.879 151.788 109.232 151.796 109.174 150.269C108.982 145.24 108.79 140.211 108.598 135.183C108.54 133.663 106.186 133.656 106.245 135.183Z" fill="#F66640"/>
<path d="M114.013 145.464C115.534 146.15 117.431 146.403 118.794 145.202C119.849 144.272 120.233 142.66 119.606 141.377C117.914 137.917 113.507 140.854 112.459 143.249C111.239 146.037 112.043 149.573 114.827 151.054C117.678 152.571 121.306 151.617 123.102 148.971C123.959 147.709 121.921 146.523 121.071 147.775C119.429 150.194 115.065 149.923 114.341 146.852C114.04 145.573 114.398 144.077 115.305 143.119C115.757 142.641 117.191 141.659 117.541 142.661C117.983 143.93 115.689 143.639 115.2 143.418C113.83 142.8 112.632 144.841 114.013 145.464Z" fill="#F66640"/>
<path d="M128.209 149.853C127.269 147.512 127.211 145.109 128.142 142.829C128.308 142.421 128.023 141.95 127.582 141.95C127.122 141.95 126.828 142.464 127.05 142.868C128.471 145.452 130.959 150.299 133.47 146.876C133.997 146.157 136.528 141.981 137.78 142.966C138.455 143.496 138.671 146.076 138.78 146.875C138.955 148.164 138.966 149.445 138.888 150.743C138.796 152.266 141.148 152.26 141.24 150.743C141.387 148.318 141.311 139.329 137.059 140.367C135.348 140.786 133.707 142.485 132.667 143.839C132.368 144.229 132.079 144.85 131.747 145.212C131.726 145.234 131.713 145.262 131.709 145.291C131.691 145.422 131.52 145.459 131.45 145.348C131.26 145.047 131.071 144.746 130.881 144.445C130.105 143.215 129.329 141.984 128.553 140.754C128.099 140.034 126.954 139.939 126.522 140.754C124.908 143.804 124.647 147.263 125.941 150.483C126.501 151.878 128.778 151.268 128.209 149.853Z" fill="#F66640"/>
<path d="M209.886 136.76C209.838 136.734 209.785 136.783 209.805 136.832C209.934 137.151 210.063 137.469 210.192 137.788C210.251 137.934 210.226 138.1 210.128 138.223C210.121 138.233 210.113 138.242 210.106 138.252C210.021 138.358 209.888 138.412 209.753 138.394C209.379 138.345 208.712 139.054 208.727 139.431C208.741 139.799 208.743 140.132 208.751 140.225C208.811 140.961 208.866 141.698 208.914 142.435C209.001 143.787 209.065 145.14 209.108 146.494C209.197 149.324 209.18 152.156 209.081 154.986C209.027 156.511 211.38 156.509 211.434 154.986C211.554 151.54 211.55 148.093 211.39 144.648C211.309 142.926 211.193 141.206 211.04 139.489C210.946 138.436 211.032 137.319 210.208 136.562C209.798 136.186 209.27 136.13 208.782 136.377C208.342 136.599 208.104 136.909 208.018 137.394C207.929 137.896 208.072 138.476 208.559 138.732C208.605 138.756 208.652 138.781 208.698 138.805C210.04 139.509 211.231 137.465 209.886 136.76Z" fill="#F66640"/>
<path d="M206.032 144.39C208.705 144.03 211.377 143.669 214.05 143.309C215.529 143.11 215.549 140.738 214.05 140.94C211.377 141.3 208.705 141.661 206.032 142.021C204.554 142.22 204.534 144.592 206.032 144.39Z" fill="#F66640"/>
<path d="M216.656 137.447C217.706 142.359 218.277 147.326 218.379 152.343C218.391 152.952 218.886 153.445 219.496 153.445C220.161 153.445 220.699 152.863 220.71 152.198C220.755 149.396 221.429 143.76 224.118 146.127C226.116 147.887 224.955 151.957 225.543 154.333C225.909 155.812 228.178 155.186 227.811 153.704C227.005 150.44 228.556 143.633 223.304 143.217C218.521 142.839 218.007 150.217 218.394 153.445C218.57 154.914 220.757 155.013 220.746 153.445C220.708 147.846 220.094 142.29 218.924 136.816C218.606 135.327 216.337 135.957 216.656 137.447Z" fill="#F66640"/>
<path d="M230.2 144.609C230.374 147.595 230.549 150.58 230.724 153.566C230.812 155.081 233.166 155.092 233.077 153.566C232.902 150.58 232.727 147.595 232.552 144.609C232.464 143.094 230.111 143.084 230.2 144.609Z" fill="#F66640"/>
<path d="M230.379 139.667C231.894 139.667 231.896 137.297 230.379 137.297C228.866 137.297 228.863 139.667 230.379 139.667Z" fill="#F66640"/>
<path d="M235.617 145.159C236.514 147.157 237.035 149.228 237.211 151.388C237.26 151.997 237.757 152.483 238.367 152.483C239.038 152.483 239.554 151.901 239.546 151.231C239.534 150.213 239.655 149.209 239.968 148.217C240.171 147.576 240.434 146.962 240.759 146.374C240.901 146.12 241.053 145.874 241.216 145.633C241.323 145.475 241.466 145.17 241.572 145.01C241.864 144.571 242.215 145.373 242.42 145.859C242.862 146.903 243.086 148.711 243.24 149.435C243.597 151.113 243.79 152.806 243.878 154.52C243.956 156.037 246.309 156.046 246.23 154.52C246.096 151.917 245.723 149.333 245.02 146.821C244.571 145.218 243.98 142.537 241.881 142.478C240.104 142.429 238.983 144.57 238.337 145.954C237.379 148.007 237.029 150.232 237.27 152.483C237.429 153.963 239.666 154.04 239.623 152.483C239.539 149.488 238.873 146.692 237.649 143.963C237.026 142.576 234.998 143.779 235.617 145.159Z" fill="#F66640"/>
<path d="M247.293 136.426C248.242 142.412 248.663 148.454 248.594 154.515C248.577 156.04 250.929 156.041 250.947 154.515C251.019 148.239 250.544 141.993 249.561 135.796C249.324 134.295 247.056 134.932 247.293 136.426Z" fill="#F66640"/>
<path d="M255.396 143.745C252.996 144.994 250.597 146.243 248.198 147.492C247.4 147.907 247.467 149.105 248.198 149.538C250.928 151.154 253.658 152.77 256.388 154.386C257.696 155.16 258.881 153.113 257.576 152.341C255.148 150.903 252.72 149.466 250.293 148.029C249.892 147.792 249.385 148.081 249.385 148.547C249.385 148.998 249.864 149.289 250.264 149.08C252.37 147.984 254.477 146.887 256.583 145.791C257.928 145.09 256.74 143.045 255.396 143.745Z" fill="#F66640"/>
<path d="M260.822 143.672C261.016 146.971 261.21 150.27 261.405 153.568C261.493 155.084 263.847 155.094 263.757 153.568C263.563 150.27 263.369 146.971 263.175 143.672C263.086 142.157 260.732 142.147 260.822 143.672Z" fill="#F66640"/>
<path d="M262.053 137.78C263.567 137.78 263.57 135.411 262.053 135.411C260.54 135.411 260.537 137.78 262.053 137.78Z" fill="#F66640"/>
<path d="M265.519 144.501C266.459 147.21 267.117 149.972 267.501 152.815C267.69 154.209 269.724 153.746 269.812 152.5C269.936 150.725 270.819 145.039 273.364 145.319C274.594 145.454 274.658 146.899 274.9 147.98C275.196 149.305 275.487 150.632 275.781 151.958C276.111 153.446 278.379 152.817 278.05 151.328C277.456 148.647 277.125 142.158 272.946 142.737C269.414 143.226 268.027 147.888 267.589 151.22C267.502 151.879 268.077 152.416 268.735 152.326C269.307 152.248 269.709 151.721 269.618 151.151C269.222 148.671 268.613 146.25 267.787 143.871C267.291 142.441 265.018 143.056 265.519 144.501Z" fill="#F66640"/>
<path d="M287.885 144.265C287.05 142.173 284.569 141.571 282.734 142.862C280.722 144.279 279.974 147.871 280.212 150.189C280.466 152.667 282.629 154.241 285.023 153.331C287.683 152.32 288.172 149.615 288.083 147.081C288.061 146.442 287.477 145.984 286.844 146.071C286.215 146.156 285.781 146.745 285.888 147.371C286.277 149.648 286.681 151.925 287.028 154.209C287.436 156.879 287.359 159.417 285.473 161.512C282.236 165.108 276.592 164.258 274.212 160.149C273.45 158.833 271.416 160.024 272.181 161.345C275.026 166.258 281.62 167.774 286.099 164.153C291.78 159.562 288.982 151.684 287.963 145.597C287.745 144.294 285.526 144.581 285.652 145.912C285.774 147.196 286.038 148.885 285.369 150.068C284.481 151.636 282.594 151.443 282.526 149.545C282.491 148.546 282.785 147.301 283.13 146.362C283.311 145.867 284.978 143.294 285.616 144.896C286.174 146.293 288.45 145.683 287.885 144.265Z" fill="#F66640"/>
<path d="M368.756 141.517C366.422 137.998 361.128 140.188 362.215 144.38C362.315 144.766 362.646 145.115 363.036 145.207C364.914 145.65 368.711 146.77 368.235 149.424C367.608 152.929 362.288 151.259 363.76 148.025C364.386 146.649 362.359 145.444 361.728 146.83C359.7 151.287 364.845 156.135 368.863 152.678C370.709 151.09 371.139 148.496 369.801 146.437C368.576 144.551 366.322 143.612 364.211 143.059C364.053 143.018 363.946 143.209 364.061 143.325C364.177 143.442 364.42 143.319 364.442 143.155C364.589 142.069 365.986 141.599 366.725 142.713C367.562 143.975 369.601 142.79 368.756 141.517Z" fill="#F66640"/>
<path d="M379.197 141.897C377.309 140.204 374.389 140.791 372.97 142.851C371.305 145.269 372.314 149.146 374.191 151.178C376.248 153.405 379.002 151.093 379.958 148.962C381.047 146.531 380.613 143.724 378.854 141.75C377.841 140.613 376.181 142.293 377.191 143.426C378.032 144.369 378.356 145.611 378.158 146.863C378.067 147.436 377.863 148.007 377.552 148.497C377.138 149.148 376.83 149.583 376.087 149.349C374.774 148.934 374.255 146.145 374.571 144.956C374.873 143.817 376.444 142.594 377.534 143.572C378.662 144.583 380.331 142.913 379.197 141.897Z" fill="#F66640"/>
<path d="M382.892 132.824C382.696 139.117 382.749 145.41 383.05 151.699C383.123 153.216 385.476 153.225 385.403 151.699C385.102 145.41 385.049 139.117 385.244 132.824C385.292 131.299 382.939 131.301 382.892 132.824Z" fill="#F66640"/>
<path d="M387.119 142.254C386.848 145.129 387.307 151.618 391.294 151.883C392.861 151.987 393.924 150.801 394.416 149.415C395.06 147.6 395.318 145.567 395.518 143.611C395.586 142.95 395.015 142.4 394.356 142.49C393.793 142.567 393.398 143.085 393.488 143.646C393.897 146.204 394.523 148.701 395.37 151.157C395.863 152.588 398.137 151.972 397.638 150.526C396.68 147.747 396.004 144.914 395.605 142C395.411 140.579 393.417 141.098 393.295 142.314C393.151 143.756 392.95 145.189 392.672 146.611C392.573 147.117 392.489 147.638 392.341 148.132C392.129 148.838 392.141 149.382 391.329 149.278C389.194 149.005 389.334 143.711 389.472 142.254C389.615 140.738 387.261 140.748 387.119 142.254Z" fill="#F66640"/>
<path d="M396.787 138.723C399.938 138.723 403.089 138.723 406.241 138.723C407.756 138.723 407.756 136.354 406.241 136.354C403.089 136.354 399.938 136.354 396.787 136.354C395.273 136.354 395.271 138.723 396.787 138.723Z" fill="#F66640"/>
<path d="M400.719 132.354C400.905 138.327 401.091 144.299 401.277 150.271C401.324 151.792 403.678 151.798 403.63 150.271C403.444 144.299 403.258 138.327 403.072 132.354C403.025 130.834 400.672 130.827 400.719 132.354Z" fill="#F66640"/>
<path d="M408.799 142.257C408.995 145.399 409.187 148.54 409.383 151.682C409.479 153.196 411.83 153.207 411.738 151.682C411.542 148.54 411.346 145.399 411.15 142.257C411.058 140.743 408.703 140.732 408.799 142.257Z" fill="#F66640"/>
<path d="M410.97 134.951C412.482 134.951 412.486 132.582 410.97 132.582C409.455 132.582 409.451 134.951 410.97 134.951Z" fill="#F66640"/>
<path d="M419.11 141.688C414.276 142.63 412.62 149.202 416.971 151.982C419.326 153.486 421.317 152.247 422.297 149.885C423.312 147.436 423.028 144.705 421.681 142.45C420.901 141.144 418.866 142.334 419.65 143.645C420.397 144.898 420.745 146.3 420.489 147.758C420.253 149.11 419.462 151.045 417.918 149.727C415.603 147.746 417.051 144.496 419.738 143.973C421.221 143.684 420.593 141.4 419.11 141.688Z" fill="#F66640"/>
<path d="M424.472 142.102C425.388 145.192 426.052 148.33 426.415 151.535C426.583 153.01 428.767 153.099 428.767 151.535C428.767 150.028 428.982 148.569 429.486 147.15C429.838 146.158 430.582 144.384 431.471 143.463C431.744 143.18 431.953 142.745 432.335 142.648C432.703 142.554 432.941 143.003 433.076 143.357C433.104 143.432 433.133 143.506 433.161 143.581C433.465 144.429 433.709 145.302 433.912 146.18C434.292 147.845 434.452 149.525 434.476 151.231C434.5 152.754 436.851 152.759 436.831 151.231C436.787 148.419 436.371 145.608 435.432 142.951C434.9 141.451 433.996 139.633 432.093 140.093C430.294 140.53 428.827 143.048 428.047 144.587C427.112 146.425 426.59 148.39 426.453 150.427C426.411 151.038 426.912 151.535 427.525 151.535C428.187 151.535 428.702 150.958 428.614 150.302C428.215 147.311 427.601 144.373 426.743 141.472C426.312 140.014 424.04 140.635 424.472 142.102Z" fill="#F66640"/>
<path d="M431.562 39.2047C430.17 42.6396 435.712 44.5165 438.179 44.3792C440.954 44.2254 442.997 41.2298 441.138 38.8323C440.21 37.6315 438.555 39.3187 439.474 40.5078C439.75 40.8602 439.343 41.4312 439.087 41.6623C438.483 42.1995 437.591 42.0396 436.884 41.8745C436.08 41.6865 433.361 40.9846 433.829 39.8345C434.401 38.4235 432.125 37.8095 431.562 39.2047Z" fill="#F66640"/>
<path d="M432.271 41.5927C431.343 42.055 430.907 43.1088 431.131 44.1235C431.415 45.4411 432.638 46.0572 433.814 46.4128C436.545 47.2363 439.836 47.3748 441.079 44.2814C441.651 42.8692 439.376 42.2551 438.812 43.6516C438.384 44.7106 436.973 44.6764 436.065 44.5238C435.585 44.4437 435.11 44.3249 434.646 44.1872C434.434 44.1239 433.442 43.6451 433.458 43.6383C434.814 42.9626 433.622 40.9186 432.271 41.5927Z" fill="#F66640"/>
<path d="M433.03 39.3474C435.501 39.6755 437.972 40.0037 440.443 40.3319C441.939 40.5308 441.927 38.1594 440.443 37.9629C437.972 37.6348 435.501 37.3062 433.03 36.978C431.535 36.7795 431.547 39.1504 433.03 39.3474Z" fill="#F66640"/>
<path d="M434.757 37.1152C433.321 34.1217 431.846 31.1431 430.446 28.1326C429.191 25.4351 428.499 22.8052 429.403 19.8777C431.026 14.6203 436.324 11.6811 441.606 12.9443C447.068 14.2498 450.49 19.2318 450.07 24.8294C449.843 27.8399 448.467 30.8978 445.924 32.5983C443.585 34.164 441.582 35.4264 439.923 37.7917C439.047 39.0396 441.086 40.2247 441.954 38.9877C442.929 37.5976 444.101 36.5056 445.528 35.6019C446.652 34.8908 447.827 34.2771 448.787 33.334C450.53 31.6218 451.682 29.186 452.158 26.7985C453.073 22.1585 451.774 17.044 448.223 13.8218C440.982 7.24881 428.703 10.4586 426.832 20.5014C426.328 23.1873 426.8 25.6855 427.883 28.1665C429.379 31.5969 431.106 34.9383 432.725 38.3108C433.385 39.6831 435.412 38.4831 434.757 37.1152Z" fill="#F66640"/>
<path d="M437.098 37.2756C437.098 33.4095 436.614 29.5921 435.666 25.8463C435.294 24.3697 433.022 24.9955 433.398 26.4761C434.298 30.0298 434.742 33.6088 434.746 37.2756C434.746 38.8002 437.098 38.8026 437.098 37.2756Z" fill="#F66640"/>
<path d="M440.199 37.6103C440.643 33.5328 441.791 29.6014 443.582 25.9193C444.246 24.555 442.218 23.353 441.551 24.7233C439.567 28.8049 438.34 33.093 437.844 37.6103C437.68 39.1236 440.035 39.1115 440.199 37.6103Z" fill="#F66640"/>
<path d="M434.26 30.0744C437.423 29.6041 440.625 29.6077 443.788 30.084C445.267 30.3071 445.907 28.0247 444.412 27.7992C440.805 27.2552 437.247 27.2528 433.636 27.79C432.145 28.0123 432.776 30.2955 434.26 30.0744Z" fill="#F66640"/>
<path d="M452.925 13.47C453.693 12.6183 454.608 11.9036 455.668 11.459C456.252 11.2134 456.671 10.6742 456.487 10.0017C456.336 9.4444 455.632 8.92695 455.04 9.1746C453.597 9.78023 452.317 10.6214 451.262 11.7948C450.246 12.9223 451.905 14.6027 452.925 13.47Z" fill="#F66640"/>
<path d="M453.988 16.3481C455.475 16.1875 456.963 16.0264 458.446 15.8653C459.937 15.7038 459.953 13.3328 458.446 13.4959C456.963 13.657 455.475 13.8181 453.988 13.9792C452.5 14.1406 452.484 16.5116 453.988 16.3481Z" fill="#F66640"/>
<path d="M449.311 9.31214C449.187 8.20155 449.271 7.1558 449.599 6.08789C450.047 4.62817 447.776 4.00401 447.332 5.45809C446.948 6.7068 446.812 8.0135 446.96 9.31214C447.032 9.94798 447.448 10.4968 448.136 10.4968C448.715 10.4968 449.383 9.952 449.311 9.31214Z" fill="#F66640"/>
<path d="M242.817 100.417C237.008 99.9682 231.177 101.032 225.915 103.565C223.951 104.51 220.006 106.208 219.431 108.578C218.87 110.886 221.44 112.601 223.253 113.34C225.977 114.451 229.112 114.827 232.004 115.245C235.413 115.739 238.855 116.029 242.301 115.93C245.358 115.842 248.556 115.597 251.511 114.751C253.629 114.143 255.859 112.98 255.988 110.509C256.071 108.925 251.797 107.082 251.704 108.877C251.601 110.852 249.316 111.563 247.71 111.925C245.242 112.482 242.712 112.77 240.185 112.841C235.196 112.982 230.234 112.338 225.366 111.278C224.914 111.179 224.252 111.153 223.858 110.936C223.845 110.929 223.832 110.923 223.818 110.92C223.729 110.898 223.642 110.871 223.556 110.84C223.507 110.822 223.513 110.755 223.563 110.742C223.591 110.736 223.608 110.709 223.606 110.681C223.534 109.801 225.311 108.812 225.865 108.441C227.686 107.224 229.638 106.196 231.678 105.408C235.913 103.774 240.42 103.157 244.933 103.506C245.932 103.583 246.196 102.787 245.738 102.023C245.175 101.084 243.863 100.498 242.817 100.417Z" fill="#F66640"/>
<path d="M247.346 104.008C251.239 103.676 255.171 104.467 258.421 106.731C260.095 107.897 261.712 109.415 260.971 111.658C260.268 113.788 258.273 115.016 256.274 115.704C249.805 117.93 238.176 119.101 236.553 110.052C236.254 108.386 231.912 106.942 232.335 109.295C233.261 114.466 237.912 118.249 242.705 119.712C248.264 121.409 255.46 120.702 260.722 118.246C263.072 117.15 265.144 115.201 265.463 112.479C265.805 109.557 263.592 107.215 261.483 105.565C256.934 102.005 251.08 100.226 245.34 100.715C242.596 100.949 245.617 104.155 247.346 104.008Z" fill="#F66640"/>
<path d="M235.365 108.856C234.436 107.863 233.163 107.079 231.799 106.892C231.224 106.813 230.518 106.834 230.056 107.236C229.851 107.414 229.779 107.55 229.87 107.828C229.98 108.163 230.241 108.459 230.502 108.685C230.803 108.947 231.137 109.172 231.484 109.37C231.909 109.614 232.568 109.908 233.074 109.932C233.629 109.959 234.184 109.986 234.74 110.013C235.007 110.026 235.493 110.072 235.659 109.765C235.817 109.474 235.538 109.05 235.369 108.852C235.005 108.424 234.533 108.069 234.04 107.809C233.559 107.555 232.999 107.273 232.449 107.246C231.893 107.219 231.612 107.906 232.027 108.277C232.494 108.694 232.961 109.111 233.427 109.528C233.641 109.719 233.962 109.708 234.233 109.617C234.129 109.644 234.024 109.671 233.919 109.698C233.973 109.684 234.027 109.67 234.083 109.662C234.161 109.65 234.389 109.68 234.128 109.647C233.255 109.537 232.417 109.055 231.815 108.412C232.21 108.834 232.636 109.176 233.145 109.455C233.6 109.705 234.206 109.975 234.735 110.017C235.029 110.041 235.484 110.084 235.655 109.769C235.814 109.476 235.549 109.053 235.365 108.856Z" fill="#F66640"/>
<path d="M253.661 107.277C253.275 107.134 252.888 106.991 252.501 106.849C252.063 106.687 251.345 106.633 250.905 106.84C250.439 107.059 250.242 107.356 250.088 107.848C249.667 109.193 250.614 110.675 251.605 111.496C252.801 112.488 254.636 113.097 256.12 112.413C257.115 111.955 257.124 110.79 256.459 110.013C255.781 109.22 254.407 108.496 253.351 108.982C253.282 109.018 253.21 109.048 253.135 109.071C253.416 109.013 253.484 108.992 253.339 109.01C253.249 109.018 253.237 109.022 253.303 109.022C253.335 109.022 253.631 109.031 253.663 109.037C253.874 109.089 253.896 109.089 253.729 109.038C254.125 109.221 254.213 109.255 253.992 109.139C254.101 109.214 254.209 109.289 254.318 109.364C254.255 109.317 254.194 109.267 254.137 109.214C254.392 109.485 254.463 109.553 254.35 109.418C254.312 109.374 254.277 109.328 254.244 109.28C254.282 109.341 254.313 109.392 254.339 109.432C254.354 109.456 254.444 109.67 254.453 109.696C254.431 109.624 254.415 109.551 254.404 109.476C254.405 109.513 254.406 109.551 254.406 109.588C254.408 109.661 254.404 109.71 254.416 109.637C254.436 109.507 254.304 109.34 254.182 109.39C253.861 109.523 253.54 109.656 253.219 109.789C252.812 109.957 252.823 110.537 253.236 110.689C254.065 110.995 255.563 110.817 255.649 109.691C255.741 108.501 254.653 107.643 253.661 107.277Z" fill="#F66640"/>
<path d="M157.664 89.591C168.182 88.7111 178.75 88.4752 189.297 88.9479C192.367 89.0856 190.619 85.6032 188.457 85.5062C177.551 85.0169 166.643 85.1953 155.763 86.1054C154.714 86.1932 154.296 87.0646 154.743 87.9855C155.221 88.968 156.595 89.6808 157.664 89.591Z" fill="#F66640"/>
<path d="M298.64 89.7337C309.84 89.5887 321.032 89.0902 332.201 88.2381C334.91 88.0316 331.792 84.9064 330.149 85.032C318.98 85.8837 307.788 86.3822 296.587 86.5276C295.585 86.5404 295.248 87.2906 295.72 88.1282C296.237 89.0487 297.603 89.7474 298.64 89.7337Z" fill="#F66640"/>
</g>
<defs>
<clipPath id="clip0_739_1742">
<rect width="500" height="172" fill="white"/>
</clipPath>
</defs>
</svg>
