<svg width="40" height="40" viewBox="0 0 40 40" fill="none" xmlns="http://www.w3.org/2000/svg">
<g clip-path="url(#clip0_545_378)">
<circle cx="20" cy="20" r="20" fill="#DB8652"/>
<path d="M19.9984 12.9151C23.9058 12.9151 27.0815 16.0905 27.0815 19.9982C27.0815 23.9059 23.9061 27.0813 19.9984 27.0813C16.0908 27.0813 12.9153 23.9059 12.9153 19.9982C12.9153 16.0905 16.0908 12.9151 19.9984 12.9151ZM19.9984 25.774V14.2224C16.8162 14.2224 14.2226 16.816 14.2226 19.9983C14.2226 23.1805 16.8162 25.7741 19.9984 25.7741V25.774Z" fill="white"/>
<path d="M19.9985 7.14285C20.3594 7.14285 20.6521 7.43558 20.6521 7.79646V11.0877C20.6521 11.4486 20.3594 11.7413 19.9985 11.7413C19.6376 11.7413 19.3449 11.4486 19.3449 11.0877V7.79646C19.3449 7.43559 19.6376 7.14285 19.9985 7.14285Z" fill="white"/>
<path d="M26.7613 14.1574C26.6354 14.2832 26.4652 14.348 26.2983 14.348C26.1316 14.348 25.9647 14.2834 25.8353 14.1574C25.5801 13.9022 25.5801 13.4869 25.8353 13.235L28.1667 10.9071C28.422 10.6519 28.8339 10.6519 29.0891 10.9071C29.3443 11.1624 29.3443 11.5776 29.0891 11.8295L26.7613 14.1574Z" fill="white"/>
<path d="M28.2589 19.9982C28.2589 19.6373 28.5517 19.3446 28.9125 19.3446H32.2038C32.5647 19.3446 32.8574 19.6373 32.8574 19.9982C32.8574 20.3591 32.5647 20.6518 32.2038 20.6518H28.9125C28.5484 20.6518 28.2589 20.3591 28.2589 19.9982Z" fill="white"/>
<path d="M26.7615 25.839L29.0893 28.1668C29.3446 28.4221 29.3446 28.834 29.0893 29.0892C28.9635 29.215 28.7933 29.2798 28.6264 29.2798C28.4597 29.2798 28.2928 29.2153 28.1634 29.0892L25.8353 26.7611C25.5801 26.5059 25.5801 26.0939 25.8353 25.8387C26.0943 25.5835 26.506 25.5835 26.7615 25.839L26.7615 25.839Z" fill="white"/>
<path d="M19.9985 28.2585C20.3594 28.2585 20.6521 28.5513 20.6521 28.9122V32.2034C20.6521 32.5643 20.3594 32.857 19.9985 32.857C19.6376 32.857 19.3449 32.5643 19.3449 32.2034V28.9122C19.3449 28.548 19.6376 28.2585 19.9985 28.2585Z" fill="white"/>
<path d="M13.2358 25.839C13.491 25.5837 13.903 25.5837 14.1582 25.839C14.4134 26.0942 14.4134 26.5061 14.1582 26.7613L11.8303 29.0892C11.7045 29.215 11.5343 29.2798 11.3674 29.2798C11.2007 29.2798 11.0338 29.2153 10.9044 29.0892C10.6492 28.834 10.6492 28.422 10.9044 28.1668L13.2358 25.839Z" fill="white"/>
<path d="M7.79683 19.3448H11.0881C11.449 19.3448 11.7417 19.6376 11.7417 19.9984C11.7417 20.3593 11.449 20.652 11.0881 20.652H7.79683C7.43596 20.652 7.14322 20.3593 7.14322 19.9984C7.14346 19.6376 7.43619 19.3448 7.79683 19.3448Z" fill="white"/>
<path d="M13.6954 14.3482C13.5287 14.3482 13.3618 14.2837 13.2324 14.1576L10.9043 11.8295C10.6491 11.5743 10.6491 11.1623 10.9043 10.9071C11.1595 10.6519 11.5715 10.6519 11.8267 10.9071L14.1548 13.2352C14.41 13.4904 14.41 13.9024 14.1548 14.1576C14.0323 14.287 13.862 14.3482 13.6954 14.3482H13.6954Z" fill="white"/>
</g>
<defs>
<clipPath id="clip0_545_378">
<rect width="40" height="40" fill="white"/>
</clipPath>
</defs>
</svg>
