<svg width="32" height="32" viewBox="0 0 32 32" fill="none" xmlns="http://www.w3.org/2000/svg">
<g clip-path="url(#clip0_1093_5758)">
<path d="M30.3327 6.04285C29.8065 5.33254 29.2847 4.61868 28.7808 3.89256C28.3833 3.32007 28.0409 2.70813 27.6229 2.15207C27.4111 1.94449 27.1692 1.76978 26.9057 1.63382C26.7303 1.83741 26.5901 2.06871 26.4903 2.31834C26.3863 2.86924 26.3168 3.42625 26.2823 3.98603C26.2513 4.35611 26.268 4.73019 26.2625 5.16199C25.2678 5.0906 24.3617 5.02744 23.4559 4.95981C22.3234 4.87528 21.1918 4.77407 20.0583 4.70667C19.5168 4.6745 19.4092 4.60664 19.4435 4.05155C19.4996 3.14232 19.5752 2.23405 19.6504 1.32596C19.6851 0.904695 19.5956 0.787051 19.184 0.760516C19.1042 0.75535 19.0246 0.743609 18.9447 0.737504C18.001 0.667759 17.0563 0.506911 16.1201 0.812881C15.7493 0.934048 15.3942 1.08974 15.3344 1.5075L15.3341 1.50774C15.3043 1.87899 15.3041 2.25213 15.3339 2.6234C15.3442 3.13273 15.3513 3.64252 15.3759 4.15114C15.3926 4.49493 15.2599 4.59801 14.9096 4.60388C13.9196 4.62102 12.9303 4.68606 11.9407 4.73397C10.7394 4.79221 9.53849 4.86876 8.33644 4.90516V4.90539C7.92973 4.92958 7.55165 5.12307 7.2943 5.43891C7.03694 5.75474 6.92351 6.16401 6.98175 6.56725C7.12312 7.47552 7.21752 8.39136 7.32037 9.30528C7.31074 9.43232 7.3523 9.55795 7.4359 9.65422C7.51926 9.7505 7.63785 9.80967 7.76489 9.81813C8.53207 9.9339 9.28933 10.1262 10.0591 10.2126C10.881 10.3047 11.712 10.3286 12.5398 10.3491C13.3537 10.369 14.1696 10.3725 14.9824 10.3343C15.4887 10.3106 15.5248 10.3106 15.5408 10.8281C15.568 11.7077 15.6007 12.5874 15.6439 13.4663C15.7009 14.6287 15.7773 15.7904 15.832 16.9527C15.8646 17.6461 15.8909 18.341 15.886 19.0347C15.8794 19.9436 15.8292 20.8522 15.8167 21.7611C15.809 22.332 15.8533 22.9038 15.844 23.4746C15.8329 24.1655 15.7594 24.8563 15.7679 25.5465C15.7803 26.5792 15.8395 27.6113 15.8806 28.6436C15.9057 29.2734 15.9224 29.9036 15.9665 30.532C15.9884 30.8438 16.1422 31.1698 15.7026 31.3342H15.7028C15.6347 31.4131 15.5911 31.5101 15.5774 31.6136C15.542 31.7763 15.4163 31.9043 15.2543 31.9431C15.0923 31.9818 14.9225 31.9243 14.8173 31.7951C14.3571 31.364 14.1161 31.3525 13.7207 31.8348C13.4798 32.1288 13.3513 32.0701 13.1323 31.8247C12.7927 31.4441 12.556 31.5042 12.3886 31.9856C12.3231 32.1741 12.3627 32.2991 12.6126 32.2779V32.2782C12.7467 32.2551 12.8845 32.2772 13.0047 32.3404C13.523 32.7379 13.527 32.7541 13.9645 32.2378C14.192 31.9694 14.3597 31.9635 14.6222 32.2072H14.6224C14.7854 32.3559 15.0035 32.4292 15.2233 32.4092C15.6143 32.3202 15.9569 32.0281 16.4047 32.2507H16.4045C16.5552 32.2561 16.7057 32.2397 16.8518 32.2023C17.2808 32.2281 17.7082 32.2906 18.1372 32.3066V32.3068C18.2683 32.2948 18.3894 32.2326 18.4758 32.1335C18.5493 32.0246 18.6055 31.9046 18.6421 31.778C19.324 32.3773 19.7324 32.388 20.1008 31.9349C20.3793 32.1687 20.6665 32.3559 21.0194 32.0462H21.0192C21.1004 32.0166 21.1913 32.0304 21.2599 32.083C21.3886 32.2117 21.5527 32.2988 21.7312 32.3331C21.9099 32.3676 22.0947 32.3477 22.2619 32.2761C22.3786 32.2425 22.5044 32.2643 22.6031 32.3355C22.7327 32.5247 22.8693 32.6755 23.0896 32.5381C23.2984 32.408 23.5647 32.2793 23.5214 31.9389C23.3512 31.9741 23.1749 31.9675 23.0077 31.9196C22.7658 31.7458 22.4556 31.6975 22.1724 31.7893C21.9977 31.8275 21.815 31.7949 21.6642 31.6989C21.4721 31.124 21.1554 31.4112 20.8423 31.5298C20.7308 31.5751 20.6066 31.5779 20.4932 31.538C20.3072 31.4314 20.1294 31.3107 19.962 31.1766C19.9648 30.9585 19.9866 30.6919 19.9679 30.4285C19.9214 29.7761 19.8286 29.1259 19.8058 28.4732C19.7777 27.6611 19.8819 26.8376 19.7847 26.0367C19.6201 24.6789 19.5832 23.3209 19.5529 21.9585C19.528 20.833 19.4745 19.7082 19.4423 18.583C19.4214 17.8466 19.3918 17.109 19.4111 16.3733C19.4264 15.7848 19.5478 15.1987 19.5548 14.6107C19.5712 13.2429 19.5536 11.8742 19.5344 10.5061V10.5063C19.5074 10.3945 19.5379 10.2767 19.6161 10.1919C19.6941 10.1073 19.8091 10.0674 19.9228 10.0853C21.1824 10.0324 22.4413 9.96317 23.7006 9.90563C24.2907 9.87863 24.8876 9.91033 25.469 9.82744C25.5804 9.78024 25.7079 9.79268 25.8081 9.86031C25.9082 9.92771 25.9676 10.0414 25.9655 10.1623C26.0693 10.8092 26.1427 11.4615 26.2627 12.1054V12.1052C26.2811 12.3154 26.3848 12.5086 26.5499 12.6399C26.7803 12.6598 27.0083 12.5809 27.1772 12.4229C27.4723 12.1322 27.7349 11.81 27.96 11.462C28.78 10.2311 29.5798 8.98653 30.3905 7.74901C30.8528 7.04291 30.8373 6.72448 30.3327 6.04303L30.3327 6.04285ZM16.1818 1.36217C17.0347 1.32178 17.888 1.30135 18.7423 1.30112C18.8769 1.33352 18.9851 1.43332 19.0281 1.56482C18.9987 2.56398 18.9398 3.56242 18.8874 4.5917C17.9326 4.57972 17.0882 4.57643 16.2445 4.54849V4.54873C16.1198 4.52806 16.0139 4.44564 15.9632 4.32964C15.9137 3.42113 15.8827 2.51118 15.8756 1.60147C15.9313 1.4756 16.0461 1.38567 16.1818 1.36219L16.1818 1.36217ZM19.4592 29.8521C19.4841 30.3887 19.4693 30.9272 19.4628 31.4644V31.4646C19.4557 31.5417 19.42 31.6133 19.363 31.6654C19.3026 31.6779 19.2399 31.6593 19.196 31.6159C19.007 31.2028 18.7428 31.4127 18.5007 31.5318C18.3356 31.6128 18.1849 31.7234 18.0334 31.8171C17.5779 31.3594 17.5779 31.3594 17.2073 31.7516C16.9892 31.6316 16.7685 31.5255 16.5672 31.3904C16.5029 31.3245 16.4672 31.2359 16.4677 31.1439C16.4153 30.206 16.3568 29.2684 16.3277 28.3296C16.2869 27.0078 16.2423 25.6853 16.2488 24.3632C16.2575 22.5837 16.3263 20.8045 16.3432 19.0248C16.3517 18.1444 16.3115 17.2631 16.2756 16.3831C16.2324 15.3271 16.1615 14.2723 16.1194 13.216C16.0852 12.3573 16.0819 11.4976 16.0525 10.6386H16.0523C16.0194 10.5207 16.0525 10.3941 16.1387 10.3073C16.2249 10.2204 16.3512 10.1866 16.4696 10.2185C17.1529 10.2253 17.8367 10.1856 18.52 10.1614C19.0209 10.1438 19.0747 10.1842 19.0831 10.6999C19.0906 11.1568 19.0669 11.6143 19.0714 12.0712C19.0803 12.9971 19.1214 13.9234 19.1078 14.8489C19.0918 15.9361 19.0094 17.0226 18.9995 18.1096C18.9932 18.8298 19.0838 19.5505 19.0953 20.2714C19.1134 21.3943 19.085 22.5179 19.1075 23.6409C19.1218 24.3488 19.1977 25.0552 19.2381 25.7627C19.3161 27.1259 19.3964 28.4888 19.4593 29.8521L19.4592 29.8521ZM29.8783 7.48722C29.4614 8.11842 29.1203 8.80011 28.6957 9.42542C28.1633 10.2093 27.5803 10.9583 27.0156 11.7201V11.7199C26.947 11.7828 26.8716 11.838 26.7908 11.8842C26.7601 11.652 26.7479 11.4745 26.7117 11.3021C26.5938 10.7418 26.4705 10.1827 26.3421 9.62482C26.3181 9.4966 26.2432 9.38366 26.134 9.31227C26.0251 9.24065 25.8917 9.21646 25.7647 9.24558C24.8428 9.31579 23.922 9.40479 22.9992 9.4541C21.9716 9.50905 20.9416 9.51938 19.9136 9.56541C17.8946 9.65582 15.8759 9.75257 13.8577 9.85565H13.8575C13.0332 9.88829 12.2079 9.86481 11.3866 9.78567C10.3483 9.86269 9.33735 9.5586 8.29665 9.41019C8.15552 9.4008 8.03647 9.30147 8.00195 9.16433C7.97307 9.11714 7.95217 9.06548 7.93972 9.01146C7.81151 8.28823 7.72604 7.55742 7.59054 6.83563C7.41983 5.92664 7.80024 5.42528 8.70783 5.38399C10.4967 5.30227 12.2844 5.18533 14.074 5.12521H14.0738C16.0707 5.01978 18.0723 5.05523 20.064 5.23112C21.6204 5.39807 23.1881 5.45936 24.7501 5.57255C25.3238 5.61411 25.8963 5.67023 26.4695 5.71861V5.71884C26.5684 5.74913 26.6759 5.72377 26.7504 5.65215C26.825 5.58076 26.8549 5.47439 26.8286 5.37436C26.8229 4.6727 26.8443 3.97057 26.8673 3.26915C26.8762 2.99582 26.9183 2.72343 26.945 2.45058L27.0603 2.4069C27.3031 2.74317 27.5497 3.07687 27.7878 3.4164C28.4869 4.41321 29.1775 5.41592 29.8822 6.40871C30.1922 6.84571 30.1734 7.04063 29.8785 7.48722L29.8783 7.48722Z" fill="#F66640" stroke="#F66640"/>
</g>
<defs>
<clipPath id="clip0_1093_5758">
<rect width="32" height="32" fill="white"/>
</clipPath>
</defs>
</svg>
