<svg width="1120" height="230" viewBox="0 0 1120 230" fill="none" xmlns="http://www.w3.org/2000/svg">
<path opacity="0.2" d="M13.92 23.88L5.664 24.168L3.984 34.2H0.816L1.632 21.336H31.536L32.112 34.2H29.088L27.504 24.168L19.2 23.88V54.168L26.016 54.648V57H7.68V54.648L13.92 54.168V23.88ZM39.2824 68.952C38.7384 68.952 38.1944 68.92 37.6504 68.856C37.1384 68.792 36.7704 68.696 36.5464 68.568V64.392C36.7384 64.52 37.1064 64.616 37.6504 64.68C38.2264 64.744 38.7704 64.776 39.2824 64.776C40.8184 64.776 42.1624 64.232 43.3144 63.144C44.4984 62.088 45.6344 60.04 46.7224 57H44.4184L35.2984 33.24L33.0904 32.616V30.36H44.6584V32.616L40.9624 33.192L45.6664 47.352L47.8744 54.36L49.9384 47.304L54.2104 33.192L50.9944 32.616V30.36H60.6424V32.616L58.2424 33.192C53.5384 47.592 50.7704 55.768 49.9384 57.72C48.8504 60.472 47.8584 62.616 46.9624 64.152C46.0664 65.72 45.0104 66.904 43.7944 67.704C42.5784 68.536 41.0744 68.952 39.2824 68.952ZM88.8311 42.744C88.8311 45.464 88.2711 47.96 87.1511 50.232C86.0311 52.472 84.4311 54.248 82.3511 55.56C80.2711 56.872 77.8391 57.528 75.0551 57.528C74.2871 57.528 73.4551 57.464 72.5591 57.336C71.6631 57.208 70.9431 57.048 70.3991 56.856L70.5431 60.888V65.736L75.5351 66.264V68.616H62.1431V66.264L65.5991 65.736V34.056L62.0951 33.192V30.6L68.9111 29.736H69.0071L70.0151 30.6V33.432C70.9751 32.376 72.1591 31.48 73.5671 30.744C75.0071 30.008 76.6071 29.64 78.3671 29.64C80.2551 29.64 81.9831 30.104 83.5511 31.032C85.1511 31.96 86.4311 33.4 87.3911 35.352C88.3511 37.304 88.8311 39.768 88.8311 42.744ZM76.3991 33C75.1831 33 74.0471 33.256 72.9911 33.768C71.9351 34.28 71.1191 34.84 70.5431 35.448V53.544C70.7671 53.928 71.3271 54.28 72.2231 54.6C73.1511 54.888 74.1591 55.032 75.2471 55.032C77.7111 55.032 79.6951 54.056 81.1991 52.104C82.7351 50.152 83.5031 47.208 83.5031 43.272C83.5031 39.816 82.8311 37.24 81.4871 35.544C80.1751 33.848 78.4791 33 76.3991 33ZM93.0038 43.608C93.0038 40.728 93.5958 38.232 94.7798 36.12C95.9638 34.008 97.5158 32.408 99.4358 31.32C101.388 30.2 103.468 29.64 105.676 29.64C109.708 29.64 112.732 30.92 114.748 33.48C116.796 36.04 117.82 39.4 117.82 43.56C117.82 46.472 117.228 48.984 116.044 51.096C114.86 53.208 113.292 54.808 111.34 55.896C109.42 56.984 107.356 57.528 105.148 57.528C101.116 57.528 98.0758 56.248 96.0278 53.688C94.0118 51.128 93.0038 47.768 93.0038 43.608ZM105.436 54.792C107.644 54.792 109.34 53.88 110.524 52.056C111.708 50.232 112.3 47.528 112.3 43.944C112.3 40.392 111.756 37.576 110.668 35.496C109.58 33.416 107.836 32.376 105.436 32.376C103.228 32.376 101.516 33.288 100.3 35.112C99.1158 36.936 98.5238 39.64 98.5238 43.224C98.5238 46.776 99.0838 49.592 100.204 51.672C101.324 53.752 103.068 54.792 105.436 54.792ZM133.679 69.96C129.583 69.96 126.607 69.304 124.751 67.992C122.927 66.712 122.015 64.936 122.015 62.664C122.015 61.256 122.447 59.96 123.311 58.776C124.207 57.592 125.263 56.696 126.479 56.088C125.007 55.256 124.271 53.912 124.271 52.056C124.271 50.904 124.607 49.816 125.279 48.792C125.951 47.768 126.831 46.984 127.919 46.44C126.319 45.736 125.087 44.728 124.223 43.416C123.391 42.104 122.975 40.552 122.975 38.76C122.975 36.904 123.487 35.288 124.511 33.912C125.567 32.536 126.943 31.48 128.639 30.744C130.367 30.008 132.191 29.64 134.111 29.64C137.343 29.64 139.871 30.312 141.695 31.656C142.175 31.176 142.911 30.712 143.903 30.264C144.895 29.816 145.951 29.592 147.071 29.592H148.703V33.816H143.423C144.191 35 144.575 36.376 144.575 37.944C144.575 39.832 144.095 41.512 143.135 42.984C142.207 44.424 140.895 45.544 139.199 46.344C137.535 47.144 135.647 47.544 133.535 47.544C132.159 47.544 130.927 47.4 129.839 47.112C129.391 47.56 129.023 48.056 128.735 48.6C128.447 49.144 128.303 49.672 128.303 50.184C128.303 51.336 128.687 52.136 129.455 52.584C130.223 53 131.599 53.208 133.583 53.208H139.007C142.111 53.208 144.415 53.8 145.919 54.984C147.423 56.168 148.175 57.848 148.175 60.024C148.175 61.848 147.519 63.512 146.207 65.016C144.895 66.552 143.119 67.752 140.879 68.616C138.671 69.512 136.271 69.96 133.679 69.96ZM134.015 44.904C137.663 44.904 139.487 42.744 139.487 38.424C139.487 36.28 139.007 34.712 138.047 33.72C137.119 32.696 135.711 32.184 133.823 32.184C132.063 32.184 130.671 32.68 129.647 33.672C128.623 34.632 128.111 36.184 128.111 38.328C128.111 40.344 128.591 41.944 129.551 43.128C130.543 44.312 132.031 44.904 134.015 44.904ZM134.111 67.176C135.679 67.176 137.151 66.936 138.527 66.456C139.935 66.008 141.071 65.32 141.935 64.392C142.799 63.496 143.231 62.44 143.231 61.224C143.231 59.784 142.847 58.728 142.079 58.056C141.311 57.416 139.823 57.096 137.615 57.096H131.951C130.671 57.096 129.663 57.016 128.927 56.856C127.615 58.296 126.959 59.912 126.959 61.704C126.959 63.496 127.503 64.856 128.591 65.784C129.679 66.712 131.519 67.176 134.111 67.176ZM151.459 54.648L155.059 54.36V34.056L151.603 33.192V30.6L158.227 29.736H158.323L159.379 30.6V31.464L159.235 35.208H159.379C159.699 34.664 160.275 33.96 161.107 33.096C161.939 32.232 163.011 31.448 164.323 30.744C165.635 30.008 167.059 29.64 168.595 29.64C169.235 29.64 169.763 29.72 170.179 29.88V35.256C169.955 35.096 169.587 34.952 169.075 34.824C168.595 34.664 168.051 34.584 167.443 34.584C164.787 34.584 162.323 35.4 160.051 37.032V54.312L166.147 54.696V57H151.459V54.648ZM173.348 49.8C173.348 46.792 174.852 44.584 177.86 43.176C180.868 41.736 184.676 40.968 189.284 40.872V39.528C189.284 38.024 189.124 36.84 188.804 35.976C188.484 35.112 187.924 34.488 187.124 34.104C186.356 33.688 185.252 33.48 183.812 33.48C182.18 33.48 180.708 33.72 179.396 34.2C178.116 34.648 176.836 35.208 175.556 35.88L174.355 33.384C174.772 33.032 175.54 32.568 176.66 31.992C177.78 31.416 179.076 30.904 180.548 30.456C182.02 30.008 183.492 29.784 184.964 29.784C187.236 29.784 189.028 30.104 190.34 30.744C191.684 31.352 192.644 32.344 193.22 33.72C193.796 35.096 194.084 36.936 194.084 39.24V54.648H196.916V56.76C196.276 56.92 195.46 57.08 194.468 57.24C193.508 57.4 192.66 57.48 191.924 57.48C191.028 57.48 190.42 57.336 190.1 57.048C189.78 56.792 189.62 56.2 189.62 55.272V53.688C188.66 54.648 187.476 55.528 186.068 56.328C184.692 57.128 183.124 57.528 181.364 57.528C179.06 57.528 177.14 56.872 175.604 55.56C174.1 54.216 173.348 52.296 173.348 49.8ZM183.428 54.264C184.26 54.264 185.22 54.008 186.308 53.496C187.396 52.984 188.388 52.376 189.284 51.672V43.416C185.796 43.416 183.156 43.96 181.364 45.048C179.604 46.104 178.724 47.496 178.724 49.224C178.724 50.952 179.14 52.232 179.972 53.064C180.836 53.864 181.988 54.264 183.428 54.264ZM226.222 42.744C226.222 45.464 225.662 47.96 224.542 50.232C223.422 52.472 221.822 54.248 219.742 55.56C217.662 56.872 215.23 57.528 212.446 57.528C211.678 57.528 210.846 57.464 209.95 57.336C209.054 57.208 208.334 57.048 207.79 56.856L207.934 60.888V65.736L212.926 66.264V68.616H199.534V66.264L202.99 65.736V34.056L199.486 33.192V30.6L206.302 29.736H206.398L207.406 30.6V33.432C208.366 32.376 209.55 31.48 210.958 30.744C212.398 30.008 213.998 29.64 215.758 29.64C217.646 29.64 219.374 30.104 220.942 31.032C222.542 31.96 223.822 33.4 224.782 35.352C225.742 37.304 226.222 39.768 226.222 42.744ZM213.79 33C212.574 33 211.438 33.256 210.382 33.768C209.326 34.28 208.51 34.84 207.934 35.448V53.544C208.158 53.928 208.718 54.28 209.614 54.6C210.542 54.888 211.55 55.032 212.638 55.032C215.102 55.032 217.086 54.056 218.59 52.104C220.126 50.152 220.894 47.208 220.894 43.272C220.894 39.816 220.222 37.24 218.878 35.544C217.566 33.848 215.87 33 213.79 33ZM232.986 21.192L228.954 20.664V18.6L236.778 17.688H236.874L237.93 18.408V29.544L237.738 33.624C238.762 32.696 240.17 31.816 241.962 30.984C243.754 30.152 245.562 29.736 247.386 29.736C249.402 29.736 250.97 30.12 252.09 30.888C253.21 31.656 253.994 32.84 254.442 34.44C254.89 36.008 255.114 38.136 255.114 40.824V54.216L258.474 54.648V57H247.002V54.648L250.122 54.216V40.776C250.122 38.888 249.994 37.416 249.738 36.36C249.482 35.272 249.002 34.472 248.298 33.96C247.594 33.416 246.538 33.144 245.13 33.144C243.978 33.144 242.746 33.432 241.434 34.008C240.122 34.584 238.97 35.256 237.978 36.024V54.216L241.29 54.648V57H230.106V54.648L232.986 54.264V21.192ZM265.923 68.952C265.379 68.952 264.835 68.92 264.291 68.856C263.779 68.792 263.411 68.696 263.187 68.568V64.392C263.379 64.52 263.747 64.616 264.291 64.68C264.867 64.744 265.411 64.776 265.923 64.776C267.459 64.776 268.803 64.232 269.955 63.144C271.139 62.088 272.275 60.04 273.363 57H271.059L261.939 33.24L259.731 32.616V30.36H271.299V32.616L267.603 33.192L272.307 47.352L274.515 54.36L276.579 47.304L280.851 33.192L277.635 32.616V30.36H287.283V32.616L284.883 33.192C280.179 47.592 277.411 55.768 276.579 57.72C275.491 60.472 274.499 62.616 273.603 64.152C272.707 65.72 271.651 66.904 270.435 67.704C269.219 68.536 267.715 68.952 265.923 68.952Z" fill="#222222"/>
<path d="M4.192 132.224C3.70133 132.224 3.31733 132.085 3.04 131.808C2.76267 131.531 2.624 131.136 2.624 130.624V110.88C2.624 110.347 2.752 109.941 3.008 109.664C3.28533 109.365 3.648 109.216 4.096 109.216C4.48 109.216 4.768 109.291 4.96 109.44C5.17333 109.568 5.41867 109.813 5.696 110.176L18.88 127.552H18.08V110.784C18.08 110.293 18.208 109.909 18.464 109.632C18.7413 109.355 19.1253 109.216 19.616 109.216C20.128 109.216 20.512 109.355 20.768 109.632C21.024 109.909 21.152 110.293 21.152 110.784V130.656C21.152 131.147 21.024 131.531 20.768 131.808C20.5333 132.085 20.2133 132.224 19.808 132.224C19.424 132.224 19.104 132.149 18.848 132C18.6133 131.851 18.3573 131.595 18.08 131.232L4.96 113.888H5.696V130.624C5.696 131.136 5.568 131.531 5.312 131.808C5.056 132.085 4.68267 132.224 4.192 132.224ZM31.6213 132.288C30.3626 132.288 29.3066 132.053 28.4533 131.584C27.6213 131.115 26.9919 130.421 26.5653 129.504C26.1599 128.565 25.9573 127.392 25.9573 125.984V117.792C25.9573 117.237 26.0959 116.832 26.3733 116.576C26.6506 116.299 27.0453 116.16 27.5573 116.16C28.0693 116.16 28.4639 116.299 28.7413 116.576C29.0399 116.832 29.1893 117.237 29.1893 117.792V126.016C29.1893 127.275 29.4453 128.203 29.9573 128.8C30.4693 129.397 31.2799 129.696 32.3893 129.696C33.6053 129.696 34.5866 129.291 35.3333 128.48C36.1013 127.648 36.4853 126.56 36.4853 125.216V117.792C36.4853 117.237 36.6239 116.832 36.9013 116.576C37.1786 116.299 37.5839 116.16 38.1173 116.16C38.6293 116.16 39.0239 116.299 39.3013 116.576C39.5786 116.832 39.7173 117.237 39.7173 117.792V130.592C39.7173 131.68 39.1946 132.224 38.1493 132.224C37.6586 132.224 37.2746 132.085 36.9973 131.808C36.7199 131.509 36.5813 131.104 36.5813 130.592V127.872L36.9973 128.576C36.5706 129.771 35.8879 130.688 34.9493 131.328C34.0106 131.968 32.9013 132.288 31.6213 132.288ZM45.872 132.224C45.36 132.224 44.9653 132.085 44.688 131.808C44.4107 131.509 44.272 131.104 44.272 130.592V117.792C44.272 117.259 44.4107 116.853 44.688 116.576C44.9653 116.299 45.3493 116.16 45.84 116.16C46.352 116.16 46.736 116.299 46.992 116.576C47.2693 116.853 47.408 117.259 47.408 117.792V120.288L47.056 119.712C47.5253 118.517 48.2613 117.621 49.264 117.024C50.2667 116.405 51.4187 116.096 52.72 116.096C53.9573 116.096 54.9813 116.331 55.792 116.8C56.624 117.248 57.2427 117.941 57.648 118.88C58.0533 119.797 58.256 120.96 58.256 122.368V130.592C58.256 131.104 58.1173 131.509 57.84 131.808C57.5627 132.085 57.168 132.224 56.656 132.224C56.1227 132.224 55.7173 132.085 55.44 131.808C55.1627 131.509 55.024 131.104 55.024 130.592V122.56C55.024 121.216 54.7573 120.235 54.224 119.616C53.712 118.997 52.9013 118.688 51.792 118.688C50.4907 118.688 49.4453 119.093 48.656 119.904C47.888 120.715 47.504 121.803 47.504 123.168V130.592C47.504 131.68 46.96 132.224 45.872 132.224ZM64.3095 132.192C63.7975 132.192 63.4028 132.043 63.1255 131.744C62.8482 131.424 62.7095 130.987 62.7095 130.432V117.952C62.7095 117.397 62.8482 116.971 63.1255 116.672C63.4028 116.373 63.7975 116.224 64.3095 116.224C64.8215 116.224 65.2162 116.373 65.4935 116.672C65.7922 116.971 65.9415 117.397 65.9415 117.952V130.432C65.9415 130.987 65.8028 131.424 65.5255 131.744C65.2482 132.043 64.8428 132.192 64.3095 132.192ZM64.3095 112.896C63.6695 112.896 63.1682 112.736 62.8055 112.416C62.4642 112.096 62.2935 111.648 62.2935 111.072C62.2935 110.475 62.4642 110.027 62.8055 109.728C63.1682 109.408 63.6695 109.248 64.3095 109.248C64.9495 109.248 65.4402 109.408 65.7815 109.728C66.1442 110.027 66.3255 110.475 66.3255 111.072C66.3255 111.648 66.1442 112.096 65.7815 112.416C65.4402 112.736 64.9495 112.896 64.3095 112.896ZM77.1468 132.288C75.8668 132.288 74.7894 132.064 73.9148 131.616C73.0401 131.168 72.3894 130.507 71.9628 129.632C71.5361 128.757 71.3228 127.691 71.3228 126.432V118.88H69.4028C68.9761 118.88 68.6454 118.773 68.4108 118.56C68.1761 118.325 68.0587 118.016 68.0587 117.632C68.0587 117.227 68.1761 116.917 68.4108 116.704C68.6454 116.491 68.9761 116.384 69.4028 116.384H71.3228V113.088C71.3228 112.555 71.4614 112.149 71.7388 111.872C72.0374 111.595 72.4428 111.456 72.9548 111.456C73.4668 111.456 73.8614 111.595 74.1388 111.872C74.4161 112.149 74.5548 112.555 74.5548 113.088V116.384H78.2988C78.7254 116.384 79.0561 116.491 79.2908 116.704C79.5254 116.917 79.6428 117.227 79.6428 117.632C79.6428 118.016 79.5254 118.325 79.2908 118.56C79.0561 118.773 78.7254 118.88 78.2988 118.88H74.5548V126.176C74.5548 127.307 74.7894 128.16 75.2588 128.736C75.7494 129.312 76.5388 129.6 77.6267 129.6C78.0108 129.6 78.3414 129.568 78.6188 129.504C78.9174 129.419 79.1628 129.365 79.3548 129.344C79.5894 129.344 79.7814 129.429 79.9308 129.6C80.0801 129.749 80.1548 130.048 80.1548 130.496C80.1548 130.816 80.0908 131.115 79.9628 131.392C79.8561 131.669 79.6534 131.851 79.3548 131.936C79.0988 132.021 78.7468 132.096 78.2988 132.16C77.8721 132.245 77.4881 132.288 77.1468 132.288ZM88.806 132.288C87.2273 132.288 85.862 131.957 84.71 131.296C83.5793 130.635 82.694 129.696 82.054 128.48C81.414 127.264 81.094 125.835 81.094 124.192C81.094 122.933 81.2753 121.813 81.638 120.832C82.0007 119.851 82.5127 119.008 83.174 118.304C83.8567 117.579 84.6673 117.035 85.606 116.672C86.566 116.288 87.6327 116.096 88.806 116.096C90.3633 116.096 91.7073 116.427 92.838 117.088C93.99 117.749 94.886 118.688 95.526 119.904C96.166 121.099 96.486 122.528 96.486 124.192C96.486 125.429 96.3047 126.549 95.942 127.552C95.5793 128.555 95.0567 129.408 94.374 130.112C93.7127 130.816 92.902 131.36 91.942 131.744C91.0033 132.107 89.958 132.288 88.806 132.288ZM88.806 129.792C89.6807 129.792 90.4487 129.579 91.11 129.152C91.7713 128.725 92.2833 128.096 92.646 127.264C93.03 126.432 93.222 125.408 93.222 124.192C93.222 122.357 92.8167 120.971 92.006 120.032C91.1953 119.093 90.1287 118.624 88.806 118.624C87.91 118.624 87.1313 118.837 86.47 119.264C85.8087 119.669 85.286 120.288 84.902 121.12C84.5393 121.952 84.358 122.976 84.358 124.192C84.358 126.005 84.7633 127.392 85.574 128.352C86.3847 129.312 87.462 129.792 88.806 129.792Z" fill="#222222"/>
<path d="M304.64 132C303.936 132 303.392 131.819 303.008 131.456C302.645 131.072 302.464 130.528 302.464 129.824V111.616C302.464 110.912 302.645 110.379 303.008 110.016C303.392 109.632 303.936 109.44 304.64 109.44H312.32C313.899 109.44 315.243 109.675 316.352 110.144C317.461 110.613 318.304 111.285 318.88 112.16C319.477 113.035 319.776 114.08 319.776 115.296C319.776 116.661 319.381 117.813 318.592 118.752C317.803 119.691 316.725 120.32 315.36 120.64V120.16C316.939 120.395 318.165 120.992 319.04 121.952C319.915 122.912 320.352 124.16 320.352 125.696C320.352 127.701 319.669 129.259 318.304 130.368C316.96 131.456 315.083 132 312.672 132H304.64ZM306.4 128.896H312.16C313.611 128.896 314.677 128.619 315.36 128.064C316.043 127.488 316.384 126.635 316.384 125.504C316.384 124.352 316.043 123.499 315.36 122.944C314.677 122.389 313.611 122.112 312.16 122.112H306.4V128.896ZM306.4 119.008H311.616C313.024 119.008 314.069 118.741 314.752 118.208C315.456 117.653 315.808 116.843 315.808 115.776C315.808 114.709 315.456 113.909 314.752 113.376C314.069 112.821 313.024 112.544 311.616 112.544H306.4V119.008ZM331.247 132.32C329.626 132.32 328.218 131.989 327.023 131.328C325.829 130.667 324.901 129.728 324.239 128.512C323.578 127.275 323.247 125.824 323.247 124.16C323.247 122.901 323.429 121.781 323.791 120.8C324.175 119.797 324.719 118.944 325.423 118.24C326.127 117.515 326.97 116.971 327.951 116.608C328.933 116.224 330.031 116.032 331.247 116.032C332.869 116.032 334.277 116.363 335.471 117.024C336.666 117.685 337.594 118.624 338.255 119.84C338.917 121.056 339.247 122.496 339.247 124.16C339.247 125.419 339.055 126.549 338.671 127.552C338.309 128.555 337.775 129.419 337.071 130.144C336.367 130.848 335.525 131.392 334.543 131.776C333.562 132.139 332.463 132.32 331.247 132.32ZM331.247 129.28C332.037 129.28 332.73 129.088 333.327 128.704C333.925 128.32 334.383 127.755 334.703 127.008C335.045 126.24 335.215 125.291 335.215 124.16C335.215 122.453 334.853 121.184 334.127 120.352C333.402 119.499 332.442 119.072 331.247 119.072C330.458 119.072 329.765 119.264 329.167 119.648C328.57 120.011 328.101 120.576 327.759 121.344C327.439 122.091 327.279 123.029 327.279 124.16C327.279 125.845 327.642 127.125 328.367 128C329.093 128.853 330.053 129.28 331.247 129.28ZM347.893 132.32C346.122 132.32 344.789 131.819 343.893 130.816C342.997 129.792 342.549 128.299 342.549 126.336V111.2C342.549 110.539 342.719 110.037 343.061 109.696C343.402 109.355 343.893 109.184 344.533 109.184C345.173 109.184 345.663 109.355 346.005 109.696C346.367 110.037 346.549 110.539 346.549 111.2V126.144C346.549 127.125 346.751 127.851 347.157 128.32C347.583 128.789 348.181 129.024 348.949 129.024C349.119 129.024 349.279 129.024 349.429 129.024C349.578 129.003 349.727 128.981 349.877 128.96C350.175 128.917 350.378 129.003 350.485 129.216C350.591 129.408 350.645 129.813 350.645 130.432C350.645 130.965 350.538 131.381 350.325 131.68C350.111 131.979 349.759 132.16 349.269 132.224C349.055 132.245 348.831 132.267 348.597 132.288C348.362 132.309 348.127 132.32 347.893 132.32ZM358.627 132.32C357.262 132.32 356.057 131.989 355.011 131.328C353.987 130.667 353.187 129.728 352.611 128.512C352.035 127.275 351.747 125.824 351.747 124.16C351.747 122.475 352.035 121.035 352.611 119.84C353.187 118.624 353.987 117.685 355.011 117.024C356.057 116.363 357.262 116.032 358.627 116.032C359.929 116.032 361.059 116.352 362.019 116.992C363.001 117.632 363.662 118.475 364.003 119.52H363.651V111.2C363.651 110.539 363.822 110.037 364.163 109.696C364.505 109.355 364.995 109.184 365.635 109.184C366.275 109.184 366.766 109.355 367.107 109.696C367.47 110.037 367.651 110.539 367.651 111.2V130.208C367.651 130.869 367.481 131.381 367.139 131.744C366.798 132.085 366.307 132.256 365.667 132.256C365.027 132.256 364.537 132.085 364.195 131.744C363.854 131.381 363.683 130.869 363.683 130.208V127.712L364.035 128.672C363.715 129.781 363.065 130.667 362.083 131.328C361.102 131.989 359.95 132.32 358.627 132.32ZM359.747 129.28C360.537 129.28 361.23 129.088 361.827 128.704C362.425 128.32 362.883 127.755 363.203 127.008C363.545 126.24 363.715 125.291 363.715 124.16C363.715 122.453 363.353 121.184 362.627 120.352C361.902 119.499 360.942 119.072 359.747 119.072C358.958 119.072 358.265 119.264 357.667 119.648C357.07 120.011 356.601 120.576 356.259 121.344C355.939 122.091 355.779 123.029 355.779 124.16C355.779 125.845 356.142 127.125 356.867 128C357.593 128.853 358.553 129.28 359.747 129.28Z" fill="#222222"/>
<path d="M476.144 132.288C475.163 132.288 474.203 132.213 473.264 132.064C472.325 131.915 471.44 131.691 470.608 131.392C469.776 131.072 469.029 130.688 468.368 130.24C468.048 130.005 467.824 129.739 467.696 129.44C467.589 129.141 467.557 128.853 467.6 128.576C467.664 128.277 467.792 128.021 467.984 127.808C468.176 127.595 468.411 127.467 468.688 127.424C468.965 127.36 469.275 127.445 469.616 127.68C470.576 128.299 471.589 128.757 472.656 129.056C473.723 129.333 474.885 129.472 476.144 129.472C477.957 129.472 479.291 129.152 480.144 128.512C481.019 127.851 481.456 126.997 481.456 125.952C481.456 125.099 481.147 124.427 480.528 123.936C479.909 123.424 478.875 123.019 477.424 122.72L474 122.016C471.973 121.589 470.459 120.885 469.456 119.904C468.475 118.923 467.984 117.6 467.984 115.936C467.984 114.933 468.187 114.016 468.592 113.184C469.019 112.352 469.605 111.637 470.352 111.04C471.099 110.421 471.995 109.952 473.04 109.632C474.085 109.312 475.227 109.152 476.464 109.152C477.787 109.152 479.024 109.323 480.176 109.664C481.349 110.005 482.395 110.528 483.312 111.232C483.589 111.424 483.771 111.669 483.856 111.968C483.963 112.245 483.984 112.523 483.92 112.8C483.877 113.077 483.76 113.312 483.568 113.504C483.376 113.696 483.131 113.813 482.832 113.856C482.533 113.877 482.203 113.771 481.84 113.536C481.008 112.981 480.155 112.587 479.28 112.352C478.427 112.096 477.477 111.968 476.432 111.968C475.387 111.968 474.469 112.128 473.68 112.448C472.912 112.768 472.315 113.216 471.888 113.792C471.483 114.368 471.28 115.051 471.28 115.84C471.28 116.736 471.568 117.451 472.144 117.984C472.72 118.517 473.68 118.923 475.024 119.2L478.416 119.904C480.549 120.352 482.139 121.045 483.184 121.984C484.229 122.923 484.752 124.171 484.752 125.728C484.752 126.731 484.549 127.637 484.144 128.448C483.739 129.237 483.163 129.92 482.416 130.496C481.669 131.072 480.763 131.52 479.696 131.84C478.651 132.139 477.467 132.288 476.144 132.288ZM495.506 132.288C493.8 132.288 492.328 131.968 491.09 131.328C489.874 130.667 488.925 129.739 488.242 128.544C487.581 127.328 487.25 125.888 487.25 124.224C487.25 122.603 487.581 121.184 488.242 119.968C488.904 118.752 489.81 117.803 490.962 117.12C492.114 116.437 493.426 116.096 494.898 116.096C495.986 116.096 496.957 116.277 497.81 116.64C498.664 116.981 499.389 117.493 499.986 118.176C500.605 118.837 501.064 119.648 501.362 120.608C501.682 121.568 501.842 122.645 501.842 123.84C501.842 124.203 501.736 124.48 501.522 124.672C501.309 124.843 500.989 124.928 500.562 124.928H489.81V122.944H499.666L499.122 123.392C499.122 122.325 498.962 121.419 498.642 120.672C498.344 119.925 497.885 119.36 497.266 118.976C496.669 118.571 495.922 118.368 495.026 118.368C494.024 118.368 493.17 118.603 492.466 119.072C491.784 119.541 491.261 120.192 490.898 121.024C490.536 121.856 490.354 122.827 490.354 123.936V124.128C490.354 126.005 490.792 127.424 491.666 128.384C492.562 129.323 493.853 129.792 495.538 129.792C496.178 129.792 496.85 129.707 497.554 129.536C498.28 129.365 498.962 129.077 499.602 128.672C499.965 128.459 500.285 128.363 500.562 128.384C500.861 128.405 501.096 128.501 501.266 128.672C501.458 128.843 501.576 129.056 501.618 129.312C501.661 129.568 501.618 129.835 501.49 130.112C501.362 130.368 501.138 130.603 500.818 130.816C500.093 131.307 499.25 131.68 498.29 131.936C497.33 132.171 496.402 132.288 495.506 132.288ZM507.03 132.224C506.518 132.224 506.123 132.085 505.846 131.808C505.568 131.509 505.43 131.104 505.43 130.592V117.792C505.43 117.259 505.568 116.853 505.846 116.576C506.123 116.299 506.507 116.16 506.998 116.16C507.51 116.16 507.894 116.299 508.15 116.576C508.427 116.853 508.566 117.259 508.566 117.792V120.416L508.214 119.712C508.64 118.581 509.302 117.696 510.198 117.056C511.094 116.416 512.171 116.096 513.43 116.096C514.731 116.096 515.787 116.405 516.598 117.024C517.408 117.643 517.963 118.592 518.262 119.872H517.814C518.219 118.699 518.912 117.781 519.894 117.12C520.875 116.437 522.016 116.096 523.318 116.096C524.512 116.096 525.494 116.331 526.262 116.8C527.03 117.248 527.606 117.941 527.99 118.88C528.374 119.797 528.566 120.96 528.566 122.368V130.592C528.566 131.104 528.416 131.509 528.118 131.808C527.84 132.085 527.446 132.224 526.934 132.224C526.422 132.224 526.027 132.085 525.75 131.808C525.472 131.509 525.334 131.104 525.334 130.592V122.528C525.334 121.205 525.099 120.235 524.63 119.616C524.182 118.997 523.435 118.688 522.39 118.688C521.216 118.688 520.288 119.093 519.606 119.904C518.923 120.715 518.582 121.835 518.582 123.264V130.592C518.582 131.104 518.443 131.509 518.166 131.808C517.888 132.085 517.494 132.224 516.982 132.224C516.47 132.224 516.064 132.085 515.766 131.808C515.488 131.509 515.35 131.104 515.35 130.592V122.528C515.35 121.205 515.126 120.235 514.678 119.616C514.23 118.997 513.483 118.688 512.438 118.688C511.264 118.688 510.336 119.093 509.654 119.904C508.992 120.715 508.662 121.835 508.662 123.264V130.592C508.662 131.68 508.118 132.224 507.03 132.224ZM534.685 132.192C534.173 132.192 533.778 132.043 533.501 131.744C533.223 131.424 533.085 130.987 533.085 130.432V117.952C533.085 117.397 533.223 116.971 533.501 116.672C533.778 116.373 534.173 116.224 534.685 116.224C535.197 116.224 535.591 116.373 535.869 116.672C536.167 116.971 536.317 117.397 536.317 117.952V130.432C536.317 130.987 536.178 131.424 535.901 131.744C535.623 132.043 535.218 132.192 534.685 132.192ZM534.685 112.896C534.045 112.896 533.543 112.736 533.181 112.416C532.839 112.096 532.669 111.648 532.669 111.072C532.669 110.475 532.839 110.027 533.181 109.728C533.543 109.408 534.045 109.248 534.685 109.248C535.325 109.248 535.815 109.408 536.157 109.728C536.519 110.027 536.701 110.475 536.701 111.072C536.701 111.648 536.519 112.096 536.157 112.416C535.815 112.736 535.325 112.896 534.685 112.896ZM543.01 132C542.434 132 541.986 131.851 541.666 131.552C541.367 131.232 541.218 130.784 541.218 130.208V111.232C541.218 110.656 541.367 110.219 541.666 109.92C541.986 109.6 542.434 109.44 543.01 109.44H550.626C552.183 109.44 553.506 109.675 554.594 110.144C555.703 110.613 556.546 111.285 557.122 112.16C557.719 113.035 558.018 114.091 558.018 115.328C558.018 116.693 557.612 117.845 556.802 118.784C555.991 119.723 554.892 120.352 553.506 120.672V120.192C555.084 120.405 556.322 121.003 557.218 121.984C558.114 122.944 558.562 124.203 558.562 125.76C558.562 127.765 557.9 129.312 556.578 130.4C555.255 131.467 553.399 132 551.01 132H543.01ZM544.418 129.44H550.626C552.226 129.44 553.41 129.131 554.178 128.512C554.946 127.872 555.33 126.912 555.33 125.632C555.33 124.352 554.946 123.403 554.178 122.784C553.41 122.165 552.226 121.856 550.626 121.856H544.418V129.44ZM544.418 119.296H550.114C551.65 119.296 552.812 118.987 553.602 118.368C554.391 117.749 554.786 116.843 554.786 115.648C554.786 114.453 554.391 113.547 553.602 112.928C552.812 112.309 551.65 112 550.114 112H544.418V119.296ZM569.462 132.288C567.884 132.288 566.518 131.957 565.366 131.296C564.236 130.635 563.35 129.696 562.71 128.48C562.07 127.264 561.75 125.835 561.75 124.192C561.75 122.933 561.932 121.813 562.294 120.832C562.657 119.851 563.169 119.008 563.83 118.304C564.513 117.579 565.324 117.035 566.262 116.672C567.222 116.288 568.289 116.096 569.462 116.096C571.02 116.096 572.364 116.427 573.494 117.088C574.646 117.749 575.542 118.688 576.182 119.904C576.822 121.099 577.142 122.528 577.142 124.192C577.142 125.429 576.961 126.549 576.598 127.552C576.236 128.555 575.713 129.408 575.03 130.112C574.369 130.816 573.558 131.36 572.598 131.744C571.66 132.107 570.614 132.288 569.462 132.288ZM569.462 129.792C570.337 129.792 571.105 129.579 571.766 129.152C572.428 128.725 572.94 128.096 573.302 127.264C573.686 126.432 573.878 125.408 573.878 124.192C573.878 122.357 573.473 120.971 572.662 120.032C571.852 119.093 570.785 118.624 569.462 118.624C568.566 118.624 567.788 118.837 567.126 119.264C566.465 119.669 565.942 120.288 565.558 121.12C565.196 121.952 565.014 122.976 565.014 124.192C565.014 126.005 565.42 127.392 566.23 128.352C567.041 129.312 568.118 129.792 569.462 129.792ZM585.796 132.288C584.132 132.288 582.873 131.808 582.02 130.848C581.188 129.867 580.772 128.459 580.772 126.624V110.848C580.772 110.315 580.911 109.909 581.188 109.632C581.465 109.355 581.86 109.216 582.372 109.216C582.884 109.216 583.279 109.355 583.556 109.632C583.855 109.909 584.004 110.315 584.004 110.848V126.432C584.004 127.499 584.217 128.299 584.644 128.832C585.092 129.344 585.732 129.6 586.564 129.6C586.756 129.6 586.927 129.6 587.076 129.6C587.225 129.579 587.375 129.557 587.524 129.536C587.78 129.515 587.961 129.589 588.068 129.76C588.175 129.909 588.228 130.229 588.228 130.72C588.228 131.168 588.132 131.52 587.94 131.776C587.748 132.011 587.439 132.16 587.012 132.224C586.82 132.245 586.617 132.256 586.404 132.256C586.191 132.277 585.988 132.288 585.796 132.288ZM596.349 132.288C594.984 132.288 593.778 131.968 592.733 131.328C591.709 130.667 590.909 129.728 590.333 128.512C589.757 127.275 589.469 125.835 589.469 124.192C589.469 122.507 589.757 121.067 590.333 119.872C590.909 118.677 591.709 117.749 592.733 117.088C593.778 116.427 594.984 116.096 596.349 116.096C597.714 116.096 598.888 116.437 599.869 117.12C600.872 117.781 601.544 118.677 601.885 119.808H601.533V110.848C601.533 110.315 601.672 109.909 601.949 109.632C602.226 109.355 602.621 109.216 603.133 109.216C603.645 109.216 604.04 109.355 604.317 109.632C604.616 109.909 604.765 110.315 604.765 110.848V130.592C604.765 131.104 604.626 131.509 604.349 131.808C604.072 132.085 603.677 132.224 603.165 132.224C602.653 132.224 602.258 132.085 601.981 131.808C601.704 131.509 601.565 131.104 601.565 130.592V127.776L601.917 128.48C601.576 129.632 600.904 130.56 599.901 131.264C598.92 131.947 597.736 132.288 596.349 132.288ZM597.181 129.792C598.056 129.792 598.824 129.579 599.485 129.152C600.146 128.725 600.658 128.096 601.021 127.264C601.405 126.432 601.597 125.408 601.597 124.192C601.597 122.357 601.192 120.971 600.381 120.032C599.57 119.093 598.504 118.624 597.181 118.624C596.285 118.624 595.506 118.837 594.845 119.264C594.184 119.669 593.661 120.288 593.277 121.12C592.914 121.952 592.733 122.976 592.733 124.192C592.733 126.005 593.138 127.392 593.949 128.352C594.76 129.312 595.837 129.792 597.181 129.792Z" fill="#222222"/>
<path d="M541.76 130.12C539.52 130.12 537.7 129.607 536.3 128.58C534.993 127.553 534.2 126.2 533.92 124.52C533.64 122.747 533.967 120.787 534.9 118.64L571.86 36.74C573.073 34.0333 574.52 32.12 576.2 31C577.973 29.7867 579.98 29.18 582.22 29.18C584.367 29.18 586.28 29.7867 587.96 31C589.733 32.12 591.227 34.0333 592.44 36.74L629.54 118.64C630.567 120.787 630.94 122.747 630.66 124.52C630.38 126.293 629.587 127.693 628.28 128.72C626.973 129.653 625.247 130.12 623.1 130.12C620.487 130.12 618.433 129.513 616.94 128.3C615.54 126.993 614.28 125.033 613.16 122.42L604.06 101.28L611.62 106.18H552.54L560.1 101.28L551.14 122.42C549.927 125.127 548.667 127.087 547.36 128.3C546.053 129.513 544.187 130.12 541.76 130.12ZM581.94 49.76L562.34 96.38L558.7 91.9H605.46L601.96 96.38L582.22 49.76H581.94ZM665.82 130.4C660.873 130.4 656.44 129.467 652.52 127.6C648.693 125.64 645.66 123.027 643.42 119.76C641.273 116.493 640.2 112.807 640.2 108.7C640.2 103.66 641.506 99.6933 644.12 96.8C646.733 93.8133 650.98 91.6667 656.86 90.36C662.74 89.0533 670.626 88.4 680.52 88.4H687.52V98.48H680.66C674.873 98.48 670.253 98.76 666.8 99.32C663.346 99.88 660.873 100.86 659.38 102.26C657.98 103.567 657.28 105.433 657.28 107.86C657.28 110.94 658.353 113.46 660.5 115.42C662.646 117.38 665.633 118.36 669.46 118.36C672.54 118.36 675.246 117.66 677.58 116.26C680.006 114.767 681.92 112.76 683.32 110.24C684.72 107.72 685.42 104.827 685.42 101.56V85.46C685.42 80.7933 684.393 77.4333 682.34 75.38C680.286 73.3267 676.833 72.3 671.98 72.3C669.273 72.3 666.333 72.6267 663.16 73.28C660.08 73.9333 656.813 75.0533 653.36 76.64C651.586 77.48 650 77.7133 648.6 77.34C647.293 76.9667 646.266 76.22 645.52 75.1C644.773 73.8867 644.4 72.58 644.4 71.18C644.4 69.78 644.773 68.4267 645.52 67.12C646.266 65.72 647.526 64.6933 649.3 64.04C653.593 62.2667 657.7 61.0067 661.62 60.26C665.633 59.5133 669.273 59.14 672.54 59.14C679.26 59.14 684.766 60.1667 689.06 62.22C693.446 64.2733 696.713 67.4 698.86 71.6C701.006 75.7067 702.08 81.0267 702.08 87.56V121.16C702.08 124.053 701.38 126.293 699.98 127.88C698.58 129.373 696.573 130.12 693.96 130.12C691.346 130.12 689.293 129.373 687.8 127.88C686.4 126.293 685.7 124.053 685.7 121.16V114.44H686.82C686.166 117.707 684.86 120.553 682.9 122.98C681.033 125.313 678.653 127.133 675.76 128.44C672.866 129.747 669.553 130.4 665.82 130.4Z" fill="#0ACF83" fill-opacity="0.08"/>
<path d="M12.672 175.12C14.7627 175.12 16.6507 175.611 18.336 176.592C20.0427 177.573 21.376 178.949 22.336 180.72C23.3173 182.469 23.808 184.453 23.808 186.672C23.808 188.891 23.3173 190.885 22.336 192.656C21.376 194.405 20.0427 195.781 18.336 196.784C16.6507 197.765 14.7627 198.256 12.672 198.256C10.56 198.256 8.65067 197.765 6.944 196.784C5.25867 195.781 3.92533 194.405 2.944 192.656C1.96267 190.885 1.472 188.891 1.472 186.672C1.472 184.453 1.96267 182.469 2.944 180.72C3.92533 178.949 5.25867 177.573 6.944 176.592C8.65067 175.611 10.56 175.12 12.672 175.12ZM12.672 178.512C11.2213 178.512 9.93067 178.843 8.8 179.504C7.66933 180.165 6.784 181.115 6.144 182.352C5.52533 183.589 5.216 185.029 5.216 186.672C5.216 188.315 5.52533 189.755 6.144 190.992C6.784 192.229 7.66933 193.179 8.8 193.84C9.93067 194.501 11.2213 194.832 12.672 194.832C14.1013 194.832 15.3707 194.501 16.48 193.84C17.6107 193.179 18.4853 192.229 19.104 190.992C19.744 189.755 20.064 188.315 20.064 186.672C20.064 185.029 19.744 183.589 19.104 182.352C18.4853 181.115 17.6107 180.165 16.48 179.504C15.3707 178.843 14.1013 178.512 12.672 178.512ZM37.6013 180.144C39.1373 180.144 40.5026 180.507 41.6973 181.232C42.9133 181.957 43.8626 183.003 44.5453 184.368C45.2279 185.733 45.5693 187.333 45.5693 189.168C45.5693 191.024 45.2279 192.635 44.5453 194C43.8626 195.365 42.9133 196.411 41.6973 197.136C40.5026 197.861 39.1373 198.224 37.6013 198.224C36.0013 198.224 34.6359 197.829 33.5052 197.04C32.3746 196.251 31.5853 195.205 31.1373 193.904V206.384H27.4893V180.368H31.1373V184.464C31.5853 183.163 32.3746 182.117 33.5052 181.328C34.6359 180.539 36.0013 180.144 37.6013 180.144ZM36.4813 183.344C35.4573 183.344 34.5399 183.589 33.7292 184.08C32.9186 184.549 32.2786 185.232 31.8093 186.128C31.3399 187.003 31.1053 188.016 31.1053 189.168C31.1053 190.341 31.3399 191.365 31.8093 192.24C32.2786 193.115 32.9186 193.797 33.7292 194.288C34.5399 194.757 35.4573 194.992 36.4813 194.992C38.1026 194.992 39.4039 194.48 40.3853 193.456C41.3666 192.411 41.8573 190.981 41.8573 189.168C41.8573 187.376 41.3666 185.957 40.3853 184.912C39.4039 183.867 38.1026 183.344 36.4813 183.344ZM65.467 188.336C65.467 188.933 65.4243 189.456 65.339 189.904H51.771C51.835 191.717 52.3363 193.061 53.275 193.936C54.2137 194.811 55.3763 195.248 56.763 195.248C57.979 195.248 59.003 194.939 59.835 194.32C60.6883 193.701 61.211 192.88 61.403 191.856H65.307C65.0723 193.093 64.5817 194.192 63.835 195.152C63.0883 196.112 62.1177 196.869 60.923 197.424C59.7283 197.957 58.395 198.224 56.923 198.224C55.2163 198.224 53.7017 197.861 52.379 197.136C51.0777 196.411 50.0537 195.365 49.307 194C48.5603 192.635 48.187 191.024 48.187 189.168C48.187 187.333 48.5603 185.733 49.307 184.368C50.0537 183.003 51.0777 181.957 52.379 181.232C53.7017 180.507 55.2163 180.144 56.923 180.144C58.651 180.144 60.155 180.507 61.435 181.232C62.7363 181.936 63.7283 182.917 64.411 184.176C65.115 185.413 65.467 186.8 65.467 188.336ZM61.787 188.24C61.8297 187.088 61.627 186.128 61.179 185.36C60.7523 184.571 60.155 183.995 59.387 183.632C58.6403 183.248 57.819 183.056 56.923 183.056C55.4937 183.056 54.299 183.493 53.339 184.368C52.379 185.243 51.8563 186.533 51.771 188.24H61.787ZM78.8453 180.08C80.8933 180.08 82.5359 180.741 83.7733 182.064C85.0106 183.387 85.6293 185.275 85.6293 187.728V198H81.9813V188.112C81.9813 186.533 81.5759 185.317 80.7653 184.464C79.9546 183.589 78.8453 183.152 77.4373 183.152C75.9866 183.152 74.8239 183.621 73.9493 184.56C73.0746 185.477 72.6373 186.832 72.6373 188.624V198H68.9893V180.368H72.6373V184.24C73.1066 182.917 73.8959 181.893 75.0052 181.168C76.1146 180.443 77.3946 180.08 78.8453 180.08ZM112.244 191.984C112.244 193.093 111.977 194.128 111.444 195.088C110.91 196.027 110.1 196.784 109.012 197.36C107.924 197.936 106.59 198.224 105.012 198.224C103.476 198.224 102.1 197.957 100.884 197.424C99.6675 196.869 98.6968 196.101 97.9715 195.12C97.2462 194.139 96.8302 193.008 96.7235 191.728H100.628C100.734 192.709 101.15 193.552 101.876 194.256C102.622 194.96 103.614 195.312 104.852 195.312C105.961 195.312 106.814 195.013 107.412 194.416C108.03 193.819 108.34 193.051 108.34 192.112C108.34 191.301 108.116 190.64 107.668 190.128C107.22 189.595 106.665 189.179 106.004 188.88C105.342 188.581 104.436 188.24 103.284 187.856C101.876 187.408 100.724 186.96 99.8275 186.512C98.9528 186.064 98.2062 185.413 97.5875 184.56C96.9688 183.707 96.6595 182.587 96.6595 181.2C96.6595 179.984 96.9582 178.917 97.5555 178C98.1528 177.083 99.0062 176.379 100.116 175.888C101.225 175.376 102.505 175.12 103.956 175.12C106.26 175.12 108.084 175.675 109.428 176.784C110.793 177.893 111.572 179.344 111.764 181.136H107.828C107.678 180.283 107.273 179.557 106.612 178.96C105.972 178.341 105.086 178.032 103.956 178.032C102.932 178.032 102.11 178.299 101.492 178.832C100.873 179.344 100.564 180.091 100.564 181.072C100.564 181.84 100.777 182.48 101.204 182.992C101.63 183.483 102.164 183.877 102.804 184.176C103.465 184.453 104.361 184.784 105.492 185.168C106.921 185.616 108.084 186.075 108.98 186.544C109.897 186.992 110.665 187.653 111.284 188.528C111.924 189.403 112.244 190.555 112.244 191.984ZM122.968 180.144C124.568 180.144 125.933 180.539 127.064 181.328C128.194 182.117 128.994 183.163 129.464 184.464V180.368H133.112V198H129.464V193.904C128.994 195.205 128.194 196.251 127.064 197.04C125.933 197.829 124.568 198.224 122.968 198.224C121.432 198.224 120.056 197.861 118.84 197.136C117.645 196.411 116.706 195.365 116.024 194C115.341 192.635 115 191.024 115 189.168C115 187.333 115.341 185.733 116.024 184.368C116.706 183.003 117.645 181.957 118.84 181.232C120.056 180.507 121.432 180.144 122.968 180.144ZM124.088 183.344C122.466 183.344 121.165 183.867 120.184 184.912C119.224 185.936 118.744 187.355 118.744 189.168C118.744 190.981 119.224 192.411 120.184 193.456C121.165 194.48 122.466 194.992 124.088 194.992C125.112 194.992 126.029 194.757 126.84 194.288C127.65 193.797 128.29 193.115 128.76 192.24C129.229 191.365 129.464 190.341 129.464 189.168C129.464 188.016 129.229 187.003 128.76 186.128C128.29 185.232 127.65 184.549 126.84 184.08C126.029 183.589 125.112 183.344 124.088 183.344ZM147.345 180.08C149.393 180.08 151.036 180.741 152.273 182.064C153.511 183.387 154.129 185.275 154.129 187.728V198H150.481V188.112C150.481 186.533 150.076 185.317 149.265 184.464C148.455 183.589 147.345 183.152 145.937 183.152C144.487 183.152 143.324 183.621 142.449 184.56C141.575 185.477 141.137 186.832 141.137 188.624V198H137.489V180.368H141.137V184.24C141.607 182.917 142.396 181.893 143.505 181.168C144.615 180.443 145.895 180.08 147.345 180.08ZM164.188 180.144C166.257 180.144 167.91 180.677 169.148 181.744C170.406 182.789 171.174 184.197 171.452 185.968H167.996C167.846 185.008 167.43 184.24 166.748 183.664C166.086 183.067 165.201 182.768 164.092 182.768C163.174 182.768 162.46 182.992 161.948 183.44C161.457 183.867 161.212 184.453 161.212 185.2C161.212 185.755 161.393 186.203 161.756 186.544C162.118 186.885 162.566 187.152 163.1 187.344C163.654 187.536 164.433 187.749 165.436 187.984C166.758 188.283 167.825 188.592 168.636 188.912C169.468 189.232 170.172 189.744 170.748 190.448C171.345 191.131 171.644 192.069 171.644 193.264C171.644 194.736 171.078 195.931 169.948 196.848C168.838 197.765 167.334 198.224 165.436 198.224C163.238 198.224 161.457 197.712 160.092 196.688C158.748 195.664 157.937 194.235 157.66 192.4H161.212C161.318 193.36 161.745 194.139 162.492 194.736C163.238 195.333 164.22 195.632 165.436 195.632C166.31 195.632 166.993 195.408 167.484 194.96C167.996 194.491 168.252 193.904 168.252 193.2C168.252 192.581 168.06 192.091 167.676 191.728C167.292 191.365 166.812 191.088 166.236 190.896C165.66 190.683 164.87 190.469 163.868 190.256C162.588 189.957 161.542 189.659 160.732 189.36C159.942 189.061 159.26 188.581 158.684 187.92C158.129 187.237 157.852 186.32 157.852 185.168C157.852 183.675 158.406 182.469 159.516 181.552C160.646 180.613 162.204 180.144 164.188 180.144Z" fill="#222222"/>
<path d="M302.875 176.156H309.984C313.224 176.156 315.573 176.62 317.031 177.547C318.5 178.464 319.234 179.927 319.234 181.938C319.234 183.302 318.911 184.422 318.266 185.297C317.63 186.172 316.781 186.698 315.719 186.875V187.031C317.167 187.354 318.208 187.958 318.844 188.844C319.49 189.729 319.812 190.906 319.812 192.375C319.812 194.458 319.057 196.083 317.547 197.25C316.047 198.417 314.005 199 311.422 199H302.875V176.156ZM307.719 185.203H310.531C311.844 185.203 312.792 185 313.375 184.594C313.969 184.188 314.266 183.516 314.266 182.578C314.266 181.703 313.943 181.078 313.297 180.703C312.661 180.318 311.651 180.125 310.266 180.125H307.719V185.203ZM307.719 189.047V195H310.875C312.208 195 313.193 194.745 313.828 194.234C314.464 193.724 314.781 192.943 314.781 191.891C314.781 189.995 313.427 189.047 310.719 189.047H307.719ZM327.797 190.234C327.797 191.964 328.078 193.271 328.641 194.156C329.214 195.042 330.141 195.484 331.422 195.484C332.693 195.484 333.604 195.047 334.156 194.172C334.719 193.286 335 191.974 335 190.234C335 188.505 334.719 187.208 334.156 186.344C333.594 185.479 332.672 185.047 331.391 185.047C330.12 185.047 329.203 185.479 328.641 186.344C328.078 187.198 327.797 188.495 327.797 190.234ZM339.875 190.234C339.875 193.078 339.125 195.302 337.625 196.906C336.125 198.51 334.036 199.312 331.359 199.312C329.682 199.312 328.203 198.948 326.922 198.219C325.641 197.479 324.656 196.422 323.969 195.047C323.281 193.672 322.938 192.068 322.938 190.234C322.938 187.38 323.682 185.161 325.172 183.578C326.661 181.995 328.755 181.203 331.453 181.203C333.13 181.203 334.609 181.568 335.891 182.297C337.172 183.026 338.156 184.073 338.844 185.438C339.531 186.802 339.875 188.401 339.875 190.234ZM348.578 199H343.812V174.688H348.578V199ZM359.125 199.312C357.073 199.312 355.458 198.516 354.281 196.922C353.115 195.328 352.531 193.12 352.531 190.297C352.531 187.432 353.125 185.203 354.312 183.609C355.51 182.005 357.156 181.203 359.25 181.203C361.448 181.203 363.125 182.057 364.281 183.766H364.438C364.198 182.464 364.078 181.302 364.078 180.281V174.688H368.859V199H365.203L364.281 196.734H364.078C362.995 198.453 361.344 199.312 359.125 199.312ZM360.797 195.516C362.016 195.516 362.906 195.161 363.469 194.453C364.042 193.745 364.354 192.542 364.406 190.844V190.328C364.406 188.453 364.115 187.109 363.531 186.297C362.958 185.484 362.021 185.078 360.719 185.078C359.656 185.078 358.828 185.531 358.234 186.438C357.651 187.333 357.359 188.641 357.359 190.359C357.359 192.078 357.656 193.37 358.25 194.234C358.844 195.089 359.693 195.516 360.797 195.516Z" fill="#222222"/>
<path d="M484.188 192.797C484.188 194.828 483.453 196.422 481.984 197.578C480.516 198.734 478.49 199.312 475.906 199.312C473.323 199.312 471.208 198.911 469.562 198.109V194.578C470.604 195.068 471.708 195.453 472.875 195.734C474.052 196.016 475.146 196.156 476.156 196.156C477.635 196.156 478.724 195.875 479.422 195.312C480.13 194.75 480.484 193.995 480.484 193.047C480.484 192.193 480.161 191.469 479.516 190.875C478.87 190.281 477.536 189.578 475.516 188.766C473.432 187.922 471.964 186.958 471.109 185.875C470.255 184.792 469.828 183.49 469.828 181.969C469.828 180.062 470.505 178.562 471.859 177.469C473.214 176.375 475.031 175.828 477.312 175.828C479.5 175.828 481.677 176.307 483.844 177.266L482.656 180.312C480.625 179.458 478.812 179.031 477.219 179.031C476.01 179.031 475.094 179.297 474.469 179.828C473.844 180.349 473.531 181.042 473.531 181.906C473.531 182.5 473.656 183.01 473.906 183.438C474.156 183.854 474.568 184.25 475.141 184.625C475.714 185 476.745 185.495 478.234 186.109C479.911 186.807 481.141 187.458 481.922 188.062C482.703 188.667 483.276 189.349 483.641 190.109C484.005 190.87 484.188 191.766 484.188 192.797ZM495.766 199.312C493.078 199.312 490.974 198.531 489.453 196.969C487.943 195.396 487.188 193.234 487.188 190.484C487.188 187.661 487.891 185.443 489.297 183.828C490.703 182.214 492.635 181.406 495.094 181.406C497.375 181.406 499.177 182.099 500.5 183.484C501.823 184.87 502.484 186.776 502.484 189.203V191.188H490.969C491.021 192.865 491.474 194.156 492.328 195.062C493.182 195.958 494.385 196.406 495.938 196.406C496.958 196.406 497.906 196.312 498.781 196.125C499.667 195.927 500.615 195.604 501.625 195.156V198.141C500.729 198.568 499.823 198.87 498.906 199.047C497.99 199.224 496.943 199.312 495.766 199.312ZM495.094 184.188C493.927 184.188 492.99 184.557 492.281 185.297C491.583 186.036 491.167 187.115 491.031 188.531H498.875C498.854 187.104 498.51 186.026 497.844 185.297C497.177 184.557 496.26 184.188 495.094 184.188ZM521.219 199H517.531V188.344C517.531 187.021 517.281 186.036 516.781 185.391C516.281 184.734 515.5 184.406 514.438 184.406C513.021 184.406 511.979 184.87 511.312 185.797C510.656 186.714 510.328 188.245 510.328 190.391V199H506.656V181.719H509.531L510.047 183.984H510.234C510.714 183.161 511.406 182.526 512.312 182.078C513.229 181.63 514.234 181.406 515.328 181.406C517.984 181.406 519.745 182.312 520.609 184.125H520.859C521.37 183.271 522.089 182.604 523.016 182.125C523.943 181.646 525.005 181.406 526.203 181.406C528.266 181.406 529.766 181.927 530.703 182.969C531.651 184.01 532.125 185.599 532.125 187.734V199H528.453V188.344C528.453 187.021 528.198 186.036 527.688 185.391C527.188 184.734 526.406 184.406 525.344 184.406C523.917 184.406 522.87 184.854 522.203 185.75C521.547 186.635 521.219 188 521.219 189.844V199ZM540.922 199H537.25V181.719H540.922V199ZM537.031 177.141C537.031 176.484 537.208 175.979 537.562 175.625C537.927 175.271 538.443 175.094 539.109 175.094C539.755 175.094 540.255 175.271 540.609 175.625C540.974 175.979 541.156 176.484 541.156 177.141C541.156 177.766 540.974 178.26 540.609 178.625C540.255 178.979 539.755 179.156 539.109 179.156C538.443 179.156 537.927 178.979 537.562 178.625C537.208 178.26 537.031 177.766 537.031 177.141ZM546.578 176.156H553.359C556.505 176.156 558.776 176.615 560.172 177.531C561.578 178.448 562.281 179.896 562.281 181.875C562.281 183.208 561.938 184.318 561.25 185.203C560.562 186.089 559.573 186.646 558.281 186.875V187.031C559.885 187.333 561.062 187.932 561.812 188.828C562.573 189.714 562.953 190.917 562.953 192.438C562.953 194.49 562.234 196.099 560.797 197.266C559.37 198.422 557.38 199 554.828 199H546.578V176.156ZM550.312 185.594H553.906C555.469 185.594 556.609 185.349 557.328 184.859C558.047 184.359 558.406 183.516 558.406 182.328C558.406 181.255 558.016 180.479 557.234 180C556.464 179.521 555.234 179.281 553.547 179.281H550.312V185.594ZM550.312 188.625V195.859H554.281C555.844 195.859 557.021 195.562 557.812 194.969C558.615 194.365 559.016 193.417 559.016 192.125C559.016 190.938 558.609 190.057 557.797 189.484C556.984 188.911 555.75 188.625 554.094 188.625H550.312ZM582.641 190.328C582.641 193.151 581.917 195.354 580.469 196.938C579.021 198.521 577.005 199.312 574.422 199.312C572.807 199.312 571.38 198.948 570.141 198.219C568.901 197.49 567.948 196.443 567.281 195.078C566.615 193.714 566.281 192.13 566.281 190.328C566.281 187.526 567 185.339 568.438 183.766C569.875 182.193 571.901 181.406 574.516 181.406C577.016 181.406 578.995 182.214 580.453 183.828C581.911 185.432 582.641 187.599 582.641 190.328ZM570.062 190.328C570.062 194.318 571.536 196.312 574.484 196.312C577.401 196.312 578.859 194.318 578.859 190.328C578.859 186.38 577.391 184.406 574.453 184.406C572.911 184.406 571.792 184.917 571.094 185.938C570.406 186.958 570.062 188.422 570.062 190.328ZM590.547 199H586.875V174.688H590.547V199ZM601.641 199.312C599.484 199.312 597.802 198.531 596.594 196.969C595.385 195.406 594.781 193.214 594.781 190.391C594.781 187.557 595.391 185.354 596.609 183.781C597.839 182.198 599.536 181.406 601.703 181.406C603.974 181.406 605.703 182.245 606.891 183.922H607.078C606.901 182.682 606.812 181.703 606.812 180.984V174.688H610.5V199H607.625L606.984 196.734H606.812C605.635 198.453 603.911 199.312 601.641 199.312ZM602.625 196.344C604.135 196.344 605.234 195.922 605.922 195.078C606.609 194.224 606.964 192.844 606.984 190.938V190.422C606.984 188.245 606.63 186.698 605.922 185.781C605.214 184.865 604.104 184.406 602.594 184.406C601.302 184.406 600.307 184.932 599.609 185.984C598.911 187.026 598.562 188.516 598.562 190.453C598.562 192.37 598.901 193.833 599.578 194.844C600.255 195.844 601.271 196.344 602.625 196.344Z" fill="#222222"/>
<path d="M715.797 189.5V199H713.141V176.156H719.406C722.208 176.156 724.276 176.693 725.609 177.766C726.953 178.839 727.625 180.453 727.625 182.609C727.625 185.63 726.094 187.672 723.031 188.734L729.234 199H726.094L720.562 189.5H715.797ZM715.797 187.219H719.438C721.312 187.219 722.688 186.849 723.562 186.109C724.438 185.359 724.875 184.24 724.875 182.75C724.875 181.24 724.427 180.151 723.531 179.484C722.646 178.818 721.219 178.484 719.25 178.484H715.797V187.219ZM739.766 199.312C737.234 199.312 735.234 198.542 733.766 197C732.307 195.458 731.578 193.318 731.578 190.578C731.578 187.818 732.255 185.625 733.609 184C734.974 182.375 736.802 181.562 739.094 181.562C741.24 181.562 742.938 182.271 744.188 183.688C745.438 185.094 746.062 186.953 746.062 189.266V190.906H734.266C734.318 192.917 734.823 194.443 735.781 195.484C736.75 196.526 738.109 197.047 739.859 197.047C741.703 197.047 743.526 196.661 745.328 195.891V198.203C744.411 198.599 743.542 198.88 742.719 199.047C741.906 199.224 740.922 199.312 739.766 199.312ZM739.062 183.734C737.688 183.734 736.589 184.182 735.766 185.078C734.953 185.974 734.474 187.214 734.328 188.797H743.281C743.281 187.161 742.917 185.911 742.188 185.047C741.458 184.172 740.417 183.734 739.062 183.734ZM764.516 181.875V183.516L761.344 183.891C761.635 184.255 761.896 184.734 762.125 185.328C762.354 185.911 762.469 186.573 762.469 187.312C762.469 188.99 761.896 190.328 760.75 191.328C759.604 192.328 758.031 192.828 756.031 192.828C755.521 192.828 755.042 192.786 754.594 192.703C753.49 193.286 752.938 194.021 752.938 194.906C752.938 195.375 753.13 195.724 753.516 195.953C753.901 196.172 754.562 196.281 755.5 196.281H758.531C760.385 196.281 761.807 196.672 762.797 197.453C763.797 198.234 764.297 199.37 764.297 200.859C764.297 202.755 763.536 204.198 762.016 205.188C760.495 206.188 758.276 206.688 755.359 206.688C753.12 206.688 751.391 206.271 750.172 205.438C748.964 204.604 748.359 203.427 748.359 201.906C748.359 200.865 748.693 199.964 749.359 199.203C750.026 198.443 750.964 197.927 752.172 197.656C751.734 197.458 751.365 197.151 751.062 196.734C750.771 196.318 750.625 195.833 750.625 195.281C750.625 194.656 750.792 194.109 751.125 193.641C751.458 193.172 751.984 192.719 752.703 192.281C751.818 191.917 751.094 191.297 750.531 190.422C749.979 189.547 749.703 188.547 749.703 187.422C749.703 185.547 750.266 184.104 751.391 183.094C752.516 182.073 754.109 181.562 756.172 181.562C757.068 181.562 757.875 181.667 758.594 181.875H764.516ZM750.859 201.875C750.859 202.802 751.25 203.505 752.031 203.984C752.812 204.464 753.932 204.703 755.391 204.703C757.568 204.703 759.177 204.375 760.219 203.719C761.271 203.073 761.797 202.193 761.797 201.078C761.797 200.151 761.51 199.505 760.938 199.141C760.365 198.786 759.286 198.609 757.703 198.609H754.594C753.417 198.609 752.5 198.891 751.844 199.453C751.188 200.016 750.859 200.823 750.859 201.875ZM752.266 187.359C752.266 188.557 752.604 189.464 753.281 190.078C753.958 190.693 754.901 191 756.109 191C758.641 191 759.906 189.771 759.906 187.312C759.906 184.74 758.625 183.453 756.062 183.453C754.844 183.453 753.906 183.781 753.25 184.438C752.594 185.094 752.266 186.068 752.266 187.359ZM770.469 181.875V192.984C770.469 194.38 770.786 195.422 771.422 196.109C772.057 196.797 773.052 197.141 774.406 197.141C776.198 197.141 777.505 196.651 778.328 195.672C779.161 194.693 779.578 193.094 779.578 190.875V181.875H782.172V199H780.031L779.656 196.703H779.516C778.984 197.547 778.245 198.193 777.297 198.641C776.359 199.089 775.286 199.312 774.078 199.312C771.995 199.312 770.432 198.818 769.391 197.828C768.359 196.839 767.844 195.255 767.844 193.078V181.875H770.469ZM790.281 199H787.688V174.688H790.281V199ZM806.312 199L805.797 196.562H805.672C804.818 197.635 803.964 198.365 803.109 198.75C802.266 199.125 801.208 199.312 799.938 199.312C798.24 199.312 796.906 198.875 795.938 198C794.979 197.125 794.5 195.88 794.5 194.266C794.5 190.807 797.266 188.995 802.797 188.828L805.703 188.734V187.672C805.703 186.328 805.411 185.339 804.828 184.703C804.255 184.057 803.333 183.734 802.062 183.734C800.635 183.734 799.021 184.172 797.219 185.047L796.422 183.062C797.266 182.604 798.188 182.245 799.188 181.984C800.198 181.724 801.208 181.594 802.219 181.594C804.26 181.594 805.771 182.047 806.75 182.953C807.74 183.859 808.234 185.312 808.234 187.312V199H806.312ZM800.453 197.172C802.068 197.172 803.333 196.729 804.25 195.844C805.177 194.958 805.641 193.719 805.641 192.125V190.578L803.047 190.688C800.984 190.76 799.495 191.083 798.578 191.656C797.672 192.219 797.219 193.099 797.219 194.297C797.219 195.234 797.5 195.948 798.062 196.438C798.635 196.927 799.432 197.172 800.453 197.172ZM821.406 181.562C822.167 181.562 822.849 181.625 823.453 181.75L823.094 184.156C822.385 184 821.76 183.922 821.219 183.922C819.833 183.922 818.646 184.484 817.656 185.609C816.677 186.734 816.188 188.135 816.188 189.812V199H813.594V181.875H815.734L816.031 185.047H816.156C816.792 183.932 817.557 183.073 818.453 182.469C819.349 181.865 820.333 181.562 821.406 181.562Z" fill="#222222"/>
<path d="M1021.2 209L1011.21 181.246H973.002L963.227 209H946L983.393 108.648H1001.17L1038.56 209H1021.2ZM1006.91 167.164L997.543 139.957C996.859 138.134 995.902 135.263 994.672 131.344C993.487 127.424 992.667 124.553 992.211 122.73C990.98 128.336 989.18 134.465 986.811 141.119L977.787 167.164H1006.91ZM1097.35 209L1094.13 198.473H1093.59C1089.94 203.076 1086.27 206.22 1082.58 207.906C1078.89 209.547 1074.15 210.367 1068.36 210.367C1060.93 210.367 1055.12 208.362 1050.93 204.352C1046.78 200.341 1044.71 194.667 1044.71 187.33C1044.71 179.537 1047.6 173.658 1053.39 169.693C1059.18 165.729 1068 163.564 1079.85 163.199L1092.9 162.789V158.756C1092.9 153.925 1091.76 150.325 1089.49 147.955C1087.25 145.54 1083.77 144.332 1079.03 144.332C1075.15 144.332 1071.44 144.902 1067.88 146.041C1064.33 147.18 1060.91 148.525 1057.63 150.074L1052.44 138.59C1056.54 136.448 1061.03 134.83 1065.9 133.736C1070.78 132.597 1075.38 132.027 1079.71 132.027C1089.33 132.027 1096.57 134.124 1101.45 138.316C1106.37 142.509 1108.83 149.094 1108.83 158.072V209H1097.35ZM1073.42 198.062C1079.26 198.062 1083.93 196.445 1087.44 193.209C1090.99 189.928 1092.77 185.348 1092.77 179.469V172.906L1083.06 173.316C1075.5 173.59 1069.98 174.866 1066.52 177.145C1063.1 179.378 1061.39 182.818 1061.39 187.467C1061.39 190.839 1062.39 193.46 1064.4 195.328C1066.4 197.151 1069.41 198.062 1073.42 198.062Z" fill="#0ACF83" fill-opacity="0.08"/>
<path d="M923.234 199V176.156H924.828V197.5H935.719V199H923.234ZM940.828 199H939.281V182.016H940.828V199ZM939.062 177.297C939.062 176.297 939.391 175.797 940.047 175.797C940.37 175.797 940.62 175.927 940.797 176.188C940.984 176.448 941.078 176.818 941.078 177.297C941.078 177.766 940.984 178.135 940.797 178.406C940.62 178.677 940.37 178.812 940.047 178.812C939.391 178.812 939.062 178.307 939.062 177.297ZM959.781 182.016V183.094L956.266 183.312C957.203 184.479 957.672 185.76 957.672 187.156C957.672 188.792 957.125 190.12 956.031 191.141C954.948 192.151 953.49 192.656 951.656 192.656C950.885 192.656 950.344 192.625 950.031 192.562C949.417 192.885 948.948 193.266 948.625 193.703C948.302 194.141 948.141 194.604 948.141 195.094C948.141 195.635 948.344 196.031 948.75 196.281C949.167 196.531 949.859 196.656 950.828 196.656H953.797C955.641 196.656 957.052 197.031 958.031 197.781C959.01 198.521 959.5 199.62 959.5 201.078C959.5 202.87 958.771 204.25 957.312 205.219C955.865 206.198 953.797 206.688 951.109 206.688C948.974 206.688 947.318 206.276 946.141 205.453C944.974 204.63 944.391 203.484 944.391 202.016C944.391 200.849 944.75 199.88 945.469 199.109C946.198 198.339 947.182 197.812 948.422 197.531C947.911 197.312 947.5 197.005 947.188 196.609C946.885 196.203 946.734 195.74 946.734 195.219C946.734 194.083 947.458 193.083 948.906 192.219C947.917 191.812 947.146 191.177 946.594 190.312C946.042 189.438 945.766 188.438 945.766 187.312C945.766 185.615 946.302 184.255 947.375 183.234C948.458 182.203 949.917 181.688 951.75 181.688C952.865 181.688 953.729 181.797 954.344 182.016H959.781ZM946.031 201.875C946.031 204.208 947.766 205.375 951.234 205.375C955.693 205.375 957.922 203.953 957.922 201.109C957.922 200.089 957.573 199.349 956.875 198.891C956.177 198.432 955.047 198.203 953.484 198.203H950.703C947.589 198.203 946.031 199.427 946.031 201.875ZM947.328 187.312C947.328 188.625 947.724 189.646 948.516 190.375C949.318 191.094 950.385 191.453 951.719 191.453C953.135 191.453 954.219 191.094 954.969 190.375C955.729 189.656 956.109 188.615 956.109 187.25C956.109 185.802 955.719 184.719 954.938 184C954.167 183.271 953.083 182.906 951.688 182.906C950.333 182.906 949.266 183.297 948.484 184.078C947.714 184.849 947.328 185.927 947.328 187.312ZM975.125 199V187.984C975.125 186.276 974.766 185.036 974.047 184.266C973.328 183.484 972.214 183.094 970.703 183.094C968.672 183.094 967.182 183.609 966.234 184.641C965.297 185.661 964.828 187.323 964.828 189.625V199H963.281V174.688H964.828V182.422L964.75 184.594H964.859C965.495 183.573 966.297 182.833 967.266 182.375C968.234 181.917 969.438 181.688 970.875 181.688C974.729 181.688 976.656 183.755 976.656 187.891V199H975.125ZM986.641 197.938C987.62 197.938 988.474 197.854 989.203 197.688V198.938C988.453 199.188 987.589 199.312 986.609 199.312C985.109 199.312 984 198.911 983.281 198.109C982.573 197.307 982.219 196.047 982.219 194.328V183.359H979.703V182.453L982.219 181.75L983 177.906H983.797V182.016H988.781V183.359H983.797V194.109C983.797 195.411 984.026 196.375 984.484 197C984.943 197.625 985.661 197.938 986.641 197.938Z" fill="#222222"/>
</svg>
