<svg width="337" height="275" viewBox="0 0 337 275" fill="none" xmlns="http://www.w3.org/2000/svg">
<path d="M316.049 110.971C331.14 96.7585 338.358 72.9889 335.788 49.8634C334.44 37.7362 330.424 25.9881 323.796 16.8504C320.768 12.6719 317.173 9.07073 313.152 6.46609C309.632 4.18694 306.805 2.47488 303.575 2.43661C301.333 2.40977 299.208 2.38636 297.687 2.50914C292.187 2.95229 291.756 4.84196 287.768 7.67732C284.075 10.3042 280.481 13.1425 277.096 16.353C269.078 23.9688 261.247 33.3783 256.557 44.7323C247.515 66.6003 255.893 91.2032 267.945 108.483C273.885 117 281.712 122.014 290.872 122.05C299.999 122.086 308.832 117.766 316.049 110.971Z" fill="#FF616D" fill-opacity="0.24"/>
<path d="M193.127 150.361C201.269 150.705 209.487 146.249 216.317 139.888C222.934 133.726 228.741 125.159 231.886 114.899C234.887 105.104 234.965 94.3864 232.252 84.7693C229.689 75.6885 225.036 68.0073 219.562 62.1067C218.57 60.4462 217.424 58.9781 216.036 57.8504C212.43 54.9224 208.081 54.407 203.937 54.1165C199.858 53.8312 195.748 53.586 191.649 54.0539C183.475 54.9879 176.038 59.6628 171.275 69.5345C166.358 79.7239 165.297 92.1095 166.334 103.791C168.187 124.651 175.812 149.631 193.127 150.361Z" fill="#FFB910" fill-opacity="0.24"/>
<path d="M71.7162 193.894C78.544 196.699 86.2653 195.781 93.1423 192.942C99.8033 190.193 106.196 185.314 110.629 178.284C114.861 171.573 116.779 163.229 116.147 154.876C115.549 146.987 112.94 139.541 109.331 133.23C108.778 131.624 108.063 130.122 107.083 128.809C104.54 125.399 100.951 123.642 97.4952 122.124C94.0943 120.631 90.6607 119.159 87.1127 118.248C80.0378 116.431 72.9391 117.764 67.2043 123.986C61.284 130.41 58.2456 139.749 57.1045 149.191C55.0658 166.053 57.1977 187.931 71.7162 193.894Z" fill="#F66640" fill-opacity="0.24"/>
<mask id="mask0_1736_7440" style="mask-type:luminance" maskUnits="userSpaceOnUse" x="0" y="0" width="337" height="275">
<path d="M337 274.712H0V0.360046H337V274.712Z" fill="white"/>
</mask>
<g mask="url(#mask0_1736_7440)">
<path d="M124.773 129.771C126.079 125.43 123.456 121.427 120.254 119.821C116.289 117.834 111.779 117.858 107.714 116.071C98.1193 111.852 91.2147 102.947 88.5425 90.9138C83.6633 68.9424 89.5423 43.6486 103.801 28.7665C117.764 14.1922 138.82 10.3729 155.079 21.4128C162.639 26.5456 168.917 34.4527 172.878 43.837C177.709 55.2841 178.074 67.9219 176.305 80.4261C174.428 93.6783 170.619 108.258 160.505 115.444C158.053 117.186 155.437 118.203 152.644 118.73C150.015 119.226 147.258 119.432 144.817 120.845C141.612 122.7 139.041 127.163 140.488 131.511C140.824 132.52 142.182 132.078 141.843 131.055C140.715 127.667 142.536 124.328 144.967 122.668C147.511 120.93 150.623 120.88 153.429 120.306C157.715 119.43 161.569 117.154 164.881 113.73C172.543 105.812 175.751 93.6321 177.5 81.9708C179.279 70.1045 179.406 57.959 175.51 46.6873C172.228 37.1915 166.678 28.9396 159.784 23.0044C145.074 10.3398 125.318 10.5123 109.934 21.394C94.1603 32.551 85.1452 54.3453 85.4715 76.3526C85.6568 88.8339 88.5902 101.908 96.6285 110.252C100.325 114.089 104.726 116.855 109.37 118.535C113.548 120.046 126.104 120.388 123.419 129.316C123.107 130.352 124.464 130.8 124.773 129.771Z" fill="#0B1A4A"/>
<path d="M123.923 131.632C127.098 133.041 130.401 133.403 133.763 133.191C135.423 133.087 137.075 132.859 138.723 132.601C139.681 132.452 140.883 132.551 141.529 131.566C142.089 130.713 141.101 129.494 140.536 130.355C139.999 131.173 137.604 131.065 136.66 131.187C135.286 131.365 133.907 131.499 132.524 131.53C129.697 131.593 126.96 131.162 124.296 129.98C123.445 129.602 123.079 131.257 123.923 131.632Z" fill="#0B1A4A"/>
<path d="M123.007 129.666C121.887 134.551 121.896 139.949 123.548 144.674C124.967 148.737 129.504 148.334 132.604 148.413C135.545 148.487 140.327 149.033 141.827 145.102C143.583 140.497 143.187 134.272 142.324 129.476C142.131 128.399 140.777 128.855 140.97 129.931C141.692 133.944 141.794 138.047 141.088 142.079C140.645 144.607 139.79 146.085 137.586 146.438C135.944 146.7 134.258 146.741 132.604 146.7C130.855 146.655 129.101 146.483 127.376 146.128C125.388 145.719 124.751 144.069 124.252 141.875C123.367 137.986 123.475 133.988 124.361 130.122C124.605 129.058 123.25 128.604 123.007 129.666Z" fill="#0B1A4A"/>
<path d="M123.223 137.141C129.523 138.799 135.675 138.789 141.972 137.11C142.854 136.875 142.481 135.223 141.598 135.458C135.537 137.075 129.663 137.086 123.597 135.49C122.715 135.258 122.339 136.908 123.223 137.141Z" fill="#0B1A4A"/>
<path d="M123.258 142.449C129.61 144.552 136.223 145.447 142.362 141.961C143.181 141.495 142.468 140.018 141.654 140.481C135.884 143.758 129.58 142.766 123.631 140.798C122.758 140.508 122.385 142.16 123.258 142.449Z" fill="#0B1A4A"/>
<path d="M127.192 148.792C127.909 151.6 128.348 155.045 129.519 157.622C130.402 159.563 132.095 159.807 133.773 159.471C138.443 158.535 138.665 152.28 139.136 147.553C139.244 146.461 137.839 146.47 137.732 147.553C137.365 151.23 137.092 157.826 133.023 157.875C129.867 157.912 129.282 151.219 128.547 148.337C128.279 147.287 126.923 147.735 127.192 148.792Z" fill="#0B1A4A"/>
<path d="M130.635 131.229C129.729 121.949 128.327 112.763 126.335 103.735C125.287 98.9874 124.088 94.2892 122.765 89.6435C121.912 86.6465 121.065 83.1476 118.907 81.1249C114.812 77.289 109.374 82.2299 112.377 87.8823C113.768 90.5007 116.424 91.3653 118.805 91.7719C122.072 92.3298 125.635 92.4686 128.752 90.9456C132.413 89.1558 137.515 81.8621 133.394 77.2976C131.843 75.5803 129.429 76.0046 128.027 77.7738C126.42 79.8023 126.47 83.0037 127.339 85.4421C129.411 91.2579 135.331 93.0391 140.07 92.677C142.464 92.4943 145.323 91.8587 146.674 89.1455C147.653 87.1793 147.586 84.4673 145.954 83.0711C144.113 81.4961 141.506 82.5263 140.144 84.4599C137.886 87.6693 138.138 93.1544 137.824 97.0811C136.893 108.712 135.962 120.342 135.031 131.973C134.943 133.069 136.348 133.062 136.435 131.973C137.381 120.157 138.326 108.343 139.273 96.5272C139.484 93.886 139.519 91.07 140.087 88.5002C140.399 87.0834 140.93 85.5752 141.978 84.7186C142.442 84.3394 143.221 84.0179 143.811 84.023C145.442 84.0368 146.288 86.6956 145.461 88.2815C143.385 92.2619 136.877 91.3156 133.794 90.0318C132.03 89.2974 130.329 88.0582 129.25 86.156C128.594 84.9996 128.144 83.581 128.13 82.1642C128.102 79.3934 130.766 76.0755 132.605 79.1358C134.142 81.6931 132.92 84.9876 131.24 87.004C129.45 89.1541 126.97 90.1158 124.513 90.3602C122.283 90.5824 119.897 90.3945 117.708 89.8205C115.452 89.2295 111.51 86.5072 113.189 82.9026C115.101 78.7955 118.99 83.1881 119.995 85.6249C121.033 88.1427 121.673 90.9684 122.392 93.637C125.687 105.872 127.981 118.441 129.231 131.229C129.337 132.31 130.743 132.324 130.635 131.229Z" fill="#0B1A4A"/>
<path d="M132.43 158.683C130.337 166.645 128.269 174.671 127.275 182.967C126.509 189.355 125.784 197.302 128.027 203.392C129.476 207.324 133.018 210.35 136.621 208.677C140.061 207.079 140.33 201.747 138.069 198.659C135.261 194.822 130.329 196.088 127.512 199.197C123.655 203.454 122.142 210.793 121.602 216.845C120.89 224.814 123.792 232.856 120.763 240.365C119.563 243.343 117.753 246.866 114.953 247.797C113.167 248.391 110.529 247.271 110.115 244.78C109.432 240.673 113.855 240.434 115.819 241.842C121.412 245.852 123.343 253.796 124.897 260.89C126.069 266.243 126.269 271.377 126.27 276.893C126.27 277.996 127.674 277.998 127.674 276.893C127.673 272.463 127.684 268.072 126.914 263.721C125.964 258.353 124.913 252.198 122.342 247.602C120.292 243.94 116.741 238.647 112.666 239.218C108.983 239.733 107.337 244.74 110.138 247.9C113.404 251.584 117.605 248.911 119.934 245.269C123.196 240.171 124.118 234.495 123.335 228.222C122.344 220.274 122.781 211.751 125.953 204.53C127.485 201.044 130.151 197.797 133.646 197.981C137.11 198.165 140.42 204.507 136.426 206.932C132.245 209.472 129.198 203.646 128.509 199.521C127.803 195.285 127.977 190.698 128.328 186.419C129.093 177.073 131.444 168.041 133.785 159.138C134.061 158.086 132.706 157.635 132.43 158.683Z" fill="#0B1A4A"/>
<path d="M231.691 194.623C222.037 193.096 215.02 179.596 214.776 168.419C214.526 156.962 220.761 144.825 228.19 138.252C236.138 131.217 247.331 129.58 255.803 136.245C264.111 142.778 270.692 154.893 270.346 167.179C269.962 180.911 261.743 192.305 250.813 195.095C249.928 195.32 250.303 196.972 251.183 196.746C261.406 194.139 269.62 184.202 271.38 171.551C273.285 157.829 267.219 144.851 258.532 136.532C250.181 128.534 238.493 128.528 229.533 135.112C220.995 141.386 214.233 153.679 213.424 165.914C212.567 178.886 220.631 194.587 231.691 196.336C232.584 196.477 232.575 194.763 231.691 194.623Z" fill="#0B1A4A"/>
<path d="M231.4 196.236C232.065 198.8 232.488 201.374 232.476 204.074C232.471 205.015 233.7 205.272 233.855 204.303C234.191 202.202 239.128 202.186 240.461 202.159C242.238 202.124 244.045 202.439 245.786 202.851C246.774 203.084 248.22 203.285 249.044 204.042C250.636 205.503 248.431 206.415 247.331 206.832C245.421 207.559 243.399 207.741 241.406 207.578C239.314 207.407 234.531 206.916 233.855 203.847C233.621 202.783 232.265 203.235 232.501 204.303C233.185 207.407 235.877 208.144 238.176 208.742C240.96 209.466 243.909 209.609 246.694 208.82C248.351 208.35 250.996 207.745 251.015 205.318C251.029 203.887 250.659 203.163 249.596 202.467C247.12 200.842 243.544 200.446 240.754 200.439C238.646 200.433 233.042 200.457 232.501 203.847C232.961 203.923 233.42 203.999 233.88 204.074C233.893 201.231 233.455 198.486 232.753 195.78C232.482 194.733 231.126 195.18 231.4 196.236Z" fill="#0B1A4A"/>
<path d="M251.295 204.236C251.365 201.563 251.478 198.891 251.515 196.217C251.529 195.114 250.125 195.113 250.111 196.217C250.074 198.891 249.961 201.563 249.891 204.236C249.863 205.338 251.267 205.337 251.295 204.236Z" fill="#0B1A4A"/>
<path d="M232.702 205.582C233.535 208.671 232.816 210.639 235.57 212.247C238.092 213.718 240.98 213.936 243.731 213.779C245.8 213.659 248.65 213.764 250.237 211.837C251.95 209.753 251.571 206.652 251.15 204.039C250.972 202.958 249.619 203.416 249.793 204.494C250.265 207.409 250.527 210.654 247.546 211.615C245.908 212.143 243.867 212.12 242.188 212.11C240.381 212.098 238.587 211.85 236.894 211.053C234.476 209.915 234.715 207.57 234.056 205.126C233.775 204.084 232.419 204.53 232.702 205.582Z" fill="#0B1A4A"/>
<path d="M234.126 210.873C234.004 213.462 234.966 215.666 236.555 217.343C238.134 219.01 240.553 220.901 242.674 221.207C246.761 221.797 250.426 215.525 250.992 211.215C251.133 210.137 249.78 209.673 249.639 210.76C249.167 214.332 245.965 220.339 242.404 219.413C239.306 218.606 235.337 214.99 235.53 210.873C235.581 209.772 234.177 209.775 234.126 210.873Z" fill="#0B1A4A"/>
<path d="M242.293 203.928C241.65 194.156 240.984 184.387 240.294 174.62C240.217 173.531 238.812 173.52 238.89 174.62C239.579 184.387 240.246 194.156 240.889 203.928C240.961 205.019 242.365 205.028 242.293 203.928Z" fill="#0B1A4A"/>
<path d="M238.799 172.872C237.165 173.393 235.513 173.787 233.825 173.92C232.694 174.01 231.599 174.124 230.594 173.074C230.366 172.721 230.139 172.368 229.911 172.015C228.786 169.848 229.423 168.456 231.823 167.84C232.395 168.231 232.956 167.588 232.854 166.872C232.441 163.928 233.636 160.51 236.144 159.603C238.662 158.692 241.188 160.885 241.676 163.889C241.775 164.493 242.521 164.751 242.85 164.267C245.282 160.691 249.977 162.878 249.308 167.704C249.209 168.414 249.771 169.069 250.338 168.671C252.402 169.261 252.874 170.224 251.751 171.561C251.054 171.684 250.361 171.792 249.659 171.886C248.479 172.058 247.295 172.215 246.111 172.353C243.742 172.63 241.368 172.804 238.985 172.841C238.082 172.855 238.079 174.569 238.985 174.554C241.962 174.508 244.922 174.234 247.885 173.844C249.322 173.654 252.247 173.924 253.357 172.43C255.22 169.924 252.004 165.532 249.631 167.192C249.972 167.514 250.319 167.836 250.661 168.159C251.54 161.837 245.324 157.957 241.857 163.056C242.248 163.182 242.639 163.308 243.03 163.434C242.392 159.506 238.99 156.828 235.77 157.951C232.488 159.096 230.96 163.49 231.501 167.328C231.844 167.005 232.188 166.683 232.532 166.36C229.47 164.261 227.286 168.616 228.338 171.957C230.055 177.408 235.603 175.662 239.171 174.524C240.045 174.245 239.675 172.592 238.799 172.872Z" fill="#0B1A4A"/>
<path d="M244.266 220.757C245.329 229.859 246.391 238.96 247.449 248.062C248.568 257.631 249.677 267.207 249.64 276.893C249.64 277.996 251.044 277.998 251.044 276.893C251.081 267.424 250.023 258.054 248.933 248.699C247.828 239.233 246.723 229.768 245.624 220.301C245.497 219.214 244.14 219.677 244.266 220.757Z" fill="#0B1A4A"/>
<path d="M276.193 137.445C277.546 126.823 269.607 120.466 263.279 115.472C254.76 108.752 249.667 99.1184 246.227 87.6221C244.359 81.3781 243.013 74.7599 243.307 68.0664C243.592 61.5894 245.576 55.4681 247.903 49.7128C252.106 39.3096 257.592 29.4181 265.044 22.069C272.416 14.7953 281.478 10.3021 291.04 10.5882C299.822 10.8504 308.369 14.7559 315.577 20.7807C323.094 27.0648 330.05 36.183 333.031 46.858C336.308 58.6187 334.777 72.7332 331.515 84.2711C327.995 96.7336 320.782 106.601 311.94 113.943C307.891 117.306 303.196 119.591 299.335 123.248C296.054 126.357 293.727 131.213 295.075 136.34C295.351 137.386 296.709 136.939 296.433 135.884C294.425 128.247 300.968 123.685 305.527 120.664C309.347 118.129 313.026 115.313 316.448 112.031C323.67 105.105 329.441 96.2944 332.591 85.6971C335.91 74.5252 337.487 60.9789 335.091 49.3228C332.9 38.6826 326.797 29.4404 319.925 22.6235C306.417 9.21997 287.872 4.32306 271.995 14.427C263.644 19.7379 256.96 28.212 251.844 37.7477C246.597 47.5336 241.542 59.2371 241.881 71.2427C242.079 78.2018 243.779 84.9855 245.927 91.3866C247.776 96.9055 250.042 102.253 253.103 106.928C256.478 112.088 260.747 115.455 265.217 119.026C270.202 123.005 275.875 128.852 274.836 136.99C274.7 138.068 276.053 138.533 276.193 137.445Z" fill="#0B1A4A"/>
<path d="M275.21 138.488C278.875 139.284 282.633 138.687 286.322 138.417C288.424 138.262 290.525 138.102 292.627 137.953C293.76 137.873 295.421 137.491 296.484 138.078C299.91 139.969 297.485 142.435 296.091 143.398C292.529 145.861 287.754 146.296 283.776 146.774C281.651 147.03 279.497 147.423 277.475 146.361C275.589 145.373 271.025 139.205 275.477 138.282C276.366 138.098 275.987 136.447 275.102 136.63C273.281 137.008 272.186 138.948 272.331 141.167C272.509 143.909 274.311 146.278 276.207 147.546C278.945 149.377 282.062 148.724 285.025 148.333C288.264 147.905 291.513 147.336 294.597 146.012C296.46 145.215 298.834 143.987 299.456 141.44C299.99 139.255 298.768 137.332 297.158 136.57C294.27 135.211 290.23 136.416 287.221 136.638C283.406 136.918 279.376 137.66 275.584 136.836C274.7 136.644 274.321 138.295 275.21 138.488Z" fill="#0B1A4A"/>
<path d="M274.677 145.598C273.853 148.551 272.884 153.259 276.002 154.683C277.738 155.476 279.845 154.968 281.637 154.797C284.006 154.571 286.37 154.293 288.724 153.903C291.841 153.388 296.475 153.159 298.6 149.814C300.005 147.605 299.799 144.226 297.744 142.78C296.957 142.229 296.251 143.709 297.032 144.26C298.24 145.109 298.343 147.065 297.688 148.439C296.99 149.897 295.413 150.572 294.172 150.993C291.682 151.837 289.005 152.181 286.449 152.533C284.123 152.855 281.787 153.099 279.447 153.279C278.983 153.315 278.515 153.366 278.047 153.351C276.793 153.31 276.709 153.256 275.95 151.835C275.187 150.401 275.215 150.023 275.468 148.451C275.599 147.629 275.81 146.845 276.03 146.053C276.325 145.007 274.967 144.558 274.677 145.598Z" fill="#0B1A4A"/>
<path d="M278.959 155.018C280.078 156.652 280.541 158.271 281.243 160.163C281.538 160.949 281.791 161.629 282.394 162.113C284.07 163.464 286.991 162.702 288.845 162.515C290.356 162.362 292.842 162.493 294.012 161.096C295.655 159.135 295.458 154.436 295.262 151.93C295.178 150.842 293.773 150.831 293.858 151.93C294.05 154.395 294.284 157.949 292.669 159.669C291.274 161.155 288.227 160.903 286.359 160.983C285.699 161.011 284.777 161.169 284.112 161.008C282.526 160.623 282.624 159.54 282.146 158.128C281.608 156.523 280.859 155.136 279.951 153.807C279.375 152.959 278.383 154.176 278.959 155.018Z" fill="#0B1A4A"/>
<path d="M282.222 136.568C281.622 124.166 281.009 111.711 279.043 99.4963C278.079 93.4887 276.876 87.3457 274.929 81.6864C273.707 78.1503 271.498 73.6474 267.983 73.3116C265.146 73.0404 263.564 75.9631 264.744 79.1348C265.83 82.0644 269.396 83.8261 271.788 84.3858C275.144 85.1722 278.772 84.4172 281.618 82.0615C283.808 80.2495 285.788 77.0236 284.618 73.6548C283.855 71.4476 280.953 70.7144 279.82 72.9244C278.411 75.6679 279.656 79.6214 281.271 81.732C285.634 87.4347 294.761 84.1854 293.755 75.5668C293.352 72.0861 290.797 71.9553 289.023 74.2824C286.79 77.2172 288.274 81.4231 290.581 83.556C293.951 86.6718 298.501 85.9717 302.204 84.2031C304.268 83.2174 307.703 80.4608 307.062 77.172C306.248 73.0107 301.516 75.4754 299.976 77.4913C296.736 81.7378 294.752 88.1354 293.249 93.552C289.486 107.101 289.098 121.552 288.728 135.718C288.7 136.82 290.104 136.819 290.132 135.718C290.502 121.533 290.89 107.074 294.733 93.5343C295.697 90.1479 296.872 86.8517 298.3 83.7182C299.405 81.2935 301.628 75.8237 304.586 76.6341C307.699 77.4873 303.322 81.6921 302.929 81.9599C301.871 82.6812 300.612 83.1374 299.442 83.4915C296.222 84.4635 292.149 84.2305 290.123 80.506C289.257 78.915 288.873 77.1606 290.015 75.4937C290.516 74.7644 291.733 74.363 292.313 75.3783C292.912 76.4314 292.07 79.1565 291.606 80.0245C289.79 83.4355 285.985 83.9044 283.354 81.6961C281.978 80.5431 280.686 78.4233 280.672 76.3212C280.658 74.7541 281.267 72.6606 282.741 73.9729C285.437 76.3697 281.36 80.4717 279.516 81.5681C275.762 83.7993 268.989 83.6703 266.302 78.9806C265.783 78.0726 265.661 77.1732 266.068 76.1812C266.756 74.5211 268.156 74.7918 269.481 75.6496C270.763 76.4828 271.765 78.0469 272.49 79.5294C274.011 82.6166 274.849 86.2669 275.668 89.7048C279.287 104.92 280.054 120.837 280.817 136.568C280.869 137.664 282.273 137.671 282.222 136.568Z" fill="#0B1A4A"/>
<path d="M286.572 162.837C286.225 175.938 285.879 189.039 285.533 202.14C285.387 207.6 285.046 213.303 286.501 218.566C287.541 222.31 289.89 226.221 293.363 226.653C299.462 227.411 300.984 216.597 294.894 214.968C286.197 212.641 286.731 227.282 286.361 233.751C285.537 248.181 284.957 262.705 281.601 276.667C281.343 277.727 282.701 278.18 282.953 277.123C285.046 268.418 286.108 259.45 286.768 250.431C287.115 245.775 287.358 241.108 287.615 236.444C287.873 231.822 287.896 227.005 288.58 222.443C288.884 220.403 289.525 218.222 291.112 217.17C292.694 216.119 294.885 216.282 296.312 217.617C297.955 219.155 297.829 222.181 296.364 223.845C294.505 225.948 291.814 224.757 290.213 222.878C287.405 219.576 286.899 214.258 286.82 209.747C286.735 205.159 286.979 200.55 287.101 195.963C287.391 184.921 287.686 173.879 287.976 162.837C288.004 161.735 286.6 161.736 286.572 162.837Z" fill="#0B1A4A"/>
<path d="M75.1337 193.449C71.3802 191.751 67.8224 189.883 64.8871 186.453C62.3408 183.478 60.4432 179.77 58.9805 175.878C56.0471 168.072 55.5659 159.802 58.2133 151.756C63.6186 135.326 78.9696 124.307 93.309 125.919C106.105 127.357 118.203 139.144 120.88 154.744C123.47 169.844 116.366 186.704 104.498 192.314C102.108 193.443 99.4329 194.367 97.6308 196.73C96.8655 197.734 96.366 198.95 96.1811 200.304C96.0075 201.578 96.2457 203.357 95.0863 204.12C94.3763 204.589 93.1724 204.445 92.3921 204.504C89.9735 204.688 87.5489 204.81 85.1252 204.833C84.2321 204.841 83.2431 204.908 82.3823 204.566C80.7899 203.932 80.3125 202.337 79.9923 200.558C79.3103 196.768 78.1271 194.933 75.1337 193.449C74.2973 193.034 73.9331 194.691 74.7607 195.101C77.2176 196.319 78.0882 197.924 78.6382 201.014C78.9434 202.726 79.3614 204.327 80.5765 205.39C83.2529 207.731 87.9983 206.511 91.0309 206.314C93.1583 206.176 96.7035 206.584 97.4141 203.355C97.7309 201.917 97.3607 200.454 97.9645 199.063C98.412 198.032 99.1534 197.245 99.9389 196.61C101.298 195.512 102.869 194.882 104.383 194.187C116.6 188.581 124.277 172.478 122.566 156.702C120.788 140.299 108.886 127.292 95.8043 124.603C81.0497 121.571 65.1408 131.675 58.1997 147.753C54.5033 156.317 54.0208 165.941 57.0988 174.882C58.6715 179.45 60.7269 183.836 63.6303 187.345C66.787 191.161 70.6608 193.246 74.7607 195.101C75.6093 195.485 75.9753 193.83 75.1337 193.449Z" fill="#0B1A4A"/>
<path d="M80.7724 204.275C79.6594 205.705 79.3289 207.841 80.7266 209.258C81.5874 210.13 82.6944 210.116 83.755 210.221C85.6634 210.413 87.5848 210.5 89.4992 210.463C91.635 210.422 95.2584 210.785 96.8279 208.532C97.8787 207.023 97.6919 204.984 96.1885 204.092C95.3787 203.612 94.6663 205.09 95.4793 205.572C95.55 207.622 94.8793 208.585 93.4661 208.46C92.8806 208.538 92.2936 208.6 91.7057 208.646C90.6764 208.728 89.6462 208.759 88.615 208.758C87.5829 208.755 86.5518 208.716 85.5211 208.65C85.0221 208.617 79.4323 208.486 81.7652 205.486C82.3873 204.686 81.3959 203.473 80.7724 204.275Z" fill="#0B1A4A"/>
<path d="M81.2329 208.59C80.2603 210.12 79.1706 212.303 80.5528 214.024C82.0993 215.95 85.4577 215.445 87.3778 215.312C90.4137 215.1 100.467 215.159 96.5305 208.735C95.996 207.862 94.7757 208.715 95.3177 209.6C95.68 210.19 96.0671 211.607 95.4769 212.222C95.1534 212.56 93.9687 212.567 93.5362 212.656C91.9448 212.981 90.3487 213.29 88.7418 213.474C87.5332 213.612 86.3181 213.69 85.1044 213.663C84.398 213.648 83.4048 213.801 82.7705 213.42C81.5535 212.689 81.3738 211.142 82.2266 209.802C82.7733 208.94 81.7866 207.719 81.2329 208.59Z" fill="#0B1A4A"/>
<path d="M83.024 215.622C83.4116 217.326 83.7884 219.035 84.1867 220.735C84.323 221.319 84.4278 222.245 84.8491 222.665C86.1026 223.914 89.1741 223.299 90.6438 223.158C91.7003 223.057 94.0486 223.177 94.7568 222.018C95.7884 220.328 95.5909 216.005 95.6443 214.029C95.6737 212.926 94.2695 212.927 94.24 214.029C94.1946 215.72 94.3917 218.562 93.7509 220.008C93.6947 220.348 93.6395 220.689 93.5843 221.029C93.1054 221.064 92.6289 221.131 92.1552 221.229C91.3787 221.344 90.62 221.462 89.8369 221.508C88.5703 221.581 87.0537 221.882 86.0731 220.866C85.0101 219.764 84.7452 216.783 84.3777 215.167C84.1367 214.106 82.7816 214.556 83.024 215.622Z" fill="#0B1A4A"/>
<path d="M87.4243 204.916C84.4371 192.485 81.9835 179.883 80.0695 167.141C79.7259 167.463 79.3819 167.785 79.0383 168.108C80.905 169.692 82.6528 171.409 84.3229 173.289C84.6458 173.653 85.1991 173.615 85.4252 173.116C86.432 170.894 87.1604 168.629 87.6476 166.159C87.2198 166.227 86.792 166.295 86.3646 166.363C87.2189 167.892 88.0694 169.423 88.9278 170.948C89.2742 171.565 89.6182 172.469 90.2707 172.682C91.754 173.166 93.6825 169.369 94.5119 168.283C94.1122 168.081 93.7129 167.88 93.3132 167.677C94.2418 180.333 89.3664 192.422 90.5899 205.089C90.6943 206.17 92.0999 206.183 91.9941 205.089C90.7715 192.43 95.6465 180.339 94.7174 167.677C94.6669 166.986 93.9657 166.487 93.5187 167.071C92.8273 167.977 91.3431 170.882 90.1401 170.084C89.7741 169.841 89.3547 168.678 89.1146 168.25C88.6025 167.333 88.0899 166.416 87.5769 165.499C87.2549 164.923 86.4437 164.944 86.2939 165.704C85.8366 168.019 85.1589 170.164 84.2134 172.251C84.5808 172.193 84.9482 172.136 85.3157 172.077C83.559 170.1 81.7087 168.293 79.747 166.628C79.1965 166.161 78.6157 166.93 78.7154 167.596C80.6288 180.338 83.083 192.94 86.0697 205.371C86.3234 206.427 87.6794 205.978 87.4243 204.916Z" fill="#0B1A4A"/>
<path d="M105.827 140.228C111.083 143.746 114.633 149.833 115.618 157.047C115.766 158.132 117.119 157.672 116.972 156.592C115.931 148.97 112.079 142.458 106.536 138.749C105.744 138.219 105.034 139.697 105.827 140.228Z" fill="#0B1A4A"/>
<path d="M88.6468 222.306C86.8452 240.553 91.5156 258.64 89.9626 276.894C89.8694 277.99 91.2746 277.982 91.3668 276.894C92.9199 258.64 88.2494 240.554 90.051 222.306C90.1592 221.214 88.754 221.224 88.6468 222.306Z" fill="#0B1A4A"/>
<path d="M194.532 173.415C192.118 173.373 189.695 173.494 187.282 173.358C185.047 173.233 182.275 173.124 180.365 171.472C178.266 169.658 178.616 167.372 178.716 164.666C178.833 161.518 178.877 158.357 178.927 155.205C179.002 150.502 177.912 147.43 174.862 144.481C171.682 141.408 168.5 138.711 165.87 134.877C153.966 117.524 154.835 91.7036 167.156 74.9993C178.991 58.955 202.305 52.1907 216.764 66.9831C230.279 80.8087 232.672 106.631 225.203 125.349C220.742 136.53 213.184 144.134 203.759 148.453C202.327 149.109 200.79 149.966 200.116 151.768C199.257 154.064 199.962 157.131 200.131 159.524C200.357 162.732 200.803 166.174 200.567 169.394C200.248 173.756 197.277 173.488 194.532 173.415C193.629 173.391 193.629 175.104 194.532 175.128C197.559 175.208 200.913 175.297 201.779 170.973C202.331 168.214 201.884 165.06 201.715 162.268C201.52 159.054 199.998 152.812 202.798 150.82C204.569 149.56 206.721 149.022 208.585 147.957C210.773 146.706 212.849 145.166 214.782 143.401C218.273 140.214 221.299 136.316 223.733 131.904C233.85 113.567 233.221 86.5326 221.091 69.754C208.377 52.1667 185.538 54.5161 171.277 68.0156C156.715 81.8001 151.637 106.957 160.017 127.125C162.321 132.669 165.543 137.692 169.465 141.668C171.296 143.525 173.397 145.002 175.128 147.001C177.65 149.916 177.564 153.364 177.476 157.308C177.4 160.723 177.138 164.186 177.159 167.597C177.172 169.678 177.882 171.215 179.203 172.525C183.12 176.411 189.9 175.047 194.532 175.128C195.437 175.144 195.437 173.431 194.532 173.415Z" fill="#0B1A4A"/>
<path d="M178.566 154.017C185.681 152.689 192.849 153.091 199.84 155.172C200.717 155.433 201.092 153.781 200.213 153.52C192.967 151.363 185.565 150.989 178.193 152.365C177.302 152.531 177.681 154.182 178.566 154.017Z" fill="#0B1A4A"/>
<path d="M178.369 159.91C185.854 160.798 193.36 161.226 200.88 161.194C201.783 161.19 201.785 159.478 200.88 159.481C193.36 159.514 185.854 159.085 178.369 158.198C177.47 158.091 177.476 159.805 178.369 159.91Z" fill="#0B1A4A"/>
<path d="M178.95 166.376C186.365 167.049 193.792 167.254 201.224 166.992C202.126 166.959 202.129 165.246 201.224 165.279C193.792 165.542 186.365 165.336 178.95 164.663C178.048 164.581 178.053 166.294 178.95 166.376Z" fill="#0B1A4A"/>
<path d="M183.148 174.534C183.654 176.543 183.5 179.111 184.651 180.808C185.749 182.429 187.559 182.247 189.12 182.315C190.758 182.386 193.064 182.965 194.567 181.833C196.319 180.515 196.447 177.279 196.704 175.094C196.83 174.016 195.477 173.55 195.349 174.639C195.112 176.657 195.139 179.171 193.52 180.172C192.148 181.019 190.631 180.671 189.12 180.602C187.452 180.525 185.756 180.608 185.203 178.217C184.888 176.857 184.844 175.434 184.502 174.079C184.237 173.028 182.881 173.476 183.148 174.534Z" fill="#0B1A4A"/>
<path d="M187.916 152.475C189.904 145.908 191.69 139.256 193.553 132.635C195.407 126.048 197.739 119.556 199.08 112.776C199.755 109.363 201.072 102.966 197.441 101.207C193.281 99.191 191.148 105.417 190.418 109.115C190.846 109.047 191.274 108.979 191.702 108.911C190.186 106.077 188.187 100.848 184.591 102.701C181.196 104.451 183.73 110.736 184.679 113.441C189.134 126.15 192.469 139.153 194.24 152.828C194.381 153.914 195.734 153.453 195.594 152.372C194.37 142.92 192.475 133.616 189.848 124.597C188.584 120.254 187.044 116.077 185.628 111.811C185.028 110.008 182.794 103.232 186.591 104.221C188.592 104.742 189.492 107.911 190.489 109.775C190.804 110.365 191.625 110.321 191.772 109.571C192.265 107.073 192.989 103.294 195.48 102.728C199.3 101.86 198.479 107.781 198.095 110.254C197.342 115.111 195.852 119.733 194.464 124.357C191.71 133.526 189.335 142.858 186.562 152.02C186.249 153.056 187.606 153.503 187.916 152.475Z" fill="#0B1A4A"/>
<path d="M188.902 181.946C187.006 190.342 186.061 199.014 186.194 207.726C186.328 216.583 187.821 224.951 189.589 233.498C191.108 240.844 192.069 248.603 191.755 256.2C191.467 263.138 190.232 270.019 189.476 276.894C189.357 277.983 190.762 277.973 190.881 276.894C191.613 270.232 192.782 263.581 193.127 256.864C193.481 249.985 192.769 242.871 191.556 236.158C189.929 227.161 187.909 218.597 187.632 209.308C187.361 200.217 188.277 191.167 190.256 182.401C190.496 181.337 189.142 180.882 188.902 181.946Z" fill="#0B1A4A"/>
<path d="M19.4754 236.67C19.2629 232.024 17.3522 227.97 14.3734 225.097C12.4618 223.254 10.45 221.745 8.78554 219.527C7.00124 217.149 5.5694 214.35 4.6178 211.34C0.904101 199.595 5.05312 185.036 11.8004 176.071C15.6166 170.999 21.2466 168.941 26.7193 168.338C31.8611 167.771 37.5042 168.368 42.008 171.693C51.2815 178.54 54.8244 194.168 50.336 205.974C47.9793 212.173 44.1032 217.321 40.0585 221.952C38.366 223.891 35.6095 225.856 34.5909 228.467C33.7451 230.636 34.5849 233.394 35.147 235.493C35.4269 236.537 36.7839 236.09 36.5016 235.038C36.1211 233.619 35.4953 231.825 35.6553 230.295C35.8781 228.178 37.787 226.766 38.9721 225.478C41.1552 223.106 43.2784 220.643 45.2368 217.992C48.4853 213.596 51.3648 208.61 52.7976 202.897C55.6398 191.569 51.8577 178.208 43.9927 171.254C36.1871 164.352 23.2027 164.949 15.0591 170.697C10.6868 173.783 7.82317 179.115 5.58343 184.495C3.24072 190.122 1.66519 196.35 1.79672 202.712C1.9231 208.784 3.73361 214.709 6.86737 219.424C10.8109 225.358 17.6733 227.976 18.0712 236.67C18.1213 237.766 19.5255 237.773 19.4754 236.67Z" fill="#0B1A4A"/>
<path d="M18.9643 236.51C17.7384 237.119 16.6361 238.251 17.6963 239.876C18.6755 241.377 20.6704 241.477 22.0924 241.661C26.8134 242.27 32.1841 242.655 36.7965 240.872C37.8497 240.465 39.296 239.78 39.5245 238.261C39.7791 236.57 38.4839 235.367 37.2917 234.986C34.5998 234.126 31.05 235.187 28.301 235.418C25.2107 235.678 22.0044 235.758 18.9643 236.51C18.0796 236.73 18.4536 238.382 19.3378 238.163C22.8226 237.3 26.5279 237.28 30.0679 236.984C31.6828 236.85 33.3075 236.626 34.9251 236.561C35.8833 236.522 38.842 236.785 37.2538 238.821C36.928 239.239 36.0799 239.343 35.6404 239.473C33.0416 240.242 30.2379 240.375 27.5778 240.387C26.0126 240.395 24.4754 240.241 22.92 240.045C22.3836 239.977 21.8462 239.927 21.3121 239.835C21.3084 239.834 18.0431 238.805 19.3378 238.163C20.164 237.753 19.8021 236.095 18.9643 236.51Z" fill="#0B1A4A"/>
<path d="M18.8216 239.821C16.844 240.886 15.7304 243.461 18.361 244.552C20.2122 245.32 22.5545 245.148 24.4825 245.244C27.0274 245.371 29.5714 245.363 32.1163 245.254C34.2727 245.162 37.7355 245.703 39.5942 244.034C41.5634 242.266 39.8367 239.765 38.3239 238.61C37.5553 238.023 36.8499 239.504 37.6148 240.089C38.784 240.982 39.415 242.571 37.8015 243.087C37.1223 243.304 36.4052 243.335 35.7078 243.385C34.1103 243.499 32.5015 243.538 30.9021 243.589C28.617 243.662 26.3299 243.637 24.0467 243.509C22.8919 243.445 21.7353 243.362 20.5843 243.231C19.9548 243.213 19.3383 243.102 18.7345 242.9C18.6151 241.976 18.8805 241.443 19.5298 241.301C20.355 240.856 19.6412 239.379 18.8216 239.821Z" fill="#0B1A4A"/>
<path d="M18.6819 243.675C16.9383 245.535 18.1801 247.793 20.1184 248.41C23.4712 249.478 27.3688 248.607 30.7638 248.465C33.5002 248.352 37.5401 249.277 40.0682 247.547C41.9204 246.28 42.0669 243.905 40.2727 242.602C39.4943 242.036 38.7875 243.517 39.5636 244.081C39.8126 245.506 39.4957 246.264 38.6143 246.355C38.099 246.489 37.5794 246.575 37.0552 246.615C36.4724 246.673 35.8841 246.681 35.3004 246.697C33.5156 246.746 31.7299 246.682 29.9465 246.798C28.1847 246.912 26.4383 247.109 24.6727 247.073C24.0563 247.061 23.4399 247.031 22.8243 246.993C22.6408 246.982 18.0664 246.602 19.6747 244.887C20.3562 244.16 19.3596 242.952 18.6819 243.675Z" fill="#0B1A4A"/>
<path d="M20.0581 247.203C18.3267 248.147 18.301 251.264 19.8452 252.453C21.0238 253.361 22.4963 253.173 23.8112 253.138C26.2559 253.073 28.6988 252.921 31.1421 252.785C33.571 252.651 36.0869 252.802 38.5007 252.501C39.4931 252.378 40.7639 252.2 41.5236 251.352C42.8492 249.871 42.0314 247.208 40.5841 246.362C39.7725 245.889 39.0596 247.366 39.875 247.842C41.1482 248.585 40.3983 250.103 39.5197 250.561C38.7259 250.974 37.4888 250.8 36.6462 250.822C34.963 250.867 33.2803 250.954 31.5985 251.046C29.9228 251.138 28.2471 251.241 26.5709 251.319C25.6512 251.362 24.7314 251.4 23.8112 251.424C23.5027 251.432 23.1938 251.439 22.8853 251.446C21.5532 251.801 20.8473 250.88 20.7668 248.682C21.5906 248.233 20.8768 246.756 20.0581 247.203Z" fill="#0B1A4A"/>
<path d="M25.6479 236.002C25.1044 229.167 23.9586 222.444 22.1321 215.944C21.3341 213.104 19.943 206.227 16.3926 206.998C15.2997 207.235 14.2587 208.557 14.0129 209.869C13.6197 211.963 15.3465 213.506 16.687 214.326C19.8957 216.291 24.2563 215.722 26.7478 212.429C28.1071 210.633 29.333 205.775 26.482 204.921C23.4044 204 22.2861 207.602 23.7419 210.365C25.7171 214.113 30.5631 214.443 33.8069 213.735C36.3677 213.176 37.5388 210.328 35.7213 207.635C32.6503 203.084 29.6972 209.875 29.2633 213.025C28.2354 220.489 28.2363 228.368 28.2302 235.918C28.2293 237.021 29.6335 237.022 29.6345 235.918C29.6377 231.76 29.7252 227.605 29.9218 223.454C30.0983 219.734 30.0562 215.646 30.857 212.03C31.2161 210.411 33.7689 205.202 34.977 209.521C35.7166 212.165 32.9606 212.175 31.6954 212.178C30.3646 212.181 28.9174 212.235 27.6447 211.742C26.6589 211.36 25.5407 210.588 24.9542 209.5C24.4908 208.64 23.6417 206.13 25.7972 206.567C27.9199 206.997 26.299 210.55 25.5388 211.478C24.355 212.922 22.6381 213.682 20.9807 213.742C19.4819 213.796 16.9871 213.29 15.976 211.695C14.7459 209.753 16.5111 208.424 17.7257 209.047C18.4465 209.418 19.0293 210.923 19.3349 211.726C22.1766 219.199 23.5963 227.855 24.2436 236.002C24.3298 237.089 25.7349 237.1 25.6479 236.002Z" fill="#0B1A4A"/>
<path d="M28.4615 251.883C28.0253 255.86 28.608 259.303 29.7244 263.036C31.2564 268.158 29.4754 272.16 27.2164 276.462C26.7273 277.393 27.9424 278.253 28.4287 277.327C30.2463 273.866 32.2651 269.974 31.7872 265.666C31.5676 263.688 30.7953 261.897 30.324 260.005C29.6584 257.332 29.5638 254.636 29.8657 251.883C29.9851 250.794 28.5795 250.804 28.4615 251.883Z" fill="#0B1A4A"/>
</g>
</svg>
